JosefinSlab-SemiBoldItalic_ik.ufo
<glyph name="exclam" format="1">
  <advance width="270"/>
  <unicode hex="0021"/>
  <outline>
    <contour>
      <point x="147" y="760" type="line"/>
      <point x="239" y="760" type="line"/>
      <point x="166" y="168" type="line"/>
      <point x="74" y="168" type="line"/>
    </contour>
    <contour>
      <point x="100" y="-4" type="qcurve"/>
      <point x="78" y="-4"/>
      <point x="47" y="28"/>
      <point x="51" y="53" type="qcurve"/>
      <point x="54" y="78"/>
      <point x="92" y="110"/>
      <point x="114" y="110" type="qcurve"/>
      <point x="134" y="110"/>
      <point x="165" y="78"/>
      <point x="162" y="53" type="qcurve"/>
      <point x="159" y="28"/>
      <point x="120" y="-4"/>
    </contour>
  </outline>
</glyph>
<glyph name="quotedbl" format="1">
  <advance width="352"/>
  <unicode hex="0022"/>
  <outline>
    <contour>
      <point x="222" y="478" type="line"/>
      <point x="253" y="730" type="line"/>
      <point x="344" y="730" type="line"/>
      <point x="336" y="667"/>
      <point x="317" y="542"/>
      <point x="309" y="478" type="qcurve"/>
    </contour>
    <contour>
      <point x="87" y="478" type="line"/>
      <point x="118" y="730" type="line"/>
      <point x="209" y="730" type="line"/>
      <point x="201" y="667"/>
      <point x="182" y="542"/>
      <point x="174" y="478" type="qcurve"/>
    </contour>
  </outline>
</glyph>
<glyph name="dollar" format="1">
  <advance width="568"/>
  <unicode hex="0024"/>
  <outline>
    <contour>
      <point x="432" y="546" type="line"/>
      <point x="440" y="616" type="line"/>
      <point x="418" y="621"/>
      <point x="375" y="628"/>
      <point x="355" y="629" type="qcurve"/>
      <point x="330" y="425" type="line"/>
      <point x="363" y="412"/>
      <point x="430" y="381"/>
      <point x="485" y="336"/>
      <point x="519" y="271"/>
      <point x="519" y="225" type="qcurve"/>
      <point x="519" y="179"/>
      <point x="489" y="100"/>
      <point x="429" y="39"/>
      <point x="338" y="1"/>
      <point x="277" y="-5" type="qcurve"/>
      <point x="270" y="-68" type="line"/>
      <point x="207" y="-68" type="line"/>
      <point x="214" y="-8" type="line"/>
      <point x="173" y="-7"/>
      <point x="111" y="6"/>
      <point x="64" y="25"/>
      <point x="29" y="49"/>
      <point x="16" y="60" type="qcurve"/>
      <point x="15" y="60" type="line"/>
      <point x="15" y="61" type="line"/>
      <point x="31" y="192" type="line"/>
      <point x="134" y="192" type="line"/>
      <point x="125" y="123" type="line"/>
      <point x="177" y="98"/>
      <point x="227" y="98" type="qcurve"/>
      <point x="257" y="342" type="line"/>
      <point x="225" y="355"/>
      <point x="164" y="384"/>
      <point x="116" y="423"/>
      <point x="87" y="476"/>
      <point x="87" y="512" type="qcurve"/>
      <point x="87" y="548"/>
      <point x="115" y="618"/>
      <point x="171" y="677"/>
      <point x="251" y="719"/>
      <point x="304" y="726" type="qcurve"/>
      <point x="312" y="792" type="line"/>
      <point x="375" y="792" type="line"/>
      <point x="367" y="728" type="line"/>
      <point x="400" y="726"/>
      <point x="463" y="714"/>
      <point x="512" y="700"/>
      <point x="546" y="687"/>
      <point x="551" y="685" type="qcurve"/>
      <point x="534" y="546" type="line"/>
    </contour>
    <contour>
      <point x="412" y="217" type="qcurve"/>
      <point x="412" y="254"/>
      <point x="357" y="299"/>
      <point x="317" y="317" type="qcurve"/>
      <point x="291" y="105" type="line"/>
      <point x="312" y="110"/>
      <point x="356" y="128"/>
      <point x="390" y="155"/>
      <point x="412" y="192"/>
    </contour>
    <contour>
      <point x="197" y="529" type="qcurve"/>
      <point x="197" y="500"/>
      <point x="238" y="464"/>
      <point x="270" y="450" type="qcurve"/>
      <point x="291" y="623" type="line"/>
      <point x="247" y="612"/>
      <point x="197" y="562"/>
    </contour>
  </outline>
</glyph>
<glyph name="percent" format="1">
  <advance width="720"/>
  <unicode hex="0025"/>
  <outline>
    <contour>
      <point x="489" y="106" type="qcurve"/>
      <point x="489" y="91"/>
      <point x="507" y="71"/>
      <point x="524" y="71" type="qcurve"/>
      <point x="544" y="71"/>
      <point x="569" y="97"/>
      <point x="569" y="119" type="qcurve"/>
      <point x="569" y="134"/>
      <point x="551" y="153"/>
      <point x="534" y="153" type="qcurve"/>
      <point x="514" y="153"/>
      <point x="489" y="127"/>
    </contour>
    <contour>
      <point x="513" y="-18" type="qcurve"/>
      <point x="488" y="-18"/>
      <point x="445" y="0"/>
      <point x="414" y="31"/>
      <point x="396" y="74"/>
      <point x="396" y="99" type="qcurve"/>
      <point x="396" y="128"/>
      <point x="421" y="180"/>
      <point x="462" y="219"/>
      <point x="516" y="242"/>
      <point x="545" y="242" type="qcurve"/>
      <point x="570" y="242"/>
      <point x="612" y="224"/>
      <point x="644" y="192"/>
      <point x="662" y="150"/>
      <point x="662" y="125" type="qcurve"/>
      <point x="662" y="95"/>
      <point x="637" y="43"/>
      <point x="595" y="4"/>
      <point x="541" y="-18"/>
    </contour>
    <contour>
      <point x="146" y="389" type="qcurve"/>
      <point x="146" y="373"/>
      <point x="164" y="353"/>
      <point x="180" y="353" type="qcurve"/>
      <point x="200" y="353"/>
      <point x="225" y="379"/>
      <point x="225" y="400" type="qcurve"/>
      <point x="225" y="415"/>
      <point x="207" y="435"/>
      <point x="190" y="435" type="qcurve"/>
      <point x="171" y="435"/>
      <point x="146" y="410"/>
    </contour>
    <contour>
      <point x="169" y="264" type="qcurve"/>
      <point x="144" y="264"/>
      <point x="102" y="282"/>
      <point x="71" y="313"/>
      <point x="53" y="356"/>
      <point x="53" y="381" type="qcurve"/>
      <point x="53" y="411"/>
      <point x="78" y="463"/>
      <point x="119" y="502"/>
      <point x="172" y="524"/>
      <point x="201" y="524" type="qcurve"/>
      <point x="226" y="524"/>
      <point x="268" y="506"/>
      <point x="300" y="474"/>
      <point x="318" y="432"/>
      <point x="318" y="407" type="qcurve"/>
      <point x="318" y="377"/>
      <point x="293" y="325"/>
      <point x="251" y="286"/>
      <point x="197" y="264"/>
    </contour>
    <contour>
      <point x="123" y="0" type="line"/>
      <point x="215" y="128"/>
      <point x="397" y="379"/>
      <point x="488" y="507" type="qcurve"/>
      <point x="589" y="507" type="line"/>
      <point x="497" y="379"/>
      <point x="315" y="128"/>
      <point x="224" y="0" type="qcurve"/>
    </contour>
  </outline>
</glyph>
<glyph name="ampersand" format="1">
  <advance width="684"/>
  <unicode hex="0026"/>
  <outline>
    <contour>
      <point x="641" y="95" type="line"/>
      <point x="629" y="0" type="line"/>
      <point x="502" y="0" type="line"/>
      <point x="495" y="10"/>
      <point x="487" y="21" type="qcurve"/>
      <point x="472" y="40"/>
      <point x="448" y="75" type="qcurve"/>
      <point x="412" y="37"/>
      <point x="303" y="-10"/>
      <point x="238" y="-10" type="qcurve"/>
      <point x="190" y="-10"/>
      <point x="111" y="19"/>
      <point x="56" y="70"/>
      <point x="25" y="141"/>
      <point x="25" y="183" type="qcurve"/>
      <point x="25" y="227"/>
      <point x="56" y="305"/>
      <point x="110" y="368"/>
      <point x="183" y="411"/>
      <point x="225" y="421" type="qcurve"/>
      <point x="214" y="442"/>
      <point x="195" y="479"/>
      <point x="190" y="493" type="qcurve"/>
      <point x="179" y="519"/>
      <point x="166" y="567"/>
      <point x="166" y="593" type="qcurve"/>
      <point x="166" y="631"/>
      <point x="198" y="691"/>
      <point x="251" y="734"/>
      <point x="320" y="757"/>
      <point x="358" y="758" type="qcurve"/>
      <point x="406" y="760"/>
      <point x="482" y="734"/>
      <point x="502" y="718" type="qcurve"/>
      <point x="502" y="718"/>
      <point x="484" y="697"/>
      <point x="464" y="673"/>
      <point x="447" y="652"/>
      <point x="447" y="651" type="qcurve"/>
      <point x="436" y="659"/>
      <point x="406" y="672"/>
      <point x="385" y="674" type="qcurve"/>
      <point x="363" y="677"/>
      <point x="318" y="670"/>
      <point x="281" y="649"/>
      <point x="257" y="614"/>
      <point x="257" y="588" type="qcurve"/>
      <point x="257" y="564"/>
      <point x="270" y="528"/>
      <point x="273" y="524" type="qcurve"/>
      <point x="456" y="234" type="line"/>
      <point x="556" y="429" type="line"/>
      <point x="647" y="429" type="line"/>
      <point x="505" y="156" type="line"/>
      <point x="544" y="95" type="line"/>
    </contour>
    <contour>
      <point x="270" y="345" type="qcurve"/>
      <point x="241" y="344"/>
      <point x="184" y="321"/>
      <point x="140" y="280"/>
      <point x="113" y="226"/>
      <point x="113" y="195" type="qcurve"/>
      <point x="113" y="164"/>
      <point x="137" y="118"/>
      <point x="176" y="88"/>
      <point x="227" y="74"/>
      <point x="254" y="74" type="qcurve"/>
      <point x="296" y="74"/>
      <point x="380" y="110"/>
      <point x="404" y="139" type="qcurve"/>
      <point x="372" y="187"/>
      <point x="302" y="294"/>
    </contour>
  </outline>
</glyph>
<glyph name="quotesingle" format="1">
  <advance width="218"/>
  <unicode hex="0027"/>
  <outline>
    <contour>
      <point x="87" y="478" type="line"/>
      <point x="118" y="730" type="line"/>
      <point x="210" y="730" type="line"/>
      <point x="176" y="478" type="line"/>
    </contour>
  </outline>
</glyph>
<glyph name="parenleft" format="1">
  <advance width="297"/>
  <unicode hex="0028"/>
  <outline>
    <contour>
      <point x="34" y="220" type="qcurve"/>
      <point x="34" y="310"/>
      <point x="75" y="471"/>
      <point x="140" y="607"/>
      <point x="222" y="717"/>
      <point x="263" y="756" type="qcurve"/>
      <point x="342" y="733" type="line"/>
      <point x="304" y="695"/>
      <point x="227" y="590"/>
      <point x="165" y="461"/>
      <point x="127" y="309"/>
      <point x="127" y="224" type="qcurve"/>
      <point x="127" y="165"/>
      <point x="145" y="57"/>
      <point x="174" y="-37"/>
      <point x="213" y="-115"/>
      <point x="234" y="-143" type="qcurve"/>
      <point x="214" y="-150"/>
      <point x="171" y="-161"/>
      <point x="150" y="-167" type="qcurve"/>
      <point x="127" y="-138"/>
      <point x="85" y="-57"/>
      <point x="53" y="43"/>
      <point x="34" y="158"/>
    </contour>
  </outline>
</glyph>
<glyph name="comma" format="1">
  <advance width="237"/>
  <unicode hex="002C"/>
  <outline>
    <contour>
      <point x="147" y="87" type="line"/>
      <point x="133" y="61"/>
      <point x="113" y="25"/>
      <point x="95" y="-7"/>
      <point x="75" y="-43"/>
      <point x="61" y="-69" type="qcurve"/>
      <point x="-15" y="-69" type="line"/>
      <point x="-2" y="-43"/>
      <point x="16" y="-7"/>
      <point x="32" y="25"/>
      <point x="49" y="61"/>
      <point x="63" y="87" type="qcurve"/>
    </contour>
  </outline>
</glyph>
<glyph name="hyphen" format="1">
  <advance width="300"/>
  <unicode hex="002D"/>
  <outline>
    <contour>
      <point x="42" y="173" type="line"/>
      <point x="53" y="262" type="line"/>
      <point x="240" y="262" type="line"/>
      <point x="229" y="173" type="line"/>
    </contour>
  </outline>
</glyph>
<glyph name="period" format="1">
  <advance width="222"/>
  <unicode hex="002E"/>
  <outline>
    <contour>
      <point x="28" y="50" type="qcurve"/>
      <point x="28" y="63"/>
      <point x="40" y="87"/>
      <point x="58" y="103"/>
      <point x="81" y="113"/>
      <point x="93" y="113" type="qcurve"/>
      <point x="111" y="113"/>
      <point x="141" y="84"/>
      <point x="141" y="62" type="qcurve"/>
      <point x="141" y="34"/>
      <point x="100" y="0"/>
      <point x="79" y="0" type="qcurve"/>
      <point x="59" y="0"/>
      <point x="28" y="27"/>
    </contour>
  </outline>
</glyph>
<glyph name="slash" format="1">
  <advance width="442"/>
  <unicode hex="002F"/>
  <outline>
    <contour>
      <point x="-4" y="-19" type="line"/>
      <point x="91" y="173"/>
      <point x="277" y="554"/>
      <point x="373" y="746" type="qcurve"/>
      <point x="465" y="746" type="line"/>
      <point x="88" y="-19" type="line"/>
    </contour>
  </outline>
</glyph>
<glyph name="zero" format="1">
  <advance width="641"/>
  <unicode hex="0030"/>
  <outline>
    <contour>
      <point x="52" y="292" type="qcurve"/>
      <point x="54" y="382"/>
      <point x="107" y="522"/>
      <point x="194" y="618"/>
      <point x="307" y="667"/>
      <point x="369" y="667" type="qcurve"/>
      <point x="430" y="667"/>
      <point x="525" y="617"/>
      <point x="585" y="528"/>
      <point x="608" y="403"/>
      <point x="598" y="327" type="qcurve"/>
      <point x="587" y="248"/>
      <point x="530" y="124"/>
      <point x="446" y="37"/>
      <point x="341" y="-8"/>
      <point x="283" y="-8" type="qcurve"/>
      <point x="232" y="-8"/>
      <point x="145" y="33"/>
      <point x="82" y="110"/>
      <point x="49" y="221"/>
    </contour>
    <contour>
      <point x="148" y="330" type="qcurve"/>
      <point x="141" y="279"/>
      <point x="157" y="189"/>
      <point x="197" y="121"/>
      <point x="257" y="81"/>
      <point x="294" y="81" type="qcurve"/>
      <point x="333" y="81"/>
      <point x="408" y="124"/>
      <point x="467" y="199"/>
      <point x="505" y="299"/>
      <point x="508" y="356" type="qcurve"/>
      <point x="511" y="395"/>
      <point x="498" y="474"/>
      <point x="462" y="538"/>
      <point x="402" y="578"/>
      <point x="359" y="578" type="qcurve"/>
      <point x="307" y="578"/>
      <point x="231" y="526"/>
      <point x="180" y="449"/>
      <point x="152" y="363"/>
    </contour>
  </outline>
</glyph>
<glyph name="one" format="1">
  <advance width="305"/>
  <unicode hex="0031"/>
  <outline>
    <contour>
      <point x="83" y="570" type="line"/>
      <point x="93" y="659" type="line"/>
      <point x="250" y="659" type="line"/>
      <point x="170" y="0" type="line"/>
      <point x="77" y="0" type="line"/>
      <point x="147" y="570" type="line"/>
    </contour>
  </outline>
</glyph>
<glyph name="two" format="1">
  <advance width="567"/>
  <unicode hex="0032"/>
  <outline>
    <contour>
      <point x="251" y="89" type="qcurve"/>
      <point x="407" y="89" type="line"/>
      <point x="415" y="151" type="line"/>
      <point x="511" y="151" type="line"/>
      <point x="492" y="0" type="line"/>
      <point x="20" y="0" type="line"/>
      <point x="93" y="66"/>
      <point x="231" y="188"/>
      <point x="336" y="303"/>
      <point x="400" y="410"/>
      <point x="400" y="460" type="qcurve"/>
      <point x="400" y="490"/>
      <point x="380" y="534"/>
      <point x="349" y="564"/>
      <point x="312" y="578"/>
      <point x="296" y="578" type="qcurve"/>
      <point x="256" y="578"/>
      <point x="202" y="548"/>
      <point x="170" y="506"/>
      <point x="157" y="459"/>
      <point x="157" y="441" type="qcurve"/>
      <point x="157" y="389"/>
      <point x="185" y="356" type="qcurve"/>
      <point x="124" y="299" type="line"/>
      <point x="109" y="309"/>
      <point x="87" y="343"/>
      <point x="72" y="383"/>
      <point x="65" y="425"/>
      <point x="65" y="443" type="qcurve"/>
      <point x="65" y="485"/>
      <point x="98" y="565"/>
      <point x="160" y="628"/>
      <point x="250" y="667"/>
      <point x="306" y="667" type="qcurve"/>
      <point x="350" y="667"/>
      <point x="420" y="637"/>
      <point x="468" y="585"/>
      <point x="494" y="516"/>
      <point x="494" y="477" type="qcurve"/>
      <point x="494" y="426"/>
      <point x="455" y="329"/>
      <point x="388" y="234"/>
      <point x="300" y="138"/>
    </contour>
  </outline>
</glyph>
<glyph name="five" format="1">
  <advance width="461"/>
  <unicode hex="0035"/>
  <outline>
    <contour>
      <point x="312" y="516" type="line"/>
      <point x="318" y="570" type="line"/>
      <point x="194" y="570" type="line"/>
      <point x="176" y="426" type="line"/>
      <point x="184" y="429"/>
      <point x="199" y="433"/>
      <point x="210" y="433" type="qcurve"/>
      <point x="256" y="433"/>
      <point x="330" y="402"/>
      <point x="381" y="350"/>
      <point x="408" y="279"/>
      <point x="408" y="239" type="qcurve"/>
      <point x="408" y="188"/>
      <point x="366" y="98"/>
      <point x="295" y="31"/>
      <point x="204" y="-8"/>
      <point x="155" y="-8" type="qcurve"/>
      <point x="110" y="-8"/>
      <point x="36" y="25"/>
      <point x="10" y="54" type="qcurve"/>
      <point x="29" y="70"/>
      <point x="66" y="100"/>
      <point x="84" y="116" type="qcurve"/>
      <point x="99" y="100"/>
      <point x="141" y="81"/>
      <point x="167" y="81" type="qcurve"/>
      <point x="195" y="81"/>
      <point x="249" y="104"/>
      <point x="291" y="144"/>
      <point x="316" y="197"/>
      <point x="316" y="226" type="qcurve"/>
      <point x="316" y="251"/>
      <point x="298" y="294"/>
      <point x="266" y="326"/>
      <point x="224" y="344"/>
      <point x="199" y="344" type="qcurve"/>
      <point x="171" y="344"/>
      <point x="110" y="330"/>
      <point x="82" y="305" type="qcurve"/>
      <point x="126" y="659" type="line"/>
      <point x="418" y="659" type="line"/>
      <point x="407" y="570" type="line"/>
      <point x="400" y="516" type="line"/>
    </contour>
  </outline>
</glyph>
<glyph name="six" format="1">
  <advance width="533"/>
  <unicode hex="0036"/>
  <outline>
    <contour>
      <point x="34" y="187" type="qcurve"/>
      <point x="34" y="244"/>
      <point x="73" y="344"/>
      <point x="137" y="432"/>
      <point x="218" y="507"/>
      <point x="303" y="571"/>
      <point x="385" y="625"/>
      <point x="417" y="646" type="qcurve"/>
      <point x="429" y="629"/>
      <point x="454" y="593"/>
      <point x="465" y="576" type="qcurve"/>
      <point x="435" y="557"/>
      <point x="365" y="511"/>
      <point x="300" y="466"/>
      <point x="247" y="426"/>
      <point x="233" y="411" type="qcurve"/>
      <point x="243" y="421"/>
      <point x="269" y="433"/>
      <point x="284" y="433" type="qcurve"/>
      <point x="326" y="433"/>
      <point x="399" y="403"/>
      <point x="452" y="349"/>
      <point x="482" y="277"/>
      <point x="482" y="235" type="qcurve"/>
      <point x="482" y="185"/>
      <point x="440" y="97"/>
      <point x="370" y="31"/>
      <point x="279" y="-8"/>
      <point x="231" y="-8" type="qcurve"/>
      <point x="196" y="-8"/>
      <point x="126" y="16"/>
      <point x="69" y="64"/>
      <point x="34" y="137"/>
    </contour>
    <contour>
      <point x="129" y="199" type="qcurve"/>
      <point x="129" y="175"/>
      <point x="146" y="132"/>
      <point x="176" y="100"/>
      <point x="217" y="81"/>
      <point x="242" y="81" type="qcurve"/>
      <point x="270" y="81"/>
      <point x="324" y="105"/>
      <point x="365" y="145"/>
      <point x="390" y="197"/>
      <point x="390" y="226" type="qcurve"/>
      <point x="390" y="251"/>
      <point x="372" y="294"/>
      <point x="341" y="326"/>
      <point x="298" y="344"/>
      <point x="274" y="344" type="qcurve"/>
      <point x="245" y="344"/>
      <point x="193" y="321"/>
      <point x="153" y="282"/>
      <point x="129" y="229"/>
    </contour>
    <contour>
      <point x="230" y="408" type="line"/>
      <point x="233" y="411" type="line"/>
    </contour>
  </outline>
</glyph>
<glyph name="eight" format="1">
  <advance width="533"/>
  <unicode hex="0038"/>
  <outline>
    <contour>
      <point x="220" y="496" type="qcurve"/>
      <point x="220" y="470"/>
      <point x="259" y="433"/>
      <point x="287" y="433" type="qcurve"/>
      <point x="302" y="433"/>
      <point x="332" y="445"/>
      <point x="356" y="466"/>
      <point x="370" y="494"/>
      <point x="370" y="510" type="qcurve"/>
      <point x="370" y="537"/>
      <point x="332" y="578"/>
      <point x="305" y="578" type="qcurve"/>
      <point x="289" y="578"/>
      <point x="258" y="564"/>
      <point x="234" y="542"/>
      <point x="220" y="512"/>
    </contour>
    <contour>
      <point x="128" y="200" type="qcurve"/>
      <point x="128" y="175"/>
      <point x="145" y="132"/>
      <point x="175" y="100"/>
      <point x="216" y="81"/>
      <point x="241" y="81" type="qcurve"/>
      <point x="269" y="81"/>
      <point x="323" y="104"/>
      <point x="365" y="144"/>
      <point x="390" y="197"/>
      <point x="390" y="226" type="qcurve"/>
      <point x="390" y="250"/>
      <point x="373" y="293"/>
      <point x="343" y="324"/>
      <point x="301" y="343"/>
      <point x="277" y="344" type="qcurve"/>
      <point x="248" y="344"/>
      <point x="195" y="322"/>
      <point x="153" y="283"/>
      <point x="128" y="230"/>
    </contour>
    <contour>
      <point x="33" y="186" type="qcurve"/>
      <point x="33" y="227"/>
      <point x="56" y="295"/>
      <point x="95" y="348"/>
      <point x="144" y="386"/>
      <point x="170" y="397" type="qcurve"/>
      <point x="149" y="412"/>
      <point x="130" y="459"/>
      <point x="130" y="482" type="qcurve"/>
      <point x="130" y="521"/>
      <point x="160" y="589"/>
      <point x="210" y="639"/>
      <point x="277" y="667"/>
      <point x="313" y="667" type="qcurve"/>
      <point x="344" y="667"/>
      <point x="397" y="645"/>
      <point x="435" y="605"/>
      <point x="457" y="550"/>
      <point x="457" y="517" type="qcurve"/>
      <point x="457" y="479"/>
      <point x="422" y="418"/>
      <point x="390" y="397" type="qcurve"/>
      <point x="428" y="378"/>
      <point x="482" y="296"/>
      <point x="482" y="234" type="qcurve"/>
      <point x="482" y="186"/>
      <point x="444" y="99"/>
      <point x="376" y="32"/>
      <point x="284" y="-8"/>
      <point x="229" y="-8" type="qcurve"/>
      <point x="182" y="-8"/>
      <point x="110" y="23"/>
      <point x="59" y="77"/>
      <point x="33" y="147"/>
    </contour>
  </outline>
</glyph>
<glyph name="nine" format="1">
  <advance width="532"/>
  <unicode hex="0039"/>
  <outline>
    <contour>
      <point x="506" y="425" type="qcurve"/>
      <point x="499" y="371"/>
      <point x="455" y="277"/>
      <point x="390" y="194"/>
      <point x="311" y="123"/>
      <point x="231" y="62"/>
      <point x="154" y="12"/>
      <point x="124" y="-8" type="qcurve"/>
      <point x="76" y="62" type="line"/>
      <point x="106" y="81"/>
      <point x="176" y="126"/>
      <point x="241" y="171"/>
      <point x="295" y="211"/>
      <point x="309" y="226" type="qcurve"/>
      <point x="286" y="205"/>
      <point x="258" y="205" type="qcurve"/>
      <point x="216" y="205"/>
      <point x="143" y="235"/>
      <point x="89" y="289"/>
      <point x="59" y="361"/>
      <point x="59" y="403" type="qcurve"/>
      <point x="59" y="452"/>
      <point x="101" y="541"/>
      <point x="171" y="607"/>
      <point x="262" y="646"/>
      <point x="311" y="646" type="qcurve"/>
      <point x="348" y="646"/>
      <point x="424" y="620"/>
      <point x="482" y="565"/>
      <point x="513" y="482"/>
    </contour>
    <contour>
      <point x="411" y="425" type="qcurve"/>
      <point x="414" y="452"/>
      <point x="400" y="500"/>
      <point x="370" y="536"/>
      <point x="327" y="557"/>
      <point x="300" y="557" type="qcurve"/>
      <point x="271" y="557"/>
      <point x="218" y="534"/>
      <point x="177" y="494"/>
      <point x="152" y="441"/>
      <point x="152" y="412" type="qcurve"/>
      <point x="152" y="387"/>
      <point x="170" y="344"/>
      <point x="201" y="312"/>
      <point x="244" y="294"/>
      <point x="268" y="294" type="qcurve"/>
      <point x="295" y="294"/>
      <point x="344" y="314"/>
      <point x="383" y="350"/>
      <point x="408" y="398"/>
    </contour>
    <contour>
      <point x="312" y="230" type="line"/>
      <point x="309" y="226" type="line"/>
    </contour>
  </outline>
</glyph>
<glyph name="colon" format="1">
  <advance width="225"/>
  <unicode hex="003A"/>
  <outline>
    <contour>
      <point x="62" y="325" type="qcurve"/>
      <point x="62" y="351"/>
      <point x="103" y="388"/>
      <point x="126" y="388" type="qcurve"/>
      <point x="145" y="388"/>
      <point x="174" y="358"/>
      <point x="174" y="336" type="qcurve"/>
      <point x="174" y="308"/>
      <point x="133" y="274"/>
      <point x="112" y="274" type="qcurve"/>
      <point x="92" y="274"/>
      <point x="62" y="302"/>
    </contour>
    <contour>
      <point x="28" y="50" type="qcurve"/>
      <point x="28" y="63"/>
      <point x="40" y="87"/>
      <point x="58" y="103"/>
      <point x="81" y="113"/>
      <point x="92" y="113" type="qcurve"/>
      <point x="111" y="113"/>
      <point x="141" y="84"/>
      <point x="141" y="62" type="qcurve"/>
      <point x="141" y="34"/>
      <point x="99" y="0"/>
      <point x="78" y="0" type="qcurve"/>
      <point x="58" y="0"/>
      <point x="28" y="27"/>
    </contour>
  </outline>
</glyph>
<glyph name="less" format="1">
  <advance width="556"/>
  <unicode hex="003C"/>
  <outline>
    <contour>
      <point x="455" y="111" type="line"/>
      <point x="439" y="-14" type="line"/>
      <point x="27" y="241" type="line"/>
      <point x="147" y="305"/>
      <point x="382" y="433"/>
      <point x="501" y="497" type="qcurve"/>
      <point x="486" y="372" type="line"/>
      <point x="426" y="340"/>
      <point x="305" y="274"/>
      <point x="245" y="241" type="qcurve"/>
    </contour>
  </outline>
</glyph>
<glyph name="greater" format="1">
  <advance width="556"/>
  <unicode hex="003E"/>
  <outline>
    <contour>
      <point x="45" y="-14" type="line"/>
      <point x="60" y="111" type="line"/>
      <point x="303" y="241" type="line"/>
      <point x="92" y="372" type="line"/>
      <point x="107" y="497" type="line"/>
      <point x="212" y="433"/>
      <point x="415" y="305"/>
      <point x="519" y="241" type="qcurve"/>
    </contour>
  </outline>
</glyph>
<glyph name="at" format="1">
  <advance width="948"/>
  <unicode hex="0040"/>
  <outline>
    <contour>
      <point x="224" y="183" type="qcurve"/>
      <point x="224" y="232"/>
      <point x="265" y="322"/>
      <point x="334" y="389"/>
      <point x="424" y="429"/>
      <point x="472" y="429" type="qcurve"/>
      <point x="502" y="429"/>
      <point x="549" y="414"/>
      <point x="583" y="392"/>
      <point x="603" y="368"/>
      <point x="606" y="359" type="qcurve"/>
      <point x="609" y="388"/>
      <point x="617" y="418" type="qcurve"/>
      <point x="699" y="418" type="line"/>
      <point x="657" y="80" type="line"/>
      <point x="688" y="80" type="line"/>
      <point x="703" y="80"/>
      <point x="745" y="100"/>
      <point x="783" y="146"/>
      <point x="810" y="221"/>
      <point x="810" y="277" type="qcurve"/>
      <point x="810" y="330"/>
      <point x="774" y="429"/>
      <point x="702" y="505"/>
      <point x="592" y="551"/>
      <point x="518" y="551" type="qcurve"/>
      <point x="449" y="551"/>
      <point x="336" y="517"/>
      <point x="245" y="459"/>
      <point x="178" y="383"/>
      <point x="133" y="298"/>
      <point x="111" y="209"/>
      <point x="111" y="168" type="qcurve"/>
      <point x="111" y="104"/>
      <point x="157" y="-9"/>
      <point x="239" y="-93"/>
      <point x="352" y="-141"/>
      <point x="419" y="-141" type="qcurve"/>
      <point x="477" y="-141"/>
      <point x="589" y="-105"/>
      <point x="638" y="-73" type="qcurve"/>
      <point x="649" y="-88"/>
      <point x="669" y="-117"/>
      <point x="680" y="-132" type="qcurve"/>
      <point x="651" y="-155"/>
      <point x="584" y="-188"/>
      <point x="512" y="-209"/>
      <point x="438" y="-220"/>
      <point x="404" y="-220" type="qcurve"/>
      <point x="323" y="-220"/>
      <point x="186" y="-160"/>
      <point x="85" y="-57"/>
      <point x="28" y="83"/>
      <point x="28" y="163" type="qcurve"/>
      <point x="28" y="247"/>
      <point x="97" y="415"/>
      <point x="227" y="549"/>
      <point x="413" y="632"/>
      <point x="531" y="632" type="qcurve"/>
      <point x="622" y="632"/>
      <point x="759" y="574"/>
      <point x="850" y="478"/>
      <point x="895" y="353"/>
      <point x="895" y="286" type="qcurve"/>
      <point x="895" y="219"/>
      <point x="860" y="113"/>
      <point x="800" y="39"/>
      <point x="721" y="0"/>
      <point x="677" y="0" type="qcurve"/>
      <point x="561" y="0" type="line"/>
      <point x="565" y="32" type="line"/>
      <point x="566" y="37"/>
      <point x="568" y="49"/>
      <point x="568" y="53" type="qcurve"/>
      <point x="562" y="45"/>
      <point x="537" y="23"/>
      <point x="500" y="4"/>
      <point x="450" y="-10"/>
      <point x="419" y="-10" type="qcurve"/>
      <point x="374" y="-10"/>
      <point x="302" y="21"/>
      <point x="251" y="73"/>
      <point x="224" y="144"/>
    </contour>
    <contour>
      <point x="311" y="195" type="qcurve"/>
      <point x="311" y="169"/>
      <point x="329" y="125"/>
      <point x="361" y="93"/>
      <point x="406" y="74"/>
      <point x="433" y="74" type="qcurve"/>
      <point x="466" y="74"/>
      <point x="522" y="98"/>
      <point x="564" y="139"/>
      <point x="588" y="194"/>
      <point x="588" y="225" type="qcurve"/>
      <point x="588" y="276"/>
      <point x="522" y="345"/>
      <point x="466" y="345" type="qcurve"/>
      <point x="433" y="345"/>
      <point x="377" y="322"/>
      <point x="335" y="281"/>
      <point x="311" y="226"/>
    </contour>
  </outline>
</glyph>
<glyph name="A" format="1">
  <advance width="747"/>
  <unicode hex="0041"/>
  <outline>
    <contour>
      <point x="68" y="95" type="line"/>
      <point x="432" y="759" type="line"/>
      <point x="632" y="95" type="line"/>
      <point x="720" y="95" type="line"/>
      <point x="708" y="0" type="line"/>
      <point x="439" y="0" type="line"/>
      <point x="451" y="95" type="line"/>
      <point x="525" y="95" type="line"/>
      <point x="492" y="208" type="line"/>
      <point x="235" y="208" type="line"/>
      <point x="175" y="95" type="line"/>
      <point x="250" y="95" type="line"/>
      <point x="238" y="0" type="line"/>
      <point x="-31" y="0" type="line"/>
      <point x="-19" y="95" type="line"/>
    </contour>
    <contour>
      <point x="285" y="300" type="line"/>
      <point x="466" y="300" type="line"/>
      <point x="410" y="494" type="line"/>
      <point x="408" y="501"/>
      <point x="407" y="508" type="qcurve"/>
      <point x="406" y="514"/>
      <point x="404" y="526"/>
      <point x="404" y="531" type="qcurve"/>
      <point x="402" y="526"/>
      <point x="397" y="514"/>
      <point x="395" y="508" type="qcurve"/>
      <point x="392" y="501"/>
      <point x="389" y="494" type="qcurve"/>
    </contour>
  </outline>
</glyph>
<glyph name="C" format="1">
  <advance width="654"/>
  <unicode hex="0043"/>
  <outline>
    <contour>
      <point x="541" y="546" type="line"/>
      <point x="550" y="619" type="line"/>
      <point x="504" y="630"/>
      <point x="464" y="630" type="qcurve"/>
      <point x="402" y="630"/>
      <point x="291" y="582"/>
      <point x="208" y="502"/>
      <point x="159" y="397"/>
      <point x="159" y="340" type="qcurve"/>
      <point x="159" y="293"/>
      <point x="191" y="208"/>
      <point x="252" y="142"/>
      <point x="339" y="103"/>
      <point x="393" y="103" type="qcurve"/>
      <point x="424" y="103"/>
      <point x="483" y="115"/>
      <point x="531" y="131"/>
      <point x="564" y="147"/>
      <point x="567" y="151" type="qcurve"/>
      <point x="602" y="52" type="line"/>
      <point x="588" y="43"/>
      <point x="542" y="22"/>
      <point x="483" y="4"/>
      <point x="411" y="-8"/>
      <point x="372" y="-8" type="qcurve"/>
      <point x="294" y="-8"/>
      <point x="173" y="43"/>
      <point x="90" y="132"/>
      <point x="47" y="250"/>
      <point x="47" y="316" type="qcurve"/>
      <point x="47" y="406"/>
      <point x="118" y="558"/>
      <point x="235" y="670"/>
      <point x="386" y="733"/>
      <point x="467" y="733" type="qcurve"/>
      <point x="499" y="733"/>
      <point x="560" y="723"/>
      <point x="612" y="708"/>
      <point x="650" y="690"/>
      <point x="660" y="682" type="qcurve"/>
      <point x="643" y="546" type="line"/>
    </contour>
  </outline>
</glyph>
<glyph name="D" format="1">
  <advance width="753"/>
  <unicode hex="0044"/>
  <outline>
    <contour>
      <point x="365" y="725" type="line"/>
      <point x="464" y="725"/>
      <point x="601" y="668"/>
      <point x="685" y="575"/>
      <point x="723" y="457"/>
      <point x="723" y="397" type="qcurve"/>
      <point x="723" y="305"/>
      <point x="654" y="159"/>
      <point x="540" y="55"/>
      <point x="392" y="0"/>
      <point x="312" y="0" type="qcurve"/>
      <point x="15" y="0" type="line"/>
      <point x="27" y="95" type="line"/>
      <point x="105" y="95" type="line"/>
      <point x="171" y="630" type="line"/>
      <point x="92" y="630" type="line"/>
      <point x="104" y="725" type="line"/>
    </contour>
    <contour>
      <point x="309" y="104" type="line"/>
      <point x="372" y="104"/>
      <point x="484" y="143"/>
      <point x="566" y="216"/>
      <point x="614" y="324"/>
      <point x="614" y="393" type="qcurve"/>
      <point x="614" y="451"/>
      <point x="574" y="537"/>
      <point x="509" y="593"/>
      <point x="425" y="620"/>
      <point x="382" y="620" type="qcurve"/>
      <point x="279" y="620" type="line"/>
      <point x="264" y="491"/>
      <point x="232" y="233"/>
      <point x="215" y="104" type="qcurve"/>
    </contour>
  </outline>
</glyph>
<glyph name="H" format="1">
  <advance width="838"/>
  <unicode hex="0048"/>
  <outline>
    <contour>
      <point x="373" y="725" type="line"/>
      <point x="361" y="630" type="line"/>
      <point x="280" y="630" type="line"/>
      <point x="254" y="417" type="line"/>
      <point x="617" y="417" type="line"/>
      <point x="643" y="630" type="line"/>
      <point x="562" y="630" type="line"/>
      <point x="574" y="725" type="line"/>
      <point x="843" y="725" type="line"/>
      <point x="831" y="630" type="line"/>
      <point x="752" y="630" type="line"/>
      <point x="686" y="95" type="line"/>
      <point x="766" y="95" type="line"/>
      <point x="754" y="0" type="line"/>
      <point x="485" y="0" type="line"/>
      <point x="497" y="95" type="line"/>
      <point x="577" y="95" type="line"/>
      <point x="604" y="313" type="line"/>
      <point x="242" y="313" type="line"/>
      <point x="215" y="95" type="line"/>
      <point x="296" y="95" type="line"/>
      <point x="284" y="0" type="line"/>
      <point x="15" y="0" type="line"/>
      <point x="27" y="95" type="line"/>
      <point x="105" y="95" type="line"/>
      <point x="171" y="630" type="line"/>
      <point x="92" y="630" type="line"/>
      <point x="104" y="725" type="line"/>
    </contour>
  </outline>
</glyph>
<glyph name="N" format="1">
  <advance width="879"/>
  <unicode hex="004E"/>
  <outline>
    <contour>
      <point x="295" y="95" type="line"/>
      <point x="284" y="0" type="line"/>
      <point x="14" y="0" type="line"/>
      <point x="26" y="95" type="line"/>
      <point x="105" y="95" type="line"/>
      <point x="170" y="630" type="line"/>
      <point x="88" y="630" type="line"/>
      <point x="100" y="725" type="line"/>
      <point x="217" y="725" type="line"/>
      <point x="229" y="707"/>
      <point x="294" y="632"/>
      <point x="380" y="538"/>
      <point x="475" y="435"/>
      <point x="559" y="341"/>
      <point x="623" y="267"/>
      <point x="635" y="250" type="qcurve"/>
      <point x="636" y="248"/>
      <point x="647" y="229"/>
      <point x="651" y="222" type="qcurve"/>
      <point x="651" y="230"/>
      <point x="652" y="248"/>
      <point x="652" y="256" type="qcurve"/>
      <point x="697" y="630" type="line"/>
      <point x="616" y="630" type="line"/>
      <point x="628" y="725" type="line"/>
      <point x="896" y="725" type="line"/>
      <point x="884" y="630" type="line"/>
      <point x="806" y="630" type="line"/>
      <point x="725" y="-33" type="line"/>
      <point x="713" y="-15"/>
      <point x="644" y="65"/>
      <point x="552" y="169"/>
      <point x="449" y="283"/>
      <point x="358" y="386"/>
      <point x="290" y="467"/>
      <point x="279" y="484" type="qcurve"/>
      <point x="278" y="486"/>
      <point x="266" y="503"/>
      <point x="262" y="510" type="qcurve"/>
      <point x="262" y="478" type="line"/>
      <point x="214" y="95" type="line"/>
    </contour>
  </outline>
</glyph>
<glyph name="Q" format="1">
  <advance width="826"/>
  <unicode hex="0051"/>
  <outline>
    <contour>
      <point x="46" y="324" type="qcurve"/>
      <point x="46" y="406"/>
      <point x="115" y="554"/>
      <point x="231" y="667"/>
      <point x="382" y="733"/>
      <point x="464" y="733" type="qcurve"/>
      <point x="534" y="733"/>
      <point x="655" y="680"/>
      <point x="743" y="589"/>
      <point x="793" y="467"/>
      <point x="793" y="398" type="qcurve"/>
      <point x="793" y="332"/>
      <point x="728" y="178"/>
      <point x="656" y="95" type="qcurve"/>
      <point x="782" y="104" type="line"/>
      <point x="769" y="0" type="line"/>
      <point x="452" y="0" type="line"/>
      <point x="432" y="-4"/>
      <point x="393" y="-8"/>
      <point x="373" y="-8" type="qcurve"/>
      <point x="302" y="-8"/>
      <point x="183" y="44"/>
      <point x="95" y="134"/>
      <point x="46" y="255"/>
    </contour>
    <contour>
      <point x="156" y="334" type="qcurve"/>
      <point x="156" y="284"/>
      <point x="191" y="197"/>
      <point x="253" y="132"/>
      <point x="338" y="95"/>
      <point x="389" y="95" type="qcurve"/>
      <point x="447" y="95"/>
      <point x="554" y="142"/>
      <point x="635" y="222"/>
      <point x="684" y="329"/>
      <point x="684" y="389" type="qcurve"/>
      <point x="684" y="439"/>
      <point x="649" y="526"/>
      <point x="587" y="591"/>
      <point x="502" y="628"/>
      <point x="452" y="628" type="qcurve"/>
      <point x="393" y="628"/>
      <point x="286" y="581"/>
      <point x="205" y="501"/>
      <point x="156" y="394"/>
    </contour>
  </outline>
</glyph>
<glyph name="T" format="1">
  <advance width="611"/>
  <unicode hex="0054"/>
  <outline>
    <contour>
      <point x="502" y="546" type="line"/>
      <point x="511" y="621" type="line"/>
      <point x="400" y="621" type="line"/>
      <point x="324" y="0" type="line"/>
      <point x="215" y="0" type="line"/>
      <point x="291" y="621" type="line"/>
      <point x="179" y="621" type="line"/>
      <point x="170" y="546" type="line"/>
      <point x="67" y="546" type="line"/>
      <point x="81" y="657" type="line"/>
      <point x="89" y="725" type="line"/>
      <point x="626" y="725" type="line"/>
      <point x="622" y="695" type="line"/>
      <point x="623" y="695" type="line"/>
      <point x="614" y="621" type="line"/>
      <point x="605" y="546" type="line"/>
    </contour>
  </outline>
</glyph>
<glyph name="U" format="1">
  <advance width="771"/>
  <unicode hex="0055"/>
  <outline>
    <contour>
      <point x="351" y="725" type="line"/>
      <point x="339" y="630" type="line"/>
      <point x="262" y="630" type="line"/>
      <point x="216" y="259" type="line"/>
      <point x="212" y="224"/>
      <point x="230" y="165"/>
      <point x="269" y="120"/>
      <point x="327" y="95"/>
      <point x="362" y="95" type="qcurve"/>
      <point x="397" y="95"/>
      <point x="461" y="120"/>
      <point x="512" y="165"/>
      <point x="545" y="224"/>
      <point x="550" y="259" type="qcurve"/>
      <point x="607" y="725" type="line"/>
      <point x="795" y="725" type="line"/>
      <point x="783" y="630" type="line"/>
      <point x="705" y="630" type="line"/>
      <point x="659" y="256" type="line"/>
      <point x="652" y="196"/>
      <point x="597" y="99"/>
      <point x="513" y="30"/>
      <point x="408" y="-8"/>
      <point x="350" y="-8" type="qcurve"/>
      <point x="292" y="-8"/>
      <point x="196" y="30"/>
      <point x="130" y="99"/>
      <point x="99" y="196"/>
      <point x="107" y="256" type="qcurve"/>
      <point x="152" y="630" type="line"/>
      <point x="70" y="630" type="line"/>
      <point x="82" y="725" type="line"/>
    </contour>
  </outline>
</glyph>
<glyph name="V" format="1">
  <advance width="755"/>
  <unicode hex="0056"/>
  <outline>
    <contour>
      <point x="805" y="725" type="line"/>
      <point x="793" y="630" type="line"/>
      <point x="702" y="630" type="line"/>
      <point x="338" y="-33" type="line"/>
      <point x="137" y="630" type="line"/>
      <point x="50" y="630" type="line"/>
      <point x="62" y="725" type="line"/>
      <point x="331" y="725" type="line"/>
      <point x="319" y="630" type="line"/>
      <point x="244" y="630" type="line"/>
      <point x="360" y="231" type="line"/>
      <point x="362" y="224"/>
      <point x="363" y="218" type="qcurve"/>
      <point x="364" y="213"/>
      <point x="365" y="200"/>
      <point x="366" y="195" type="qcurve"/>
      <point x="368" y="200"/>
      <point x="373" y="213"/>
      <point x="375" y="218" type="qcurve"/>
      <point x="378" y="224"/>
      <point x="381" y="231" type="qcurve"/>
      <point x="594" y="630" type="line"/>
      <point x="521" y="630" type="line"/>
      <point x="532" y="725" type="line"/>
    </contour>
  </outline>
</glyph>
<glyph name="W" format="1">
  <advance width="1038"/>
  <unicode hex="0057"/>
  <outline>
    <contour>
      <point x="332" y="725" type="line"/>
      <point x="320" y="630" type="line"/>
      <point x="253" y="630" type="line"/>
      <point x="267" y="574"/>
      <point x="294" y="466"/>
      <point x="317" y="369"/>
      <point x="335" y="286"/>
      <point x="340" y="255" type="qcurve"/>
      <point x="340" y="247"/>
      <point x="342" y="226"/>
      <point x="343" y="220" type="qcurve"/>
      <point x="344" y="225"/>
      <point x="356" y="248"/>
      <point x="358" y="253" type="qcurve"/>
      <point x="360" y="257"/>
      <point x="375" y="285"/>
      <point x="396" y="324"/>
      <point x="422" y="370"/>
      <point x="435" y="394" type="qcurve"/>
      <point x="466" y="449"/>
      <point x="503" y="516" type="qcurve"/>
      <point x="493" y="563"/>
      <point x="484" y="604" type="qcurve"/>
      <point x="480" y="621"/>
      <point x="472" y="657"/>
      <point x="465" y="689"/>
      <point x="460" y="714"/>
      <point x="459" y="722" type="qcurve"/>
      <point x="565" y="722" type="line"/>
      <point x="594" y="609"/>
      <point x="619" y="513" type="qcurve"/>
      <point x="629" y="472"/>
      <point x="650" y="390"/>
      <point x="668" y="320"/>
      <point x="681" y="267"/>
      <point x="684" y="255" type="qcurve"/>
      <point x="686" y="246"/>
      <point x="687" y="229"/>
      <point x="688" y="220" type="qcurve"/>
      <point x="692" y="229"/>
      <point x="697" y="247"/>
      <point x="699" y="255" type="qcurve"/>
      <point x="713" y="294"/>
      <point x="764" y="403"/>
      <point x="828" y="529"/>
      <point x="897" y="662"/>
      <point x="929" y="725" type="qcurve"/>
      <point x="1085" y="725" type="line"/>
      <point x="1073" y="630" type="line"/>
      <point x="992" y="630" type="line"/>
      <point x="970" y="586"/>
      <point x="913" y="474"/>
      <point x="850" y="350"/>
      <point x="785" y="222"/>
      <point x="726" y="104"/>
      <point x="675" y="3"/>
      <point x="658" y="-32" type="qcurve"/>
      <point x="546" y="373" type="line"/>
      <point x="540" y="397" type="line"/>
      <point x="539" y="392"/>
      <point x="535" y="382" type="qcurve"/>
      <point x="533" y="378"/>
      <point x="532" y="374" type="qcurve"/>
      <point x="473" y="270"/>
      <point x="425" y="185" type="qcurve"/>
      <point x="404" y="149"/>
      <point x="364" y="77"/>
      <point x="331" y="17"/>
      <point x="308" y="-26"/>
      <point x="305" y="-33" type="qcurve"/>
      <point x="300" y="-17"/>
      <point x="279" y="59"/>
      <point x="252" y="164"/>
      <point x="219" y="292"/>
      <point x="183" y="428"/>
      <point x="147" y="567"/>
      <point x="131" y="630" type="qcurve"/>
      <point x="51" y="630" type="line"/>
      <point x="63" y="725" type="line"/>
    </contour>
  </outline>
</glyph>
<glyph name="X" format="1">
  <advance width="711"/>
  <unicode hex="0058"/>
  <outline>
    <contour>
      <point x="350" y="725" type="line"/>
      <point x="338" y="630" type="line"/>
      <point x="291" y="630" type="line"/>
      <point x="302" y="607"/>
      <point x="325" y="559"/>
      <point x="346" y="518"/>
      <point x="361" y="487"/>
      <point x="365" y="480" type="qcurve"/>
      <point x="366" y="478"/>
      <point x="375" y="455"/>
      <point x="377" y="446" type="qcurve"/>
      <point x="382" y="455"/>
      <point x="395" y="478"/>
      <point x="397" y="480" type="qcurve"/>
      <point x="403" y="488"/>
      <point x="430" y="526"/>
      <point x="466" y="575"/>
      <point x="504" y="630"/>
      <point x="540" y="679"/>
      <point x="567" y="717"/>
      <point x="573" y="725" type="qcurve"/>
      <point x="729" y="725" type="line"/>
      <point x="718" y="630" type="line"/>
      <point x="635" y="630" type="line"/>
      <point x="607" y="593"/>
      <point x="542" y="508"/>
      <point x="485" y="431"/>
      <point x="442" y="374"/>
      <point x="436" y="365" type="qcurve"/>
      <point x="578" y="95" type="line"/>
      <point x="674" y="95" type="line"/>
      <point x="662" y="0" type="line"/>
      <point x="393" y="0" type="line"/>
      <point x="405" y="95" type="line"/>
      <point x="444" y="95" type="line"/>
      <point x="373" y="238" type="line"/>
      <point x="371" y="241"/>
      <point x="365" y="253"/>
      <point x="359" y="268"/>
      <point x="352" y="282"/>
      <point x="351" y="286" type="qcurve"/>
      <point x="346" y="277"/>
      <point x="334" y="257"/>
      <point x="333" y="256" type="qcurve"/>
      <point x="327" y="247"/>
      <point x="298" y="208"/>
      <point x="261" y="156"/>
      <point x="220" y="100"/>
      <point x="183" y="48"/>
      <point x="153" y="8"/>
      <point x="147" y="0" type="qcurve"/>
      <point x="-10" y="0" type="line"/>
      <point x="2" y="95" type="line"/>
      <point x="83" y="95" type="line"/>
      <point x="294" y="371" type="line"/>
      <point x="159" y="630" type="line"/>
      <point x="69" y="630" type="line"/>
      <point x="81" y="725" type="line"/>
    </contour>
  </outline>
</glyph>
<glyph name="bracketleft" format="1">
  <advance width="316"/>
  <unicode hex="005B"/>
  <outline>
    <contour>
      <point x="34" y="-151" type="line"/>
      <point x="145" y="756" type="line"/>
      <point x="343" y="756" type="line"/>
      <point x="332" y="667" type="line"/>
      <point x="226" y="667" type="line"/>
      <point x="136" y="-62" type="line"/>
      <point x="243" y="-62" type="line"/>
      <point x="232" y="-151" type="line"/>
    </contour>
  </outline>
</glyph>
<glyph name="bracketright" format="1">
  <advance width="316"/>
  <unicode hex="005D"/>
  <outline>
    <contour>
      <point x="286" y="756" type="line"/>
      <point x="175" y="-151" type="line"/>
      <point x="-23" y="-151" type="line"/>
      <point x="-12" y="-62" type="line"/>
      <point x="94" y="-62" type="line"/>
      <point x="183" y="667" type="line"/>
      <point x="77" y="667" type="line"/>
      <point x="88" y="756" type="line"/>
    </contour>
  </outline>
</glyph>
<glyph name="asciicircum" format="1">
  <advance width="366"/>
  <unicode hex="005E"/>
  <outline>
    <contour>
      <point x="231" y="669" type="line"/>
      <point x="256" y="623"/>
      <point x="305" y="532"/>
      <point x="331" y="486" type="qcurve"/>
      <point x="266" y="486" type="line"/>
      <point x="263" y="492"/>
      <point x="250" y="513"/>
      <point x="235" y="536"/>
      <point x="221" y="558"/>
      <point x="218" y="564" type="qcurve"/>
      <point x="213" y="558"/>
      <point x="195" y="536"/>
      <point x="175" y="513"/>
      <point x="156" y="492"/>
      <point x="151" y="486" type="qcurve"/>
      <point x="87" y="486" type="line"/>
    </contour>
  </outline>
</glyph>
<glyph name="underscore" format="1">
  <advance width="521"/>
  <unicode hex="005F"/>
  <outline>
    <contour>
      <point x="429" y="0" type="line"/>
      <point x="23" y="0" type="line"/>
      <point x="34" y="89" type="line"/>
      <point x="440" y="89" type="line"/>
    </contour>
  </outline>
</glyph>
<glyph name="grave" format="1">
  <advance width="203"/>
  <unicode hex="0060"/>
  <outline>
    <contour>
      <point x="113" y="620" type="line"/>
      <point x="188" y="486" type="line"/>
      <point x="124" y="486" type="line"/>
      <point x="98" y="519"/>
      <point x="46" y="587"/>
      <point x="21" y="620" type="qcurve"/>
    </contour>
  </outline>
</glyph>
<glyph name="j" format="1">
  <advance width="239"/>
  <unicode hex="006A"/>
  <outline>
    <contour>
      <point x="176" y="344" type="line"/>
      <point x="175" y="344" type="line"/>
      <point x="133" y="-1" type="line"/>
      <point x="125" y="-69"/>
      <point x="67" y="-169"/>
      <point x="22" y="-202" type="qcurve"/>
      <point x="8" y="-185"/>
      <point x="-17" y="-155"/>
      <point x="-30" y="-138" type="qcurve"/>
      <point x="2" y="-115"/>
      <point x="43" y="-46"/>
      <point x="48" y="2" type="qcurve"/>
      <point x="90" y="344" type="line"/>
      <point x="31" y="344" type="line"/>
      <point x="40" y="418" type="line"/>
      <point x="185" y="418" type="line"/>
    </contour>
    <contour>
      <point x="110" y="573" type="qcurve"/>
      <point x="110" y="599"/>
      <point x="149" y="634"/>
      <point x="172" y="634" type="qcurve"/>
      <point x="191" y="634"/>
      <point x="219" y="606"/>
      <point x="219" y="584" type="qcurve"/>
      <point x="219" y="557"/>
      <point x="180" y="523"/>
      <point x="158" y="523" type="qcurve"/>
      <point x="138" y="523"/>
      <point x="110" y="550"/>
    </contour>
  </outline>
</glyph>
<glyph name="l" format="1">
  <advance width="261"/>
  <unicode hex="006C"/>
  <outline>
    <contour>
      <point x="202" y="0" type="line"/>
      <point x="-8" y="0" type="line"/>
      <point x="1" y="74" type="line"/>
      <point x="60" y="74" type="line"/>
      <point x="62" y="91" type="line"/>
      <point x="137" y="703" type="line"/>
      <point x="78" y="703" type="line"/>
      <point x="87" y="777" type="line"/>
      <point x="232" y="777" type="line"/>
      <point x="147" y="89" type="line"/>
      <point x="145" y="74" type="line"/>
      <point x="211" y="74" type="line"/>
    </contour>
  </outline>
</glyph>
<glyph name="m" format="1">
  <advance width="869"/>
  <unicode hex="006D"/>
  <outline>
    <contour>
      <point x="459" y="97" type="line"/>
      <point x="456" y="74" type="line"/>
      <point x="515" y="74" type="line"/>
      <point x="506" y="0" type="line"/>
      <point x="296" y="0" type="line"/>
      <point x="305" y="74" type="line"/>
      <point x="371" y="74" type="line"/>
      <point x="373" y="94" type="line"/>
      <point x="395" y="265" type="line"/>
      <point x="397" y="297"/>
      <point x="362" y="342"/>
      <point x="319" y="344" type="qcurve"/>
      <point x="259" y="344"/>
      <point x="180" y="267"/>
      <point x="173" y="207" type="qcurve"/>
      <point x="158" y="89" type="line"/>
      <point x="156" y="74" type="line"/>
      <point x="222" y="74" type="line"/>
      <point x="213" y="0" type="line"/>
      <point x="3" y="0" type="line"/>
      <point x="12" y="74" type="line"/>
      <point x="71" y="74" type="line"/>
      <point x="73" y="91" type="line"/>
      <point x="104" y="344" type="line"/>
      <point x="45" y="344" type="line"/>
      <point x="54" y="418" type="line"/>
      <point x="188" y="418" type="line"/>
      <point x="186" y="387"/>
      <point x="184" y="336"/>
      <point x="182" y="311" type="qcurve"/>
      <point x="212" y="365"/>
      <point x="295" y="428"/>
      <point x="358" y="429" type="qcurve"/>
      <point x="419" y="429"/>
      <point x="485" y="367"/>
      <point x="486" y="317" type="qcurve"/>
      <point x="516" y="367"/>
      <point x="597" y="429"/>
      <point x="659" y="429" type="qcurve"/>
      <point x="724" y="429"/>
      <point x="791" y="359"/>
      <point x="786" y="304" type="qcurve"/>
      <point x="761" y="97" type="line"/>
      <point x="758" y="74" type="line"/>
      <point x="817" y="74" type="line"/>
      <point x="808" y="0" type="line"/>
      <point x="597" y="0" type="line"/>
      <point x="606" y="74" type="line"/>
      <point x="671" y="74" type="line"/>
      <point x="695" y="265" type="line"/>
      <point x="697" y="297"/>
      <point x="663" y="342"/>
      <point x="619" y="344" type="qcurve"/>
      <point x="590" y="344"/>
      <point x="540" y="324"/>
      <point x="502" y="287"/>
      <point x="477" y="237"/>
      <point x="473" y="207" type="qcurve"/>
    </contour>
  </outline>
</glyph>
<glyph name="p" format="1">
  <advance width="567"/>
  <unicode hex="0070"/>
  <outline>
    <contour>
      <point x="93" y="344" type="line"/>
      <point x="34" y="344" type="line"/>
      <point x="43" y="418" type="line"/>
      <point x="184" y="418" type="line"/>
      <point x="183" y="406"/>
      <point x="183" y="371"/>
      <point x="181" y="357" type="qcurve"/>
      <point x="190" y="369"/>
      <point x="220" y="394"/>
      <point x="259" y="415"/>
      <point x="307" y="429"/>
      <point x="335" y="429" type="qcurve"/>
      <point x="378" y="429"/>
      <point x="449" y="402"/>
      <point x="499" y="352"/>
      <point x="526" y="281"/>
      <point x="526" y="237" type="qcurve"/>
      <point x="526" y="184"/>
      <point x="488" y="94"/>
      <point x="421" y="28"/>
      <point x="330" y="-10"/>
      <point x="277" y="-10" type="qcurve"/>
      <point x="226" y="-10"/>
      <point x="154" y="31"/>
      <point x="142" y="55" type="qcurve"/>
      <point x="140" y="34" type="line"/>
      <point x="122" y="-113" type="line"/>
      <point x="123" y="-113" type="line"/>
      <point x="120" y="-127" type="line"/>
      <point x="187" y="-127" type="line"/>
      <point x="178" y="-201" type="line"/>
      <point x="-33" y="-201" type="line"/>
      <point x="-24" y="-127" type="line"/>
      <point x="35" y="-127" type="line"/>
      <point x="37" y="-110" type="line"/>
    </contour>
    <contour>
      <point x="432" y="227" type="qcurve"/>
      <point x="432" y="278"/>
      <point x="371" y="345"/>
      <point x="317" y="345" type="qcurve"/>
      <point x="285" y="345"/>
      <point x="228" y="322"/>
      <point x="186" y="281"/>
      <point x="162" y="226"/>
      <point x="162" y="195" type="qcurve"/>
      <point x="162" y="169"/>
      <point x="179" y="125"/>
      <point x="211" y="93"/>
      <point x="256" y="74"/>
      <point x="283" y="74" type="qcurve"/>
      <point x="316" y="74"/>
      <point x="371" y="98"/>
      <point x="410" y="140"/>
      <point x="432" y="195"/>
    </contour>
  </outline>
</glyph>
<glyph name="q" format="1">
  <advance width="566"/>
  <unicode hex="0071"/>
  <outline>
    <contour>
      <point x="415" y="418" type="qcurve"/>
      <point x="557" y="418" type="line"/>
      <point x="547" y="344" type="line"/>
      <point x="489" y="344" type="line"/>
      <point x="430" y="-127" type="line"/>
      <point x="489" y="-127" type="line"/>
      <point x="480" y="-201" type="line"/>
      <point x="336" y="-201" type="line"/>
      <point x="347" y="-112" type="line"/>
      <point x="365" y="31" type="line"/>
      <point x="366" y="37"/>
      <point x="369" y="52"/>
      <point x="369" y="57" type="qcurve"/>
      <point x="358" y="45"/>
      <point x="328" y="22"/>
      <point x="289" y="2"/>
      <point x="241" y="-10"/>
      <point x="211" y="-10" type="qcurve"/>
      <point x="166" y="-10"/>
      <point x="96" y="20"/>
      <point x="48" y="73"/>
      <point x="23" y="143"/>
      <point x="23" y="183" type="qcurve"/>
      <point x="23" y="237"/>
      <point x="62" y="327"/>
      <point x="129" y="392"/>
      <point x="217" y="429"/>
      <point x="267" y="429" type="qcurve"/>
      <point x="299" y="429"/>
      <point x="346" y="414"/>
      <point x="379" y="393"/>
      <point x="399" y="367"/>
      <point x="404" y="357" type="qcurve"/>
      <point x="406" y="371"/>
      <point x="413" y="406"/>
    </contour>
    <contour>
      <point x="110" y="195" type="qcurve"/>
      <point x="110" y="169"/>
      <point x="128" y="125"/>
      <point x="160" y="93"/>
      <point x="205" y="74"/>
      <point x="232" y="74" type="qcurve"/>
      <point x="265" y="74"/>
      <point x="321" y="98"/>
      <point x="363" y="139"/>
      <point x="387" y="194"/>
      <point x="387" y="225" type="qcurve"/>
      <point x="387" y="250"/>
      <point x="369" y="294"/>
      <point x="337" y="327"/>
      <point x="292" y="345"/>
      <point x="264" y="345" type="qcurve"/>
      <point x="232" y="345"/>
      <point x="176" y="322"/>
      <point x="134" y="281"/>
      <point x="110" y="226"/>
    </contour>
  </outline>
</glyph>
<glyph name="r" format="1">
  <advance width="355"/>
  <unicode hex="0072"/>
  <outline>
    <contour>
      <point x="158" y="89" type="line"/>
      <point x="156" y="74" type="line"/>
      <point x="250" y="74" type="line"/>
      <point x="241" y="0" type="line"/>
      <point x="3" y="0" type="line"/>
      <point x="12" y="74" type="line"/>
      <point x="71" y="74" type="line"/>
      <point x="73" y="91" type="line"/>
      <point x="104" y="344" type="line"/>
      <point x="45" y="344" type="line"/>
      <point x="54" y="418" type="line"/>
      <point x="188" y="418" type="line"/>
      <point x="186" y="387"/>
      <point x="184" y="336"/>
      <point x="182" y="311" type="qcurve"/>
      <point x="198" y="338"/>
      <point x="246" y="382"/>
      <point x="297" y="412"/>
      <point x="345" y="429"/>
      <point x="363" y="429" type="qcurve"/>
      <point x="331" y="319" type="line"/>
      <point x="303" y="319"/>
      <point x="249" y="304"/>
      <point x="205" y="274"/>
      <point x="175" y="229"/>
      <point x="171" y="200" type="qcurve"/>
      <point x="157" y="89" type="line"/>
    </contour>
  </outline>
</glyph>
<glyph name="s" format="1">
  <advance width="366"/>
  <unicode hex="0073"/>
  <outline>
    <contour>
      <point x="94" y="130" type="line"/>
      <point x="89" y="87" type="line"/>
      <point x="100" y="82"/>
      <point x="130" y="75"/>
      <point x="148" y="75" type="qcurve"/>
      <point x="179" y="75"/>
      <point x="222" y="101"/>
      <point x="222" y="125" type="qcurve"/>
      <point x="222" y="140"/>
      <point x="197" y="159"/>
      <point x="160" y="175"/>
      <point x="116" y="193"/>
      <point x="79" y="220"/>
      <point x="54" y="260"/>
      <point x="54" y="291" type="qcurve"/>
      <point x="54" y="328"/>
      <point x="82" y="381"/>
      <point x="127" y="413"/>
      <point x="181" y="428"/>
      <point x="208" y="428" type="qcurve"/>
      <point x="221" y="428"/>
      <point x="254" y="424"/>
      <point x="286" y="415"/>
      <point x="315" y="399"/>
      <point x="324" y="388" type="qcurve"/>
      <point x="313" y="295" type="line"/>
      <point x="240" y="295" type="line"/>
      <point x="245" y="339" type="line"/>
      <point x="236" y="341"/>
      <point x="214" y="345"/>
      <point x="201" y="345" type="qcurve"/>
      <point x="179" y="345"/>
      <point x="142" y="327"/>
      <point x="142" y="302" type="qcurve"/>
      <point x="142" y="285"/>
      <point x="167" y="263"/>
      <point x="203" y="245"/>
      <point x="247" y="226"/>
      <point x="283" y="200"/>
      <point x="308" y="161"/>
      <point x="308" y="133" type="qcurve"/>
      <point x="308" y="103"/>
      <point x="283" y="51"/>
      <point x="238" y="13"/>
      <point x="175" y="-9"/>
      <point x="137" y="-9" type="qcurve"/>
      <point x="121" y="-9"/>
      <point x="84" y="-4"/>
      <point x="49" y="7"/>
      <point x="19" y="24"/>
      <point x="10" y="37" type="qcurve"/>
      <point x="21" y="130" type="line"/>
    </contour>
  </outline>
</glyph>
<glyph name="w" format="1">
  <advance width="715"/>
  <unicode hex="0077"/>
  <outline>
    <contour>
      <point x="553" y="419" type="line"/>
      <point x="612" y="419" type="line"/>
      <point x="613" y="419"/>
      <point x="613" y="420" type="qcurve"/>
      <point x="698" y="419" type="line"/>
      <point x="724" y="419" type="line"/>
      <point x="715" y="345" type="line"/>
      <point x="655" y="345" type="line"/>
      <point x="445" y="-24" type="line"/>
      <point x="418" y="51"/>
      <point x="381" y="193"/>
      <point x="353" y="268" type="qcurve"/>
      <point x="191" y="-24" type="line"/>
      <point x="162" y="69"/>
      <point x="106" y="252"/>
      <point x="78" y="346" type="qcurve"/>
      <point x="16" y="346" type="line"/>
      <point x="25" y="419" type="line"/>
      <point x="207" y="419" type="line"/>
      <point x="198" y="346" type="line"/>
      <point x="164" y="346" type="line"/>
      <point x="176" y="306"/>
      <point x="192" y="248"/>
      <point x="202" y="202"/>
      <point x="209" y="160"/>
      <point x="211" y="136" type="qcurve"/>
      <point x="217" y="148"/>
      <point x="231" y="178"/>
      <point x="257" y="225"/>
      <point x="296" y="296"/>
      <point x="327" y="351" type="qcurve"/>
      <point x="305" y="419" type="line"/>
      <point x="378" y="419" type="line"/>
      <point x="419" y="298"/>
      <point x="457" y="159"/>
      <point x="465" y="152" type="qcurve"/>
      <point x="471" y="165"/>
      <point x="489" y="197"/>
      <point x="514" y="243"/>
      <point x="548" y="304"/>
      <point x="571" y="345" type="qcurve"/>
      <point x="544" y="345" type="line"/>
    </contour>
  </outline>
</glyph>
<glyph name="y" format="1">
  <advance width="543"/>
  <unicode hex="0079"/>
  <outline>
    <contour>
      <point x="33" y="-127" type="line"/>
      <point x="107" y="-127" type="line"/>
      <point x="130" y="-88"/>
      <point x="178" y="-6"/>
      <point x="198" y="26" type="qcurve"/>
      <point x="188" y="50"/>
      <point x="160" y="127"/>
      <point x="128" y="216"/>
      <point x="95" y="307"/>
      <point x="81" y="346" type="qcurve"/>
      <point x="15" y="346" type="line"/>
      <point x="24" y="419" type="line"/>
      <point x="241" y="419" type="line"/>
      <point x="232" y="346" type="line"/>
      <point x="175" y="346" type="line"/>
      <point x="192" y="300"/>
      <point x="220" y="219"/>
      <point x="240" y="155"/>
      <point x="251" y="113"/>
      <point x="251" y="107" type="qcurve"/>
      <point x="252" y="113"/>
      <point x="273" y="155"/>
      <point x="309" y="218"/>
      <point x="356" y="300"/>
      <point x="384" y="345" type="qcurve"/>
      <point x="329" y="345" type="line"/>
      <point x="338" y="419" type="line"/>
      <point x="552" y="419" type="line"/>
      <point x="543" y="345" type="line"/>
      <point x="478" y="345" type="line"/>
      <point x="192" y="-127" type="line"/>
      <point x="264" y="-127" type="line"/>
      <point x="255" y="-201" type="line"/>
      <point x="24" y="-201" type="line"/>
    </contour>
  </outline>
</glyph>
<glyph name="braceleft" format="1">
  <advance width="329"/>
  <unicode hex="007B"/>
  <outline>
    <contour>
      <point x="24" y="256" type="qcurve"/>
      <point x="35" y="345" type="line"/>
      <point x="60" y="346"/>
      <point x="94" y="373"/>
      <point x="117" y="414"/>
      <point x="129" y="461"/>
      <point x="132" y="482" type="qcurve"/>
      <point x="151" y="637" type="line"/>
      <point x="157" y="684"/>
      <point x="182" y="733"/>
      <point x="218" y="754"/>
      <point x="263" y="756"/>
      <point x="289" y="756" type="qcurve"/>
      <point x="355" y="756" type="line"/>
      <point x="344" y="667" type="line"/>
      <point x="301" y="667" type="line"/>
      <point x="285" y="667"/>
      <point x="264" y="660"/>
      <point x="249" y="637"/>
      <point x="239" y="597"/>
      <point x="235" y="564" type="qcurve"/>
      <point x="220" y="435" type="line"/>
      <point x="217" y="406"/>
      <point x="198" y="362"/>
      <point x="174" y="330"/>
      <point x="148" y="308"/>
      <point x="138" y="302" type="qcurve"/>
      <point x="147" y="296"/>
      <point x="167" y="274"/>
      <point x="182" y="242"/>
      <point x="190" y="198"/>
      <point x="187" y="170" type="qcurve"/>
      <point x="171" y="42" type="line"/>
      <point x="167" y="9"/>
      <point x="167" y="-32"/>
      <point x="176" y="-54"/>
      <point x="196" y="-62"/>
      <point x="212" y="-62" type="qcurve"/>
      <point x="255" y="-62" type="line"/>
      <point x="244" y="-152" type="line"/>
      <point x="177" y="-152" type="line"/>
      <point x="153" y="-152"/>
      <point x="109" y="-150"/>
      <point x="77" y="-129"/>
      <point x="63" y="-81"/>
      <point x="68" y="-35" type="qcurve"/>
      <point x="88" y="119" type="line"/>
      <point x="91" y="140"/>
      <point x="90" y="187"/>
      <point x="76" y="227"/>
      <point x="48" y="255"/>
    </contour>
  </outline>
</glyph>
<glyph name="bar" format="1">
  <advance width="266"/>
  <unicode hex="007C"/>
  <outline>
    <contour>
      <point x="23" y="-236" type="line"/>
      <point x="139" y="710" type="line"/>
      <point x="231" y="710" type="line"/>
      <point x="115" y="-236" type="line"/>
    </contour>
  </outline>
</glyph>
<glyph name="braceright" format="1">
  <advance width="329"/>
  <unicode hex="007D"/>
  <outline>
    <contour>
      <point x="308" y="345" type="qcurve"/>
      <point x="298" y="256" type="line"/>
      <point x="274" y="255"/>
      <point x="239" y="229"/>
      <point x="216" y="190"/>
      <point x="203" y="144"/>
      <point x="200" y="123" type="qcurve"/>
      <point x="182" y="-31" type="line"/>
      <point x="176" y="-78"/>
      <point x="151" y="-128"/>
      <point x="114" y="-150"/>
      <point x="69" y="-152"/>
      <point x="44" y="-152" type="qcurve"/>
      <point x="-22" y="-152" type="line"/>
      <point x="-11" y="-62" type="line"/>
      <point x="32" y="-62" type="line"/>
      <point x="47" y="-62"/>
      <point x="68" y="-54"/>
      <point x="83" y="-32"/>
      <point x="93" y="9"/>
      <point x="97" y="42" type="qcurve"/>
      <point x="112" y="166" type="line"/>
      <point x="116" y="196"/>
      <point x="135" y="242"/>
      <point x="159" y="275"/>
      <point x="185" y="296"/>
      <point x="195" y="302" type="qcurve"/>
      <point x="186" y="308"/>
      <point x="166" y="330"/>
      <point x="150" y="362"/>
      <point x="142" y="406"/>
      <point x="145" y="435" type="qcurve"/>
      <point x="161" y="564" type="line"/>
      <point x="165" y="597"/>
      <point x="165" y="637"/>
      <point x="156" y="660"/>
      <point x="137" y="667"/>
      <point x="121" y="667" type="qcurve"/>
      <point x="78" y="667" type="line"/>
      <point x="89" y="756" type="line"/>
      <point x="155" y="756" type="line"/>
      <point x="179" y="756"/>
      <point x="224" y="755"/>
      <point x="255" y="734"/>
      <point x="269" y="685"/>
      <point x="263" y="637" type="qcurve"/>
      <point x="244" y="478" type="line"/>
      <point x="241" y="457"/>
      <point x="243" y="410"/>
      <point x="257" y="371"/>
      <point x="285" y="345"/>
    </contour>
  </outline>
</glyph>
<glyph name="currency" format="1">
  <advance width="471"/>
  <unicode hex="00A4"/>
  <outline>
    <contour>
      <point x="91" y="345" type="qcurve"/>
      <point x="91" y="373"/>
      <point x="111" y="421"/>
      <point x="127" y="442" type="qcurve"/>
      <point x="103" y="470" type="line"/>
      <point x="153" y="514" type="line"/>
      <point x="177" y="486" type="line"/>
      <point x="197" y="497"/>
      <point x="240" y="511"/>
      <point x="263" y="511" type="qcurve"/>
      <point x="309" y="511"/>
      <point x="342" y="486" type="qcurve"/>
      <point x="374" y="514" type="line"/>
      <point x="413" y="470" type="line"/>
      <point x="383" y="443" type="line"/>
      <point x="399" y="413"/>
      <point x="399" y="375" type="qcurve"/>
      <point x="399" y="348"/>
      <point x="379" y="300"/>
      <point x="361" y="277" type="qcurve"/>
      <point x="386" y="248" type="line"/>
      <point x="337" y="204" type="line"/>
      <point x="310" y="234" type="line"/>
      <point x="272" y="210"/>
      <point x="226" y="210" type="qcurve"/>
      <point x="180" y="210"/>
      <point x="148" y="233" type="qcurve"/>
      <point x="114" y="203" type="line"/>
      <point x="75" y="247" type="line"/>
      <point x="108" y="276" type="line"/>
      <point x="100" y="291"/>
      <point x="91" y="326"/>
    </contour>
    <contour>
      <point x="155" y="351" type="qcurve"/>
      <point x="155" y="317"/>
      <point x="200" y="271"/>
      <point x="234" y="271" type="qcurve"/>
      <point x="254" y="271"/>
      <point x="291" y="287"/>
      <point x="319" y="314"/>
      <point x="336" y="349"/>
      <point x="336" y="369" type="qcurve"/>
      <point x="336" y="404"/>
      <point x="291" y="451"/>
      <point x="256" y="451" type="qcurve"/>
      <point x="236" y="451"/>
      <point x="200" y="435"/>
      <point x="172" y="408"/>
      <point x="155" y="372"/>
    </contour>
  </outline>
</glyph>
<glyph name="yen" format="1">
  <advance width="797"/>
  <unicode hex="00A5"/>
  <outline>
    <contour>
      <point x="450" y="239" type="line"/>
      <point x="446" y="210" type="line"/>
      <point x="562" y="210" type="line"/>
      <point x="555" y="149" type="line"/>
      <point x="439" y="149" type="line"/>
      <point x="432" y="95" type="line"/>
      <point x="513" y="95" type="line"/>
      <point x="501" y="0" type="line"/>
      <point x="231" y="0" type="line"/>
      <point x="243" y="95" type="line"/>
      <point x="323" y="95" type="line"/>
      <point x="329" y="149" type="line"/>
      <point x="222" y="149" type="line"/>
      <point x="229" y="210" type="line"/>
      <point x="337" y="210" type="line"/>
      <point x="341" y="239" type="line"/>
      <point x="337" y="246"/>
      <point x="320" y="285"/>
      <point x="309" y="312" type="qcurve"/>
      <point x="242" y="312" type="line"/>
      <point x="249" y="373" type="line"/>
      <point x="283" y="373" type="line"/>
      <point x="173" y="630" type="line"/>
      <point x="74" y="630" type="line"/>
      <point x="86" y="725" type="line"/>
      <point x="355" y="725" type="line"/>
      <point x="343" y="630" type="line"/>
      <point x="295" y="630" type="line"/>
      <point x="308" y="599"/>
      <point x="336" y="529"/>
      <point x="364" y="460"/>
      <point x="390" y="395"/>
      <point x="400" y="370" type="qcurve"/>
      <point x="408" y="337" type="line"/>
      <point x="413" y="345"/>
      <point x="420" y="362"/>
      <point x="424" y="370" type="qcurve"/>
      <point x="440" y="395"/>
      <point x="482" y="460"/>
      <point x="527" y="529"/>
      <point x="571" y="599"/>
      <point x="591" y="630" type="qcurve"/>
      <point x="544" y="630" type="line"/>
      <point x="556" y="725" type="line"/>
      <point x="817" y="725" type="line"/>
      <point x="805" y="630" type="line"/>
      <point x="714" y="630" type="line"/>
      <point x="540" y="373" type="line"/>
      <point x="582" y="373" type="line"/>
      <point x="575" y="312" type="line"/>
      <point x="499" y="312" type="line"/>
    </contour>
  </outline>
</glyph>
<glyph name="brokenbar" format="1">
  <advance width="269"/>
  <unicode hex="00A6"/>
  <outline>
    <contour>
      <point x="117" y="-237" type="line"/>
      <point x="24" y="-237" type="line"/>
      <point x="68" y="118" type="line"/>
      <point x="160" y="118" type="line"/>
    </contour>
    <contour>
      <point x="189" y="355" type="line"/>
      <point x="97" y="355" type="line"/>
      <point x="141" y="710" type="line"/>
      <point x="233" y="710" type="line"/>
    </contour>
  </outline>
</glyph>
<glyph name="dieresis" format="1">
  <advance width="376"/>
  <unicode hex="00A8"/>
  <outline>
    <contour>
      <point x="300" y="524" type="qcurve"/>
      <point x="300" y="537"/>
      <point x="312" y="560"/>
      <point x="330" y="577"/>
      <point x="353" y="586"/>
      <point x="365" y="586" type="qcurve"/>
      <point x="383" y="586"/>
      <point x="413" y="557"/>
      <point x="413" y="535" type="qcurve"/>
      <point x="413" y="507"/>
      <point x="372" y="473"/>
      <point x="350" y="473" type="qcurve"/>
      <point x="330" y="473"/>
      <point x="300" y="501"/>
    </contour>
    <contour>
      <point x="111" y="524" type="qcurve"/>
      <point x="111" y="551"/>
      <point x="152" y="586"/>
      <point x="175" y="586" type="qcurve"/>
      <point x="193" y="586"/>
      <point x="223" y="557"/>
      <point x="223" y="535" type="qcurve"/>
      <point x="223" y="507"/>
      <point x="182" y="473"/>
      <point x="161" y="473" type="qcurve"/>
      <point x="141" y="473"/>
      <point x="111" y="501"/>
    </contour>
  </outline>
</glyph>
<glyph name="logicalnot" format="1">
  <advance width="493"/>
  <unicode hex="00AC"/>
  <outline>
    <contour>
      <point x="322" y="150" type="line"/>
      <point x="326" y="186" type="line"/>
      <point x="53" y="186" type="line"/>
      <point x="62" y="252" type="line"/>
      <point x="427" y="252" type="line"/>
      <point x="414" y="150" type="line"/>
    </contour>
  </outline>
</glyph>
<glyph name="registered" format="1">
  <advance width="633"/>
  <unicode hex="00AE"/>
  <outline>
    <contour>
      <point x="295" y="113" type="qcurve"/>
      <point x="245" y="113"/>
      <point x="160" y="148"/>
      <point x="99" y="210"/>
      <point x="64" y="295"/>
      <point x="64" y="345" type="qcurve"/>
      <point x="64" y="406"/>
      <point x="113" y="511"/>
      <point x="194" y="588"/>
      <point x="301" y="632"/>
      <point x="359" y="632" type="qcurve"/>
      <point x="409" y="632"/>
      <point x="494" y="597"/>
      <point x="555" y="535"/>
      <point x="590" y="450"/>
      <point x="590" y="400" type="qcurve"/>
      <point x="590" y="339"/>
      <point x="542" y="234"/>
      <point x="460" y="157"/>
      <point x="353" y="113"/>
    </contour>
    <contour>
      <point x="299" y="143" type="qcurve"/>
      <point x="351" y="143"/>
      <point x="444" y="182"/>
      <point x="515" y="250"/>
      <point x="557" y="343"/>
      <point x="557" y="397" type="qcurve"/>
      <point x="557" y="442"/>
      <point x="527" y="517"/>
      <point x="473" y="571"/>
      <point x="399" y="602"/>
      <point x="355" y="602" type="qcurve"/>
      <point x="303" y="602"/>
      <point x="210" y="563"/>
      <point x="139" y="495"/>
      <point x="97" y="401"/>
      <point x="97" y="347" type="qcurve"/>
      <point x="97" y="303"/>
      <point x="127" y="228"/>
      <point x="181" y="174"/>
      <point x="255" y="143"/>
    </contour>
    <contour>
      <point x="456" y="256" type="line"/>
      <point x="451" y="214" type="line"/>
      <point x="378" y="214" type="line"/>
      <point x="364" y="241"/>
      <point x="333" y="303"/>
      <point x="319" y="328" type="qcurve"/>
      <point x="311" y="328" type="line"/>
      <point x="266" y="328" type="line"/>
      <point x="257" y="256" type="line"/>
      <point x="291" y="256" type="line"/>
      <point x="286" y="214" type="line"/>
      <point x="167" y="214" type="line"/>
      <point x="172" y="256" type="line"/>
      <point x="209" y="256" type="line"/>
      <point x="237" y="492" type="line"/>
      <point x="201" y="492" type="line"/>
      <point x="206" y="534" type="line"/>
      <point x="330" y="534" type="line"/>
      <point x="376" y="534"/>
      <point x="432" y="488"/>
      <point x="432" y="445" type="qcurve"/>
      <point x="432" y="416"/>
      <point x="403" y="357"/>
      <point x="371" y="341" type="qcurve"/>
      <point x="381" y="321"/>
      <point x="402" y="279"/>
      <point x="414" y="256" type="qcurve"/>
    </contour>
    <contour>
      <point x="271" y="374" type="line"/>
      <point x="315" y="374" type="line"/>
      <point x="334" y="374"/>
      <point x="361" y="388"/>
      <point x="376" y="407"/>
      <point x="383" y="430"/>
      <point x="383" y="439" type="qcurve"/>
      <point x="383" y="456"/>
      <point x="360" y="489"/>
      <point x="330" y="489" type="qcurve"/>
      <point x="285" y="489" type="line"/>
    </contour>
  </outline>
</glyph>
<glyph name="degree" format="1">
  <advance width="299"/>
  <unicode hex="00B0"/>
  <outline>
    <contour>
      <point x="179" y="520" type="qcurve"/>
      <point x="200" y="520"/>
      <point x="233" y="550"/>
      <point x="233" y="572" type="qcurve"/>
      <point x="233" y="590"/>
      <point x="208" y="615"/>
      <point x="190" y="615" type="qcurve"/>
      <point x="168" y="615"/>
      <point x="137" y="584"/>
      <point x="137" y="562" type="qcurve"/>
      <point x="137" y="544"/>
      <point x="161" y="520"/>
    </contour>
    <contour>
      <point x="77" y="557" type="qcurve"/>
      <point x="77" y="581"/>
      <point x="96" y="623"/>
      <point x="129" y="654"/>
      <point x="173" y="672"/>
      <point x="197" y="672" type="qcurve"/>
      <point x="237" y="672"/>
      <point x="289" y="618"/>
      <point x="289" y="579" type="qcurve"/>
      <point x="289" y="555"/>
      <point x="270" y="513"/>
      <point x="237" y="482"/>
      <point x="195" y="464"/>
      <point x="172" y="464" type="qcurve"/>
      <point x="130" y="464"/>
      <point x="77" y="517"/>
    </contour>
  </outline>
</glyph>
<glyph name="paragraph" format="1">
  <advance width="567"/>
  <unicode hex="00B6"/>
  <outline>
    <contour>
      <point x="256" y="0" type="line"/>
      <point x="165" y="0" type="line"/>
      <point x="217" y="429" type="line"/>
      <point x="185" y="429"/>
      <point x="132" y="452"/>
      <point x="93" y="492"/>
      <point x="71" y="546"/>
      <point x="71" y="577" type="qcurve"/>
      <point x="71" y="615"/>
      <point x="102" y="682"/>
      <point x="153" y="731"/>
      <point x="221" y="760"/>
      <point x="258" y="760" type="qcurve"/>
      <point x="515" y="760" type="line"/>
      <point x="422" y="0" type="line"/>
      <point x="331" y="0" type="line"/>
      <point x="413" y="672" type="line"/>
      <point x="339" y="672" type="line"/>
    </contour>
  </outline>
</glyph>
<glyph name="cedilla" format="1">
  <advance width="458"/>
  <unicode hex="00B8"/>
  <outline>
    <contour>
      <point x="185" y="0" type="line"/>
      <point x="242" y="0" type="line"/>
      <point x="241" y="-7" type="line"/>
      <point x="239" y="-22"/>
      <point x="245" y="-39"/>
      <point x="256" y="-50"/>
      <point x="270" y="-57"/>
      <point x="276" y="-62" type="qcurve"/>
      <point x="292" y="-75"/>
      <point x="305" y="-110"/>
      <point x="305" y="-130" type="qcurve"/>
      <point x="305" y="-154"/>
      <point x="288" y="-200"/>
      <point x="257" y="-235"/>
      <point x="211" y="-257"/>
      <point x="181" y="-257" type="qcurve"/>
      <point x="146" y="-257"/>
      <point x="92" y="-218"/>
      <point x="83" y="-178" type="qcurve"/>
      <point x="96" y="-172"/>
      <point x="123" y="-159"/>
      <point x="136" y="-152" type="qcurve"/>
      <point x="139" y="-168"/>
      <point x="162" y="-189"/>
      <point x="182" y="-189" type="qcurve"/>
      <point x="209" y="-189"/>
      <point x="238" y="-152"/>
      <point x="238" y="-128" type="qcurve"/>
      <point x="238" y="-110"/>
      <point x="218" y="-89"/>
      <point x="196" y="-72"/>
      <point x="178" y="-52"/>
      <point x="180" y="-36" type="qcurve"/>
    </contour>
  </outline>
</glyph>
<glyph name="onesuperior" format="1">
  <advance width="183"/>
  <unicode hex="00B9"/>
  <outline>
    <contour>
      <point x="91" y="663" type="line"/>
      <point x="96" y="704" type="line"/>
      <point x="168" y="704" type="line"/>
      <point x="131" y="401" type="line"/>
      <point x="89" y="401" type="line"/>
      <point x="121" y="663" type="line"/>
    </contour>
  </outline>
</glyph>
<glyph name="ordmasculine" format="1">
  <advance width="404"/>
  <unicode hex="00BA"/>
  <outline>
    <contour>
      <point x="63" y="457" type="qcurve"/>
      <point x="67" y="491"/>
      <point x="99" y="549"/>
      <point x="147" y="591"/>
      <point x="209" y="615"/>
      <point x="244" y="615" type="qcurve"/>
      <point x="276" y="615"/>
      <point x="328" y="594"/>
      <point x="364" y="556"/>
      <point x="384" y="505"/>
      <point x="384" y="475" type="qcurve"/>
      <point x="384" y="438"/>
      <point x="356" y="374"/>
      <point x="308" y="326"/>
      <point x="242" y="299"/>
      <point x="203" y="299" type="qcurve"/>
      <point x="169" y="299"/>
      <point x="114" y="321"/>
      <point x="76" y="363"/>
      <point x="58" y="421"/>
    </contour>
    <contour>
      <point x="125" y="457" type="qcurve"/>
      <point x="120" y="415"/>
      <point x="168" y="359"/>
      <point x="210" y="359" type="qcurve"/>
      <point x="232" y="359"/>
      <point x="273" y="376"/>
      <point x="303" y="405"/>
      <point x="321" y="444"/>
      <point x="321" y="467" type="qcurve"/>
      <point x="321" y="505"/>
      <point x="272" y="555"/>
      <point x="234" y="555" type="qcurve"/>
      <point x="213" y="555"/>
      <point x="175" y="540"/>
      <point x="146" y="513"/>
      <point x="127" y="478"/>
    </contour>
  </outline>
</glyph>
<glyph name="guillemotright" format="1">
  <advance width="455"/>
  <unicode hex="00BB"/>
  <outline>
    <contour>
      <point x="52" y="155" type="line"/>
      <point x="58" y="160"/>
      <point x="81" y="185"/>
      <point x="106" y="212"/>
      <point x="129" y="237"/>
      <point x="135" y="242" type="qcurve"/>
      <point x="130" y="248"/>
      <point x="113" y="272"/>
      <point x="95" y="300"/>
      <point x="78" y="324"/>
      <point x="74" y="330" type="qcurve"/>
      <point x="86" y="434" type="line"/>
      <point x="90" y="430"/>
      <point x="113" y="400"/>
      <point x="144" y="361"/>
      <point x="179" y="315"/>
      <point x="210" y="276"/>
      <point x="233" y="246"/>
      <point x="237" y="242" type="qcurve"/>
      <point x="39" y="50" type="line"/>
    </contour>
    <contour>
      <point x="226" y="155" type="line"/>
      <point x="232" y="160"/>
      <point x="254" y="185"/>
      <point x="279" y="212"/>
      <point x="302" y="237"/>
      <point x="308" y="242" type="qcurve"/>
      <point x="303" y="248"/>
      <point x="287" y="272"/>
      <point x="269" y="299"/>
      <point x="252" y="324"/>
      <point x="248" y="329" type="qcurve"/>
      <point x="260" y="434" type="line"/>
      <point x="264" y="430"/>
      <point x="287" y="400"/>
      <point x="318" y="361"/>
      <point x="352" y="315"/>
      <point x="383" y="276"/>
      <point x="406" y="246"/>
      <point x="410" y="242" type="qcurve"/>
      <point x="213" y="50" type="line"/>
    </contour>
  </outline>
</glyph>
<glyph name="onequarter" format="1">
  <advance width="800"/>
  <unicode hex="00BC"/>
  <outline>
    <contour>
      <point x="733" y="66" type="line"/>
      <point x="725" y="0" type="line"/>
      <point x="525" y="0" type="line"/>
      <point x="533" y="66" type="line"/>
      <point x="596" y="66" type="line"/>
      <point x="603" y="127" type="line"/>
      <point x="380" y="127" type="line"/>
      <point x="461" y="217"/>
      <point x="637" y="407"/>
      <point x="717" y="497" type="qcurve"/>
      <point x="680" y="193" type="line"/>
      <point x="753" y="193" type="line"/>
      <point x="745" y="127" type="line"/>
      <point x="672" y="127" type="line"/>
      <point x="665" y="66" type="line"/>
    </contour>
    <contour>
      <point x="145" y="-19" type="line"/>
      <point x="240" y="173"/>
      <point x="426" y="554"/>
      <point x="522" y="746" type="qcurve"/>
      <point x="614" y="746" type="line"/>
      <point x="237" y="-19" type="line"/>
    </contour>
    <contour>
      <point x="85" y="638" type="line"/>
      <point x="92" y="702" type="line"/>
      <point x="203" y="702" type="line"/>
      <point x="146" y="234" type="line"/>
      <point x="80" y="234" type="line"/>
      <point x="130" y="638" type="line"/>
    </contour>
    <contour>
      <point x="626" y="311" type="line"/>
      <point x="616" y="300"/>
      <point x="588" y="268"/>
      <point x="559" y="235"/>
      <point x="530" y="204"/>
      <point x="520" y="193" type="qcurve"/>
      <point x="612" y="193" type="line"/>
    </contour>
  </outline>
</glyph>
<glyph name="onehalf" format="1">
  <advance width="852"/>
  <unicode hex="00BD"/>
  <outline>
    <contour>
      <point x="611" y="63" type="qcurve"/>
      <point x="721" y="63" type="line"/>
      <point x="727" y="107" type="line"/>
      <point x="795" y="107" type="line"/>
      <point x="781" y="0" type="line"/>
      <point x="447" y="0" type="line"/>
      <point x="499" y="46"/>
      <point x="596" y="133"/>
      <point x="671" y="214"/>
      <point x="716" y="290"/>
      <point x="716" y="326" type="qcurve"/>
      <point x="716" y="347"/>
      <point x="702" y="379"/>
      <point x="680" y="400"/>
      <point x="655" y="410"/>
      <point x="643" y="410" type="qcurve"/>
      <point x="614" y="410"/>
      <point x="576" y="389"/>
      <point x="554" y="359"/>
      <point x="544" y="325"/>
      <point x="544" y="313" type="qcurve"/>
      <point x="544" y="275"/>
      <point x="564" y="252" type="qcurve"/>
      <point x="521" y="212" type="line"/>
      <point x="500" y="226"/>
      <point x="479" y="288"/>
      <point x="479" y="314" type="qcurve"/>
      <point x="479" y="344"/>
      <point x="502" y="401"/>
      <point x="546" y="446"/>
      <point x="610" y="473"/>
      <point x="650" y="473" type="qcurve"/>
      <point x="681" y="473"/>
      <point x="730" y="451"/>
      <point x="765" y="414"/>
      <point x="783" y="365"/>
      <point x="783" y="338" type="qcurve"/>
      <point x="783" y="302"/>
      <point x="755" y="233"/>
      <point x="708" y="166"/>
      <point x="645" y="98"/>
    </contour>
    <contour>
      <point x="152" y="-19" type="line"/>
      <point x="247" y="173"/>
      <point x="433" y="554"/>
      <point x="529" y="746" type="qcurve"/>
      <point x="621" y="746" type="line"/>
      <point x="244" y="-19" type="line"/>
    </contour>
    <contour>
      <point x="87" y="639" type="line"/>
      <point x="94" y="702" type="line"/>
      <point x="205" y="702" type="line"/>
      <point x="148" y="234" type="line"/>
      <point x="82" y="234" type="line"/>
      <point x="132" y="639" type="line"/>
    </contour>
  </outline>
</glyph>
<glyph name="questiondown" format="1">
  <advance width="477"/>
  <unicode hex="00BF"/>
  <outline>
    <contour>
      <point x="327" y="-16" type="qcurve"/>
      <point x="403" y="-46" type="line"/>
      <point x="394" y="-67"/>
      <point x="362" y="-122"/>
      <point x="309" y="-170"/>
      <point x="233" y="-203"/>
      <point x="179" y="-203" type="qcurve"/>
      <point x="140" y="-203"/>
      <point x="76" y="-175"/>
      <point x="29" y="-127"/>
      <point x="3" y="-63"/>
      <point x="3" y="-26" type="qcurve"/>
      <point x="3" y="38"/>
      <point x="69" y="132"/>
      <point x="126" y="170" type="qcurve"/>
      <point x="141" y="180"/>
      <point x="176" y="202"/>
      <point x="208" y="230"/>
      <point x="232" y="268"/>
      <point x="235" y="294" type="qcurve"/>
      <point x="245" y="373" type="line"/>
      <point x="336" y="373" type="line"/>
      <point x="324" y="275" type="line"/>
      <point x="320" y="242"/>
      <point x="295" y="201"/>
      <point x="258" y="170"/>
      <point x="212" y="143"/>
      <point x="187" y="125" type="qcurve"/>
      <point x="98" y="61"/>
      <point x="98" y="-19" type="qcurve"/>
      <point x="98" y="-60"/>
      <point x="147" y="-114"/>
      <point x="190" y="-114" type="qcurve"/>
      <point x="246" y="-114"/>
      <point x="306" y="-65"/>
    </contour>
    <contour>
      <point x="313" y="541" type="qcurve"/>
      <point x="332" y="541"/>
      <point x="363" y="514"/>
      <point x="363" y="491" type="qcurve"/>
      <point x="363" y="478"/>
      <point x="351" y="455"/>
      <point x="333" y="439"/>
      <point x="310" y="429"/>
      <point x="299" y="429" type="qcurve"/>
      <point x="280" y="429"/>
      <point x="250" y="458"/>
      <point x="250" y="480" type="qcurve"/>
      <point x="250" y="508"/>
      <point x="290" y="541"/>
    </contour>
  </outline>
</glyph>
<glyph name="Atilde" format="1">
  <advance width="747"/>
  <unicode hex="00C3"/>
  <outline>
    <contour>
      <point x="-19" y="95" type="line"/>
      <point x="-31" y="0" type="line"/>
      <point x="238" y="0" type="line"/>
      <point x="250" y="95" type="line"/>
      <point x="175" y="95" type="line"/>
      <point x="235" y="208" type="line"/>
      <point x="492" y="208" type="line"/>
      <point x="525" y="95" type="line"/>
      <point x="451" y="95" type="line"/>
      <point x="439" y="0" type="line"/>
      <point x="708" y="0" type="line"/>
      <point x="720" y="95" type="line"/>
      <point x="632" y="95" type="line"/>
      <point x="432" y="759" type="line"/>
      <point x="68" y="95" type="line"/>
    </contour>
    <contour>
      <point x="389" y="494" type="line"/>
      <point x="392" y="501"/>
      <point x="395" y="508" type="qcurve"/>
      <point x="397" y="514"/>
      <point x="402" y="526"/>
      <point x="404" y="531" type="qcurve"/>
      <point x="404" y="526"/>
      <point x="406" y="514"/>
      <point x="407" y="508" type="qcurve"/>
      <point x="408" y="501"/>
      <point x="410" y="494" type="qcurve"/>
      <point x="466" y="300" type="line"/>
      <point x="285" y="300" type="line"/>
    </contour>
    <contour>
      <point x="431" y="806" type="qcurve"/>
      <point x="417" y="821"/>
      <point x="396" y="832"/>
      <point x="382" y="832" type="qcurve"/>
      <point x="368" y="832"/>
      <point x="330" y="814"/>
      <point x="323" y="786" type="qcurve"/>
      <point x="275" y="789" type="line"/>
      <point x="278" y="810"/>
      <point x="300" y="844"/>
      <point x="330" y="868"/>
      <point x="364" y="881"/>
      <point x="379" y="881" type="qcurve"/>
      <point x="404" y="881"/>
      <point x="440" y="863"/>
      <point x="454" y="847" type="qcurve"/>
      <point x="468" y="832"/>
      <point x="490" y="822"/>
      <point x="504" y="822" type="qcurve"/>
      <point x="511" y="822"/>
      <point x="528" y="826"/>
      <point x="545" y="836"/>
      <point x="559" y="854"/>
      <point x="562" y="868" type="qcurve"/>
      <point x="610" y="865" type="line"/>
      <point x="606" y="844"/>
      <point x="584" y="811"/>
      <point x="555" y="787"/>
      <point x="521" y="774"/>
      <point x="506" y="774" type="qcurve"/>
      <point x="482" y="774"/>
      <point x="445" y="791"/>
    </contour>
  </outline>
</glyph>
<glyph name="Aring" format="1">
  <advance width="747"/>
  <unicode hex="00C5"/>
  <outline>
    <contour>
      <point x="68" y="95" type="line"/>
      <point x="431" y="757" type="line"/>
      <point x="399" y="757"/>
      <point x="355" y="802"/>
      <point x="355" y="834" type="qcurve"/>
      <point x="355" y="853"/>
      <point x="371" y="886"/>
      <point x="398" y="912"/>
      <point x="433" y="927"/>
      <point x="451" y="927" type="qcurve"/>
      <point x="483" y="927"/>
      <point x="526" y="883"/>
      <point x="526" y="851" type="qcurve"/>
      <point x="526" y="832"/>
      <point x="510" y="798"/>
      <point x="484" y="773"/>
      <point x="450" y="757"/>
      <point x="432" y="757" type="qcurve"/>
      <point x="632" y="95" type="line"/>
      <point x="720" y="95" type="line"/>
      <point x="708" y="0" type="line"/>
      <point x="439" y="0" type="line"/>
      <point x="451" y="95" type="line"/>
      <point x="525" y="95" type="line"/>
      <point x="492" y="208" type="line"/>
      <point x="235" y="208" type="line"/>
      <point x="175" y="95" type="line"/>
      <point x="250" y="95" type="line"/>
      <point x="238" y="0" type="line"/>
      <point x="-31" y="0" type="line"/>
      <point x="-19" y="95" type="line"/>
    </contour>
    <contour>
      <point x="285" y="300" type="line"/>
      <point x="466" y="300" type="line"/>
      <point x="410" y="494" type="line"/>
      <point x="408" y="501"/>
      <point x="407" y="508" type="qcurve"/>
      <point x="406" y="514"/>
      <point x="404" y="526"/>
      <point x="404" y="531" type="qcurve"/>
      <point x="402" y="526"/>
      <point x="397" y="514"/>
      <point x="395" y="508" type="qcurve"/>
      <point x="392" y="501"/>
      <point x="389" y="494" type="qcurve"/>
    </contour>
    <contour>
      <point x="406" y="838" type="qcurve"/>
      <point x="406" y="825"/>
      <point x="423" y="807"/>
      <point x="437" y="807" type="qcurve"/>
      <point x="453" y="807"/>
      <point x="477" y="829"/>
      <point x="477" y="845" type="qcurve"/>
      <point x="477" y="859"/>
      <point x="459" y="877"/>
      <point x="445" y="877" type="qcurve"/>
      <point x="429" y="877"/>
      <point x="406" y="855"/>
    </contour>
  </outline>
</glyph>
<glyph name="Egrave" format="1">
  <advance width="663"/>
  <unicode hex="00C8"/>
  <outline>
    <contour>
      <point x="535" y="555" type="line"/>
      <point x="544" y="626" type="line"/>
      <point x="280" y="626" type="line"/>
      <point x="254" y="414" type="line"/>
      <point x="580" y="414" type="line"/>
      <point x="568" y="313" type="line"/>
      <point x="241" y="313" type="line"/>
      <point x="215" y="101" type="line"/>
      <point x="494" y="101" type="line"/>
      <point x="504" y="178" type="line"/>
      <point x="606" y="178" type="line"/>
      <point x="591" y="57" type="line"/>
      <point x="584" y="0" type="line"/>
      <point x="15" y="0" type="line"/>
      <point x="27" y="95" type="line"/>
      <point x="105" y="95" type="line"/>
      <point x="171" y="630" type="line"/>
      <point x="92" y="630" type="line"/>
      <point x="104" y="725" type="line"/>
      <point x="658" y="725" type="line"/>
      <point x="647" y="626" type="line"/>
      <point x="646" y="626" type="line"/>
      <point x="638" y="555" type="line"/>
    </contour>
    <contour>
      <point x="388" y="907" type="line"/>
      <point x="463" y="773" type="line"/>
      <point x="399" y="773" type="line"/>
      <point x="373" y="806"/>
      <point x="321" y="874"/>
      <point x="296" y="907" type="qcurve"/>
    </contour>
  </outline>
</glyph>
<glyph name="Edieresis" format="1">
  <advance width="663"/>
  <unicode hex="00CB"/>
  <outline>
    <contour>
      <point x="535" y="555" type="line"/>
      <point x="544" y="626" type="line"/>
      <point x="280" y="626" type="line"/>
      <point x="254" y="414" type="line"/>
      <point x="580" y="414" type="line"/>
      <point x="568" y="313" type="line"/>
      <point x="241" y="313" type="line"/>
      <point x="215" y="101" type="line"/>
      <point x="494" y="101" type="line"/>
      <point x="504" y="178" type="line"/>
      <point x="606" y="178" type="line"/>
      <point x="591" y="57" type="line"/>
      <point x="584" y="0" type="line"/>
      <point x="15" y="0" type="line"/>
      <point x="27" y="95" type="line"/>
      <point x="105" y="95" type="line"/>
      <point x="171" y="630" type="line"/>
      <point x="92" y="630" type="line"/>
      <point x="104" y="725" type="line"/>
      <point x="658" y="725" type="line"/>
      <point x="647" y="626" type="line"/>
      <point x="646" y="626" type="line"/>
      <point x="638" y="555" type="line"/>
    </contour>
    <contour>
      <point x="442" y="824" type="qcurve"/>
      <point x="442" y="837"/>
      <point x="454" y="860"/>
      <point x="472" y="877"/>
      <point x="495" y="886"/>
      <point x="507" y="886" type="qcurve"/>
      <point x="525" y="886"/>
      <point x="555" y="857"/>
      <point x="555" y="835" type="qcurve"/>
      <point x="555" y="807"/>
      <point x="514" y="773"/>
      <point x="492" y="773" type="qcurve"/>
      <point x="472" y="773"/>
      <point x="442" y="801"/>
    </contour>
    <contour>
      <point x="253" y="824" type="qcurve"/>
      <point x="253" y="851"/>
      <point x="294" y="886"/>
      <point x="317" y="886" type="qcurve"/>
      <point x="335" y="886"/>
      <point x="365" y="857"/>
      <point x="365" y="835" type="qcurve"/>
      <point x="365" y="807"/>
      <point x="324" y="773"/>
      <point x="303" y="773" type="qcurve"/>
      <point x="283" y="773"/>
      <point x="253" y="801"/>
    </contour>
  </outline>
</glyph>
<glyph name="Igrave" format="1">
  <advance width="367"/>
  <unicode hex="00CC"/>
  <outline>
    <contour>
      <point x="372" y="725" type="line"/>
      <point x="360" y="630" type="line"/>
      <point x="280" y="630" type="line"/>
      <point x="214" y="95" type="line"/>
      <point x="295" y="95" type="line"/>
      <point x="283" y="0" type="line"/>
      <point x="14" y="0" type="line"/>
      <point x="26" y="95" type="line"/>
      <point x="105" y="95" type="line"/>
      <point x="171" y="630" type="line"/>
      <point x="91" y="630" type="line"/>
      <point x="103" y="725" type="line"/>
    </contour>
    <contour>
      <point x="228" y="912" type="line"/>
      <point x="303" y="778" type="line"/>
      <point x="239" y="778" type="line"/>
      <point x="213" y="811"/>
      <point x="161" y="879"/>
      <point x="136" y="912" type="qcurve"/>
    </contour>
  </outline>
</glyph>
<glyph name="Iacute" format="1">
  <advance width="367"/>
  <unicode hex="00CD"/>
  <outline>
    <contour>
      <point x="372" y="725" type="line"/>
      <point x="360" y="630" type="line"/>
      <point x="280" y="630" type="line"/>
      <point x="214" y="95" type="line"/>
      <point x="295" y="95" type="line"/>
      <point x="283" y="0" type="line"/>
      <point x="14" y="0" type="line"/>
      <point x="26" y="95" type="line"/>
      <point x="105" y="95" type="line"/>
      <point x="171" y="630" type="line"/>
      <point x="91" y="630" type="line"/>
      <point x="103" y="725" type="line"/>
    </contour>
    <contour>
      <point x="151" y="773" type="line"/>
      <point x="259" y="907" type="line"/>
      <point x="351" y="907" type="line"/>
      <point x="215" y="773" type="line"/>
    </contour>
  </outline>
</glyph>
<glyph name="Eth" format="1">
  <advance width="754"/>
  <unicode hex="00D0"/>
  <outline>
    <contour>
      <point x="68" y="391" type="line"/>
      <point x="143" y="391" type="line"/>
      <point x="172" y="630" type="line"/>
      <point x="93" y="630" type="line"/>
      <point x="105" y="725" type="line"/>
      <point x="366" y="725" type="line"/>
      <point x="465" y="725"/>
      <point x="602" y="668"/>
      <point x="686" y="575"/>
      <point x="724" y="457"/>
      <point x="724" y="397" type="qcurve"/>
      <point x="724" y="305"/>
      <point x="655" y="159"/>
      <point x="541" y="55"/>
      <point x="393" y="0"/>
      <point x="313" y="0" type="qcurve"/>
      <point x="16" y="0" type="line"/>
      <point x="28" y="95" type="line"/>
      <point x="106" y="95" type="line"/>
      <point x="134" y="318" type="line"/>
      <point x="59" y="318" type="line"/>
    </contour>
    <contour>
      <point x="310" y="104" type="line"/>
      <point x="373" y="104"/>
      <point x="485" y="143"/>
      <point x="567" y="216"/>
      <point x="615" y="324"/>
      <point x="615" y="393" type="qcurve"/>
      <point x="615" y="451"/>
      <point x="575" y="537"/>
      <point x="510" y="593"/>
      <point x="426" y="620"/>
      <point x="383" y="620" type="qcurve"/>
      <point x="280" y="620" type="line"/>
      <point x="273" y="563"/>
      <point x="260" y="448"/>
      <point x="252" y="391" type="qcurve"/>
      <point x="410" y="391" type="line"/>
      <point x="401" y="318" type="line"/>
      <point x="243" y="318" type="line"/>
      <point x="216" y="104" type="line"/>
    </contour>
  </outline>
</glyph>
<glyph name="Oacute" format="1">
  <advance width="819"/>
  <unicode hex="00D3"/>
  <outline>
    <contour>
      <point x="48" y="362" type="qcurve"/>
      <point x="57" y="437"/>
      <point x="132" y="572"/>
      <point x="244" y="674"/>
      <point x="386" y="733"/>
      <point x="463" y="733" type="qcurve"/>
      <point x="533" y="733"/>
      <point x="654" y="680"/>
      <point x="742" y="589"/>
      <point x="792" y="467"/>
      <point x="792" y="398" type="qcurve"/>
      <point x="792" y="315"/>
      <point x="722" y="168"/>
      <point x="605" y="57"/>
      <point x="454" y="-8"/>
      <point x="372" y="-8" type="qcurve"/>
      <point x="295" y="-8"/>
      <point x="168" y="50"/>
      <point x="80" y="151"/>
      <point x="39" y="285"/>
    </contour>
    <contour>
      <point x="157" y="361" type="qcurve"/>
      <point x="150" y="306"/>
      <point x="179" y="209"/>
      <point x="242" y="137"/>
      <point x="332" y="95"/>
      <point x="387" y="95" type="qcurve"/>
      <point x="445" y="95"/>
      <point x="552" y="142"/>
      <point x="633" y="222"/>
      <point x="682" y="329"/>
      <point x="682" y="389" type="qcurve"/>
      <point x="682" y="439"/>
      <point x="647" y="526"/>
      <point x="586" y="591"/>
      <point x="501" y="628"/>
      <point x="451" y="628" type="qcurve"/>
      <point x="397" y="628"/>
      <point x="296" y="586"/>
      <point x="217" y="514"/>
      <point x="164" y="416"/>
    </contour>
    <contour>
      <point x="385" y="776" type="line"/>
      <point x="493" y="910" type="line"/>
      <point x="585" y="910" type="line"/>
      <point x="449" y="776" type="line"/>
    </contour>
  </outline>
</glyph>
<glyph name="Ocircumflex" format="1">
  <advance width="819"/>
  <unicode hex="00D4"/>
  <outline>
    <contour>
      <point x="48" y="362" type="qcurve"/>
      <point x="57" y="437"/>
      <point x="132" y="572"/>
      <point x="244" y="674"/>
      <point x="386" y="733"/>
      <point x="463" y="733" type="qcurve"/>
      <point x="533" y="733"/>
      <point x="654" y="680"/>
      <point x="742" y="589"/>
      <point x="792" y="467"/>
      <point x="792" y="398" type="qcurve"/>
      <point x="792" y="315"/>
      <point x="722" y="168"/>
      <point x="605" y="57"/>
      <point x="454" y="-8"/>
      <point x="372" y="-8" type="qcurve"/>
      <point x="295" y="-8"/>
      <point x="168" y="50"/>
      <point x="80" y="151"/>
      <point x="39" y="285"/>
    </contour>
    <contour>
      <point x="157" y="361" type="qcurve"/>
      <point x="150" y="306"/>
      <point x="179" y="209"/>
      <point x="242" y="137"/>
      <point x="332" y="95"/>
      <point x="387" y="95" type="qcurve"/>
      <point x="445" y="95"/>
      <point x="552" y="142"/>
      <point x="633" y="222"/>
      <point x="682" y="329"/>
      <point x="682" y="389" type="qcurve"/>
      <point x="682" y="439"/>
      <point x="647" y="526"/>
      <point x="586" y="591"/>
      <point x="501" y="628"/>
      <point x="451" y="628" type="qcurve"/>
      <point x="397" y="628"/>
      <point x="296" y="586"/>
      <point x="217" y="514"/>
      <point x="164" y="416"/>
    </contour>
    <contour>
      <point x="496" y="958" type="line"/>
      <point x="521" y="912"/>
      <point x="570" y="821"/>
      <point x="596" y="775" type="qcurve"/>
      <point x="531" y="775" type="line"/>
      <point x="528" y="781"/>
      <point x="515" y="802"/>
      <point x="500" y="825"/>
      <point x="486" y="847"/>
      <point x="483" y="853" type="qcurve"/>
      <point x="478" y="847"/>
      <point x="460" y="825"/>
      <point x="440" y="802"/>
      <point x="421" y="781"/>
      <point x="416" y="775" type="qcurve"/>
      <point x="352" y="775" type="line"/>
    </contour>
  </outline>
</glyph>
<glyph name="Oslash" format="1">
  <advance width="818"/>
  <unicode hex="00D8"/>
  <outline>
    <contour>
      <point x="47" y="362" type="qcurve"/>
      <point x="56" y="437"/>
      <point x="131" y="572"/>
      <point x="243" y="674"/>
      <point x="385" y="733"/>
      <point x="462" y="733" type="qcurve"/>
      <point x="521" y="733"/>
      <point x="622" y="696"/>
      <point x="664" y="663" type="qcurve"/>
      <point x="684" y="683"/>
      <point x="718" y="718"/>
      <point x="732" y="732" type="qcurve"/>
      <point x="777" y="685" type="line"/>
      <point x="711" y="618" type="line"/>
      <point x="749" y="573"/>
      <point x="791" y="461"/>
      <point x="791" y="398" type="qcurve"/>
      <point x="791" y="315"/>
      <point x="721" y="168"/>
      <point x="604" y="57"/>
      <point x="453" y="-8"/>
      <point x="371" y="-8" type="qcurve"/>
      <point x="311" y="-8"/>
      <point x="208" y="28"/>
      <point x="166" y="60" type="qcurve"/>
      <point x="143" y="37"/>
      <point x="105" y="-1"/>
      <point x="91" y="-16" type="qcurve"/>
      <point x="45" y="30" type="line"/>
      <point x="118" y="106" type="line"/>
      <point x="76" y="156"/>
      <point x="38" y="287"/>
    </contour>
    <contour>
      <point x="244" y="140" type="line"/>
      <point x="273" y="119"/>
      <point x="344" y="95"/>
      <point x="386" y="95" type="qcurve"/>
      <point x="444" y="95"/>
      <point x="551" y="142"/>
      <point x="632" y="222"/>
      <point x="681" y="329"/>
      <point x="681" y="389" type="qcurve"/>
      <point x="681" y="431"/>
      <point x="656" y="507"/>
      <point x="633" y="537" type="qcurve"/>
    </contour>
    <contour>
      <point x="156" y="361" type="qcurve"/>
      <point x="150" y="310"/>
      <point x="172" y="222"/>
      <point x="198" y="187" type="qcurve"/>
      <point x="586" y="583" type="line"/>
      <point x="558" y="604"/>
      <point x="489" y="628"/>
      <point x="450" y="628" type="qcurve"/>
      <point x="396" y="628"/>
      <point x="295" y="586"/>
      <point x="216" y="514"/>
      <point x="163" y="416"/>
    </contour>
  </outline>
</glyph>
<glyph name="Udieresis" format="1">
  <advance width="771"/>
  <unicode hex="00DC"/>
  <outline>
    <contour>
      <point x="351" y="725" type="line"/>
      <point x="339" y="630" type="line"/>
      <point x="262" y="630" type="line"/>
      <point x="216" y="259" type="line"/>
      <point x="212" y="224"/>
      <point x="230" y="165"/>
      <point x="269" y="120"/>
      <point x="327" y="95"/>
      <point x="362" y="95" type="qcurve"/>
      <point x="397" y="95"/>
      <point x="461" y="120"/>
      <point x="512" y="165"/>
      <point x="545" y="224"/>
      <point x="550" y="259" type="qcurve"/>
      <point x="607" y="725" type="line"/>
      <point x="795" y="725" type="line"/>
      <point x="783" y="630" type="line"/>
      <point x="705" y="630" type="line"/>
      <point x="659" y="256" type="line"/>
      <point x="652" y="196"/>
      <point x="597" y="99"/>
      <point x="513" y="30"/>
      <point x="408" y="-8"/>
      <point x="350" y="-8" type="qcurve"/>
      <point x="292" y="-8"/>
      <point x="196" y="30"/>
      <point x="130" y="99"/>
      <point x="99" y="196"/>
      <point x="107" y="256" type="qcurve"/>
      <point x="152" y="630" type="line"/>
      <point x="70" y="630" type="line"/>
      <point x="82" y="725" type="line"/>
    </contour>
    <contour>
      <point x="493" y="824" type="qcurve"/>
      <point x="493" y="837"/>
      <point x="505" y="860"/>
      <point x="523" y="877"/>
      <point x="546" y="886"/>
      <point x="558" y="886" type="qcurve"/>
      <point x="576" y="886"/>
      <point x="606" y="857"/>
      <point x="606" y="835" type="qcurve"/>
      <point x="606" y="807"/>
      <point x="565" y="773"/>
      <point x="543" y="773" type="qcurve"/>
      <point x="523" y="773"/>
      <point x="493" y="801"/>
    </contour>
    <contour>
      <point x="304" y="824" type="qcurve"/>
      <point x="304" y="851"/>
      <point x="345" y="886"/>
      <point x="368" y="886" type="qcurve"/>
      <point x="386" y="886"/>
      <point x="416" y="857"/>
      <point x="416" y="835" type="qcurve"/>
      <point x="416" y="807"/>
      <point x="375" y="773"/>
      <point x="354" y="773" type="qcurve"/>
      <point x="334" y="773"/>
      <point x="304" y="801"/>
    </contour>
  </outline>
</glyph>
<glyph name="Thorn" format="1">
  <advance width="609"/>
  <unicode hex="00DE"/>
  <outline>
    <contour>
      <point x="215" y="95" type="line"/>
      <point x="203" y="0" type="line"/>
      <point x="15" y="0" type="line"/>
      <point x="27" y="95" type="line"/>
      <point x="105" y="95" type="line"/>
      <point x="171" y="630" type="line"/>
      <point x="92" y="630" type="line"/>
      <point x="104" y="725" type="line"/>
      <point x="292" y="725" type="line"/>
      <point x="290" y="710" type="line"/>
      <point x="276" y="592" type="line"/>
      <point x="365" y="592" type="line"/>
      <point x="417" y="592"/>
      <point x="502" y="565"/>
      <point x="563" y="514"/>
      <point x="597" y="439"/>
      <point x="597" y="391" type="qcurve"/>
      <point x="597" y="346"/>
      <point x="567" y="251"/>
      <point x="501" y="175"/>
      <point x="396" y="126"/>
      <point x="321" y="126" type="qcurve"/>
      <point x="218" y="126" type="line"/>
      <point x="214" y="95" type="line"/>
    </contour>
    <contour>
      <point x="231" y="229" type="line"/>
      <point x="331" y="229" type="line"/>
      <point x="375" y="229"/>
      <point x="434" y="260"/>
      <point x="470" y="306"/>
      <point x="486" y="356"/>
      <point x="486" y="376" type="qcurve"/>
      <point x="486" y="395"/>
      <point x="473" y="435"/>
      <point x="444" y="468"/>
      <point x="397" y="489"/>
      <point x="363" y="489" type="qcurve"/>
      <point x="263" y="489" type="line"/>
    </contour>
  </outline>
</glyph>
<glyph name="germandbls" format="1">
  <advance width="565"/>
  <unicode hex="00DF"/>
  <outline>
    <contour>
      <point x="190" y="8" type="qcurve"/>
      <point x="201" y="28"/>
      <point x="225" y="69"/>
      <point x="237" y="90" type="qcurve"/>
      <point x="260" y="80"/>
      <point x="283" y="80" type="qcurve"/>
      <point x="312" y="80"/>
      <point x="366" y="103"/>
      <point x="408" y="143"/>
      <point x="433" y="196"/>
      <point x="433" y="225" type="qcurve"/>
      <point x="433" y="250"/>
      <point x="415" y="293"/>
      <point x="383" y="325"/>
      <point x="340" y="343"/>
      <point x="315" y="342" type="qcurve"/>
      <point x="313" y="342" type="line"/>
      <point x="318" y="387" type="line"/>
      <point x="323" y="432" type="line"/>
      <point x="360" y="432"/>
      <point x="409" y="475"/>
      <point x="409" y="510" type="qcurve"/>
      <point x="409" y="538"/>
      <point x="368" y="577"/>
      <point x="328" y="577" type="qcurve"/>
      <point x="268" y="577"/>
      <point x="210" y="494"/>
      <point x="201" y="422" type="qcurve"/>
      <point x="149" y="0" type="line"/>
      <point x="58" y="0" type="line"/>
      <point x="99" y="335" type="line"/>
      <point x="34" y="335" type="line"/>
      <point x="45" y="424" type="line"/>
      <point x="110" y="424" type="line"/>
      <point x="111" y="429" type="line"/>
      <point x="117" y="484"/>
      <point x="157" y="572"/>
      <point x="217" y="633"/>
      <point x="293" y="666"/>
      <point x="335" y="666" type="qcurve"/>
      <point x="376" y="666"/>
      <point x="438" y="643"/>
      <point x="480" y="604"/>
      <point x="501" y="551"/>
      <point x="501" y="523" type="qcurve"/>
      <point x="501" y="485"/>
      <point x="464" y="412"/>
      <point x="426" y="395" type="qcurve"/>
      <point x="443" y="391"/>
      <point x="478" y="363"/>
      <point x="506" y="319"/>
      <point x="524" y="263"/>
      <point x="524" y="231" type="qcurve"/>
      <point x="524" y="183"/>
      <point x="482" y="96"/>
      <point x="411" y="30"/>
      <point x="320" y="-9"/>
      <point x="271" y="-9" type="qcurve"/>
      <point x="251" y="-9"/>
      <point x="208" y="-1"/>
    </contour>
  </outline>
</glyph>
<glyph name="atilde" format="1">
  <advance width="567"/>
  <unicode hex="00E3"/>
  <outline>
    <contour>
      <point x="454" y="74" type="line"/>
      <point x="513" y="74" type="line"/>
      <point x="504" y="0" type="line"/>
      <point x="359" y="0" type="line"/>
      <point x="363" y="32" type="line"/>
      <point x="364" y="37"/>
      <point x="365" y="49"/>
      <point x="365" y="53" type="qcurve"/>
      <point x="360" y="45"/>
      <point x="335" y="23"/>
      <point x="298" y="4"/>
      <point x="248" y="-10"/>
      <point x="217" y="-10" type="qcurve"/>
      <point x="172" y="-10"/>
      <point x="100" y="21"/>
      <point x="49" y="73"/>
      <point x="21" y="144"/>
      <point x="21" y="183" type="qcurve"/>
      <point x="21" y="232"/>
      <point x="63" y="322"/>
      <point x="132" y="389"/>
      <point x="222" y="429"/>
      <point x="270" y="429" type="qcurve"/>
      <point x="300" y="429"/>
      <point x="347" y="414"/>
      <point x="381" y="392"/>
      <point x="400" y="368"/>
      <point x="403" y="359" type="qcurve"/>
      <point x="405" y="373"/>
      <point x="411" y="404"/>
      <point x="414" y="418" type="qcurve"/>
      <point x="497" y="418" type="line"/>
    </contour>
    <contour>
      <point x="108" y="195" type="qcurve"/>
      <point x="108" y="169"/>
      <point x="126" y="125"/>
      <point x="158" y="93"/>
      <point x="203" y="74"/>
      <point x="230" y="74" type="qcurve"/>
      <point x="263" y="74"/>
      <point x="319" y="98"/>
      <point x="361" y="139"/>
      <point x="385" y="194"/>
      <point x="385" y="225" type="qcurve"/>
      <point x="385" y="276"/>
      <point x="319" y="345"/>
      <point x="263" y="345" type="qcurve"/>
      <point x="231" y="345"/>
      <point x="174" y="322"/>
      <point x="132" y="281"/>
      <point x="108" y="226"/>
    </contour>
    <contour>
      <point x="288" y="506" type="qcurve"/>
      <point x="274" y="521"/>
      <point x="253" y="532"/>
      <point x="239" y="532" type="qcurve"/>
      <point x="225" y="532"/>
      <point x="187" y="514"/>
      <point x="180" y="486" type="qcurve"/>
      <point x="132" y="489" type="line"/>
      <point x="135" y="510"/>
      <point x="157" y="544"/>
      <point x="187" y="568"/>
      <point x="221" y="581"/>
      <point x="236" y="581" type="qcurve"/>
      <point x="261" y="581"/>
      <point x="297" y="563"/>
      <point x="311" y="547" type="qcurve"/>
      <point x="325" y="532"/>
      <point x="347" y="522"/>
      <point x="361" y="522" type="qcurve"/>
      <point x="368" y="522"/>
      <point x="385" y="526"/>
      <point x="402" y="536"/>
      <point x="416" y="554"/>
      <point x="419" y="568" type="qcurve"/>
      <point x="467" y="565" type="line"/>
      <point x="463" y="544"/>
      <point x="441" y="511"/>
      <point x="412" y="487"/>
      <point x="378" y="474"/>
      <point x="363" y="474" type="qcurve"/>
      <point x="339" y="474"/>
      <point x="302" y="491"/>
    </contour>
  </outline>
</glyph>
<glyph name="aring" format="1">
  <advance width="567"/>
  <unicode hex="00E5"/>
  <outline>
    <contour>
      <point x="454" y="74" type="line"/>
      <point x="513" y="74" type="line"/>
      <point x="504" y="0" type="line"/>
      <point x="359" y="0" type="line"/>
      <point x="363" y="32" type="line"/>
      <point x="364" y="37"/>
      <point x="365" y="49"/>
      <point x="365" y="53" type="qcurve"/>
      <point x="360" y="45"/>
      <point x="335" y="23"/>
      <point x="298" y="4"/>
      <point x="248" y="-10"/>
      <point x="217" y="-10" type="qcurve"/>
      <point x="172" y="-10"/>
      <point x="100" y="21"/>
      <point x="49" y="73"/>
      <point x="21" y="144"/>
      <point x="21" y="183" type="qcurve"/>
      <point x="21" y="232"/>
      <point x="63" y="322"/>
      <point x="132" y="389"/>
      <point x="222" y="429"/>
      <point x="270" y="429" type="qcurve"/>
      <point x="300" y="429"/>
      <point x="347" y="414"/>
      <point x="381" y="392"/>
      <point x="400" y="368"/>
      <point x="403" y="359" type="qcurve"/>
      <point x="405" y="373"/>
      <point x="411" y="404"/>
      <point x="414" y="418" type="qcurve"/>
      <point x="497" y="418" type="line"/>
    </contour>
    <contour>
      <point x="108" y="195" type="qcurve"/>
      <point x="108" y="169"/>
      <point x="126" y="125"/>
      <point x="158" y="93"/>
      <point x="203" y="74"/>
      <point x="230" y="74" type="qcurve"/>
      <point x="263" y="74"/>
      <point x="319" y="98"/>
      <point x="361" y="139"/>
      <point x="385" y="194"/>
      <point x="385" y="225" type="qcurve"/>
      <point x="385" y="276"/>
      <point x="319" y="345"/>
      <point x="263" y="345" type="qcurve"/>
      <point x="231" y="345"/>
      <point x="174" y="322"/>
      <point x="132" y="281"/>
      <point x="108" y="226"/>
    </contour>
    <contour>
      <point x="209" y="531" type="qcurve"/>
      <point x="209" y="550"/>
      <point x="225" y="583"/>
      <point x="252" y="609"/>
      <point x="286" y="624"/>
      <point x="305" y="624" type="qcurve"/>
      <point x="337" y="624"/>
      <point x="380" y="580"/>
      <point x="380" y="548" type="qcurve"/>
      <point x="380" y="529"/>
      <point x="364" y="495"/>
      <point x="337" y="469"/>
      <point x="303" y="454"/>
      <point x="285" y="454" type="qcurve"/>
      <point x="252" y="454"/>
      <point x="209" y="499"/>
    </contour>
    <contour>
      <point x="259" y="535" type="qcurve"/>
      <point x="259" y="522"/>
      <point x="277" y="504"/>
      <point x="291" y="504" type="qcurve"/>
      <point x="307" y="504"/>
      <point x="330" y="526"/>
      <point x="330" y="542" type="qcurve"/>
      <point x="330" y="556"/>
      <point x="313" y="574"/>
      <point x="299" y="574" type="qcurve"/>
      <point x="283" y="574"/>
      <point x="259" y="552"/>
    </contour>
  </outline>
</glyph>
<glyph name="ae" format="1">
  <advance width="696"/>
  <unicode hex="00E6"/>
  <outline>
    <contour>
      <point x="619" y="49" type="line"/>
      <point x="585" y="22"/>
      <point x="496" y="-10"/>
      <point x="451" y="-10" type="qcurve"/>
      <point x="407" y="-10"/>
      <point x="335" y="21"/>
      <point x="309" y="48" type="qcurve"/>
      <point x="279" y="21"/>
      <point x="193" y="-8"/>
      <point x="143" y="-8" type="qcurve"/>
      <point x="105" y="-8"/>
      <point x="54" y="9"/>
      <point x="21" y="38"/>
      <point x="7" y="77"/>
      <point x="7" y="98" type="qcurve"/>
      <point x="7" y="134"/>
      <point x="37" y="186"/>
      <point x="83" y="219"/>
      <point x="137" y="235"/>
      <point x="162" y="235" type="qcurve"/>
      <point x="259" y="235" type="line"/>
      <point x="270" y="281"/>
      <point x="295" y="316" type="qcurve"/>
      <point x="285" y="332"/>
      <point x="245" y="345"/>
      <point x="215" y="345" type="qcurve"/>
      <point x="175" y="345"/>
      <point x="112" y="327"/>
      <point x="87" y="314" type="qcurve"/>
      <point x="60" y="380" type="line"/>
      <point x="96" y="403"/>
      <point x="187" y="429"/>
      <point x="237" y="429" type="qcurve"/>
      <point x="280" y="429"/>
      <point x="342" y="404"/>
      <point x="359" y="382" type="qcurve"/>
      <point x="390" y="405"/>
      <point x="463" y="429"/>
      <point x="501" y="429" type="qcurve"/>
      <point x="572" y="429"/>
      <point x="667" y="344"/>
      <point x="681" y="275" type="qcurve"/>
      <point x="649" y="264"/>
      <point x="565" y="232"/>
      <point x="475" y="197"/>
      <point x="385" y="163"/>
      <point x="346" y="149" type="qcurve"/>
      <point x="359" y="115"/>
      <point x="419" y="74"/>
      <point x="459" y="74" type="qcurve"/>
      <point x="486" y="74"/>
      <point x="543" y="94"/>
      <point x="563" y="111" type="qcurve"/>
    </contour>
    <contour>
      <point x="577" y="295" type="qcurve"/>
      <point x="568" y="320"/>
      <point x="519" y="345"/>
      <point x="492" y="345" type="qcurve"/>
      <point x="463" y="345"/>
      <point x="409" y="322"/>
      <point x="368" y="283"/>
      <point x="342" y="234"/>
      <point x="340" y="207" type="qcurve"/>
      <point x="340" y="203" type="line"/>
      <point x="368" y="213"/>
      <point x="431" y="238"/>
      <point x="494" y="263"/>
      <point x="553" y="286"/>
    </contour>
    <contour>
      <point x="87" y="115" type="qcurve"/>
      <point x="87" y="91"/>
      <point x="130" y="74"/>
      <point x="159" y="74" type="qcurve"/>
      <point x="185" y="74"/>
      <point x="249" y="83"/>
      <point x="273" y="100" type="qcurve"/>
      <point x="257" y="135"/>
      <point x="254" y="173" type="qcurve"/>
      <point x="198" y="173" type="line"/>
      <point x="165" y="173"/>
      <point x="123" y="163"/>
      <point x="97" y="147"/>
      <point x="87" y="126"/>
    </contour>
  </outline>
</glyph>
<glyph name="ccedilla" format="1">
  <advance width="413"/>
  <unicode hex="00E7"/>
  <outline>
    <contour>
      <point x="320" y="103" type="qcurve"/>
      <point x="332" y="86"/>
      <point x="353" y="55"/>
      <point x="364" y="38" type="qcurve"/>
      <point x="334" y="17"/>
      <point x="262" y="-9"/>
      <point x="223" y="-10" type="qcurve"/>
      <point x="221" y="-24"/>
      <point x="228" y="-39"/>
      <point x="240" y="-50"/>
      <point x="253" y="-57"/>
      <point x="259" y="-62" type="qcurve"/>
      <point x="275" y="-75"/>
      <point x="289" y="-110"/>
      <point x="289" y="-130" type="qcurve"/>
      <point x="289" y="-154"/>
      <point x="272" y="-200"/>
      <point x="241" y="-235"/>
      <point x="195" y="-257"/>
      <point x="165" y="-257" type="qcurve"/>
      <point x="130" y="-257"/>
      <point x="75" y="-218"/>
      <point x="66" y="-178" type="qcurve"/>
      <point x="80" y="-172"/>
      <point x="106" y="-159"/>
      <point x="120" y="-152" type="qcurve"/>
      <point x="122" y="-168"/>
      <point x="146" y="-189"/>
      <point x="165" y="-189" type="qcurve"/>
      <point x="192" y="-189"/>
      <point x="221" y="-152"/>
      <point x="221" y="-128" type="qcurve"/>
      <point x="221" y="-110"/>
      <point x="202" y="-91"/>
      <point x="179" y="-72"/>
      <point x="163" y="-46"/>
      <point x="166" y="-22" type="qcurve"/>
      <point x="167" y="-4" type="line"/>
      <point x="135" y="4"/>
      <point x="81" y="40"/>
      <point x="43" y="91"/>
      <point x="22" y="153"/>
      <point x="22" y="188" type="qcurve"/>
      <point x="22" y="237"/>
      <point x="63" y="325"/>
      <point x="132" y="391"/>
      <point x="223" y="429"/>
      <point x="273" y="429" type="qcurve"/>
      <point x="315" y="429"/>
      <point x="382" y="403"/>
      <point x="409" y="381" type="qcurve"/>
      <point x="394" y="364"/>
      <point x="362" y="333"/>
      <point x="346" y="316" type="qcurve"/>
      <point x="331" y="330"/>
      <point x="289" y="345"/>
      <point x="263" y="345" type="qcurve"/>
      <point x="230" y="345"/>
      <point x="173" y="322"/>
      <point x="132" y="281"/>
      <point x="108" y="226"/>
      <point x="108" y="195" type="qcurve"/>
      <point x="108" y="144"/>
      <point x="173" y="74"/>
      <point x="229" y="74" type="qcurve"/>
      <point x="255" y="74"/>
      <point x="301" y="89"/>
    </contour>
  </outline>
</glyph>
<glyph name="igrave" format="1">
  <advance width="273"/>
  <unicode hex="00EC"/>
  <outline>
    <contour>
      <point x="214" y="0" type="line"/>
      <point x="4" y="0" type="line"/>
      <point x="13" y="74" type="line"/>
      <point x="72" y="74" type="line"/>
      <point x="74" y="91" type="line"/>
      <point x="105" y="344" type="line"/>
      <point x="46" y="344" type="line"/>
      <point x="55" y="418" type="line"/>
      <point x="200" y="418" type="line"/>
      <point x="159" y="89" type="line"/>
      <point x="157" y="74" type="line"/>
      <point x="223" y="74" type="line"/>
    </contour>
    <contour>
      <point x="161" y="620" type="line"/>
      <point x="236" y="486" type="line"/>
      <point x="172" y="486" type="line"/>
      <point x="146" y="519"/>
      <point x="94" y="587"/>
      <point x="69" y="620" type="qcurve"/>
    </contour>
  </outline>
</glyph>
<glyph name="iacute" format="1">
  <advance width="273"/>
  <unicode hex="00ED"/>
  <outline>
    <contour>
      <point x="214" y="0" type="line"/>
      <point x="4" y="0" type="line"/>
      <point x="13" y="74" type="line"/>
      <point x="72" y="74" type="line"/>
      <point x="74" y="91" type="line"/>
      <point x="105" y="344" type="line"/>
      <point x="46" y="344" type="line"/>
      <point x="55" y="418" type="line"/>
      <point x="200" y="418" type="line"/>
      <point x="159" y="89" type="line"/>
      <point x="157" y="74" type="line"/>
      <point x="223" y="74" type="line"/>
    </contour>
    <contour>
      <point x="96" y="486" type="line"/>
      <point x="204" y="620" type="line"/>
      <point x="296" y="620" type="line"/>
      <point x="160" y="486" type="line"/>
    </contour>
  </outline>
</glyph>
<glyph name="icircumflex" format="1">
  <advance width="273"/>
  <unicode hex="00EE"/>
  <outline>
    <contour>
      <point x="214" y="0" type="line"/>
      <point x="4" y="0" type="line"/>
      <point x="13" y="74" type="line"/>
      <point x="72" y="74" type="line"/>
      <point x="74" y="91" type="line"/>
      <point x="105" y="344" type="line"/>
      <point x="46" y="344" type="line"/>
      <point x="55" y="418" type="line"/>
      <point x="200" y="418" type="line"/>
      <point x="159" y="89" type="line"/>
      <point x="157" y="74" type="line"/>
      <point x="223" y="74" type="line"/>
    </contour>
    <contour>
      <point x="181" y="630" type="qcurve"/>
      <point x="203" y="600"/>
      <point x="223" y="573" type="qcurve"/>
      <point x="240" y="550"/>
      <point x="275" y="501"/>
      <point x="286" y="486" type="qcurve"/>
      <point x="221" y="486" type="line"/>
      <point x="170" y="539" type="line"/>
      <point x="106" y="486" type="line"/>
      <point x="42" y="486" type="line"/>
      <point x="56" y="500"/>
      <point x="102" y="550"/>
      <point x="125" y="573" type="qcurve"/>
      <point x="151" y="600"/>
    </contour>
  </outline>
</glyph>
<glyph name="ocircumflex" format="1">
  <advance width="510"/>
  <unicode hex="00F4"/>
  <outline>
    <contour>
      <point x="24" y="210" type="qcurve"/>
      <point x="30" y="256"/>
      <point x="73" y="337"/>
      <point x="140" y="395"/>
      <point x="227" y="429"/>
      <point x="275" y="429" type="qcurve"/>
      <point x="319" y="429"/>
      <point x="390" y="399"/>
      <point x="441" y="347"/>
      <point x="469" y="276"/>
      <point x="469" y="235" type="qcurve"/>
      <point x="469" y="184"/>
      <point x="431" y="94"/>
      <point x="363" y="28"/>
      <point x="272" y="-10"/>
      <point x="218" y="-10" type="qcurve"/>
      <point x="171" y="-10"/>
      <point x="94" y="21"/>
      <point x="41" y="78"/>
      <point x="18" y="160"/>
    </contour>
    <contour>
      <point x="109" y="209" type="qcurve"/>
      <point x="106" y="180"/>
      <point x="120" y="131"/>
      <point x="152" y="95"/>
      <point x="199" y="74"/>
      <point x="228" y="74" type="qcurve"/>
      <point x="259" y="74"/>
      <point x="315" y="97"/>
      <point x="357" y="137"/>
      <point x="381" y="191"/>
      <point x="381" y="223" type="qcurve"/>
      <point x="381" y="276"/>
      <point x="315" y="345"/>
      <point x="261" y="345" type="qcurve"/>
      <point x="232" y="345"/>
      <point x="179" y="324"/>
      <point x="139" y="288"/>
      <point x="112" y="238"/>
    </contour>
    <contour>
      <point x="301" y="630" type="qcurve"/>
      <point x="323" y="600"/>
      <point x="343" y="573" type="qcurve"/>
      <point x="360" y="550"/>
      <point x="395" y="501"/>
      <point x="406" y="486" type="qcurve"/>
      <point x="341" y="486" type="line"/>
      <point x="290" y="539" type="line"/>
      <point x="226" y="486" type="line"/>
      <point x="162" y="486" type="line"/>
      <point x="176" y="500"/>
      <point x="222" y="550"/>
      <point x="245" y="573" type="qcurve"/>
      <point x="271" y="600"/>
    </contour>
  </outline>
</glyph>
<glyph name="ucircumflex" format="1">
  <advance width="565"/>
  <unicode hex="00FB"/>
  <outline>
    <contour>
      <point x="398" y="330" type="line"/>
      <point x="400" y="344" type="line"/>
      <point x="334" y="344" type="line"/>
      <point x="343" y="418" type="line"/>
      <point x="494" y="418" type="line"/>
      <point x="483" y="327" type="line"/>
      <point x="452" y="74" type="line"/>
      <point x="511" y="74" type="line"/>
      <point x="502" y="0" type="line"/>
      <point x="372" y="0" type="line"/>
      <point x="374" y="107" type="line"/>
      <point x="346" y="56"/>
      <point x="254" y="-10"/>
      <point x="190" y="-10" type="qcurve"/>
      <point x="126" y="-10"/>
      <point x="59" y="59"/>
      <point x="64" y="115" type="qcurve"/>
      <point x="92" y="344" type="line"/>
      <point x="34" y="344" type="line"/>
      <point x="43" y="418" type="line"/>
      <point x="187" y="418" type="line"/>
      <point x="176" y="324" type="line"/>
      <point x="175" y="324" type="line"/>
      <point x="154" y="153" type="line"/>
      <point x="152" y="122"/>
      <point x="188" y="78"/>
      <point x="231" y="75" type="qcurve"/>
      <point x="260" y="75"/>
      <point x="313" y="96"/>
      <point x="353" y="132"/>
      <point x="380" y="182"/>
      <point x="384" y="212" type="qcurve"/>
      <point x="399" y="330" type="line"/>
    </contour>
    <contour>
      <point x="324" y="630" type="qcurve"/>
      <point x="346" y="600"/>
      <point x="366" y="573" type="qcurve"/>
      <point x="383" y="550"/>
      <point x="418" y="501"/>
      <point x="429" y="486" type="qcurve"/>
      <point x="364" y="486" type="line"/>
      <point x="313" y="539" type="line"/>
      <point x="249" y="486" type="line"/>
      <point x="185" y="486" type="line"/>
      <point x="199" y="500"/>
      <point x="245" y="550"/>
      <point x="268" y="573" type="qcurve"/>
      <point x="294" y="600"/>
    </contour>
  </outline>
</glyph>
<glyph name="ydieresis" format="1">
  <advance width="543"/>
  <unicode hex="00FF"/>
  <outline>
    <contour>
      <point x="33" y="-127" type="line"/>
      <point x="107" y="-127" type="line"/>
      <point x="130" y="-88"/>
      <point x="178" y="-6"/>
      <point x="198" y="26" type="qcurve"/>
      <point x="188" y="50"/>
      <point x="160" y="127"/>
      <point x="128" y="216"/>
      <point x="95" y="307"/>
      <point x="81" y="346" type="qcurve"/>
      <point x="15" y="346" type="line"/>
      <point x="24" y="419" type="line"/>
      <point x="241" y="419" type="line"/>
      <point x="232" y="346" type="line"/>
      <point x="175" y="346" type="line"/>
      <point x="192" y="300"/>
      <point x="220" y="219"/>
      <point x="240" y="155"/>
      <point x="251" y="113"/>
      <point x="251" y="107" type="qcurve"/>
      <point x="252" y="113"/>
      <point x="273" y="155"/>
      <point x="309" y="218"/>
      <point x="356" y="300"/>
      <point x="384" y="345" type="qcurve"/>
      <point x="329" y="345" type="line"/>
      <point x="338" y="419" type="line"/>
      <point x="552" y="419" type="line"/>
      <point x="543" y="345" type="line"/>
      <point x="478" y="345" type="line"/>
      <point x="192" y="-127" type="line"/>
      <point x="264" y="-127" type="line"/>
      <point x="255" y="-201" type="line"/>
      <point x="24" y="-201" type="line"/>
    </contour>
    <contour>
      <point x="339" y="524" type="qcurve"/>
      <point x="339" y="537"/>
      <point x="351" y="560"/>
      <point x="369" y="577"/>
      <point x="392" y="586"/>
      <point x="404" y="586" type="qcurve"/>
      <point x="422" y="586"/>
      <point x="452" y="557"/>
      <point x="452" y="535" type="qcurve"/>
      <point x="452" y="507"/>
      <point x="411" y="473"/>
      <point x="389" y="473" type="qcurve"/>
      <point x="369" y="473"/>
      <point x="339" y="501"/>
    </contour>
    <contour>
      <point x="150" y="524" type="qcurve"/>
      <point x="150" y="551"/>
      <point x="191" y="586"/>
      <point x="214" y="586" type="qcurve"/>
      <point x="232" y="586"/>
      <point x="262" y="557"/>
      <point x="262" y="535" type="qcurve"/>
      <point x="262" y="507"/>
      <point x="221" y="473"/>
      <point x="200" y="473" type="qcurve"/>
      <point x="180" y="473"/>
      <point x="150" y="501"/>
    </contour>
  </outline>
</glyph>
<glyph name="amacron" format="1">
  <advance width="567"/>
  <unicode hex="0101"/>
  <outline>
    <contour>
      <point x="454" y="74" type="line"/>
      <point x="513" y="74" type="line"/>
      <point x="504" y="0" type="line"/>
      <point x="359" y="0" type="line"/>
      <point x="363" y="32" type="line"/>
      <point x="364" y="37"/>
      <point x="365" y="49"/>
      <point x="365" y="53" type="qcurve"/>
      <point x="360" y="45"/>
      <point x="335" y="23"/>
      <point x="298" y="4"/>
      <point x="248" y="-10"/>
      <point x="217" y="-10" type="qcurve"/>
      <point x="172" y="-10"/>
      <point x="100" y="21"/>
      <point x="49" y="73"/>
      <point x="21" y="144"/>
      <point x="21" y="183" type="qcurve"/>
      <point x="21" y="232"/>
      <point x="63" y="322"/>
      <point x="132" y="389"/>
      <point x="222" y="429"/>
      <point x="270" y="429" type="qcurve"/>
      <point x="300" y="429"/>
      <point x="347" y="414"/>
      <point x="381" y="392"/>
      <point x="400" y="368"/>
      <point x="403" y="359" type="qcurve"/>
      <point x="405" y="373"/>
      <point x="411" y="404"/>
      <point x="414" y="418" type="qcurve"/>
      <point x="497" y="418" type="line"/>
    </contour>
    <contour>
      <point x="108" y="195" type="qcurve"/>
      <point x="108" y="169"/>
      <point x="126" y="125"/>
      <point x="158" y="93"/>
      <point x="203" y="74"/>
      <point x="230" y="74" type="qcurve"/>
      <point x="263" y="74"/>
      <point x="319" y="98"/>
      <point x="361" y="139"/>
      <point x="385" y="194"/>
      <point x="385" y="225" type="qcurve"/>
      <point x="385" y="276"/>
      <point x="319" y="345"/>
      <point x="263" y="345" type="qcurve"/>
      <point x="231" y="345"/>
      <point x="174" y="322"/>
      <point x="132" y="281"/>
      <point x="108" y="226"/>
    </contour>
    <contour>
      <point x="179" y="483" type="line"/>
      <point x="186" y="541" type="line"/>
      <point x="419" y="541" type="line"/>
      <point x="412" y="483" type="line"/>
    </contour>
  </outline>
</glyph>
<glyph name="Aogonek" format="1">
  <advance width="747"/>
  <unicode hex="0104"/>
  <outline>
    <contour>
      <point x="68" y="95" type="line"/>
      <point x="432" y="759" type="line"/>
      <point x="632" y="95" type="line"/>
      <point x="720" y="95" type="line"/>
      <point x="708" y="0" type="line"/>
      <point x="609" y="0" type="line"/>
      <point x="604" y="-36" type="line"/>
      <point x="602" y="-54"/>
      <point x="576" y="-74"/>
      <point x="547" y="-93"/>
      <point x="523" y="-119"/>
      <point x="523" y="-142" type="qcurve"/>
      <point x="523" y="-162"/>
      <point x="544" y="-189"/>
      <point x="566" y="-189" type="qcurve"/>
      <point x="585" y="-189"/>
      <point x="613" y="-168"/>
      <point x="621" y="-152" type="qcurve"/>
      <point x="632" y="-159"/>
      <point x="656" y="-172"/>
      <point x="667" y="-178" type="qcurve"/>
      <point x="649" y="-218"/>
      <point x="584" y="-257"/>
      <point x="549" y="-257" type="qcurve"/>
      <point x="525" y="-257"/>
      <point x="489" y="-240"/>
      <point x="465" y="-213"/>
      <point x="453" y="-177"/>
      <point x="453" y="-158" type="qcurve"/>
      <point x="453" y="-132"/>
      <point x="473" y="-83"/>
      <point x="503" y="-62" type="qcurve"/>
      <point x="510" y="-57"/>
      <point x="526" y="-50"/>
      <point x="540" y="-39"/>
      <point x="550" y="-22"/>
      <point x="552" y="-7" type="qcurve"/>
      <point x="553" y="0" type="line"/>
      <point x="439" y="0" type="line"/>
      <point x="451" y="95" type="line"/>
      <point x="525" y="95" type="line"/>
      <point x="492" y="208" type="line"/>
      <point x="235" y="208" type="line"/>
      <point x="175" y="95" type="line"/>
      <point x="250" y="95" type="line"/>
      <point x="238" y="0" type="line"/>
      <point x="-31" y="0" type="line"/>
      <point x="-19" y="95" type="line"/>
    </contour>
    <contour>
      <point x="285" y="300" type="line"/>
      <point x="466" y="300" type="line"/>
      <point x="410" y="494" type="line"/>
      <point x="408" y="501"/>
      <point x="407" y="508" type="qcurve"/>
      <point x="406" y="514"/>
      <point x="404" y="526"/>
      <point x="404" y="531" type="qcurve"/>
      <point x="402" y="526"/>
      <point x="397" y="514"/>
      <point x="395" y="508" type="qcurve"/>
      <point x="392" y="501"/>
      <point x="389" y="494" type="qcurve"/>
    </contour>
  </outline>
</glyph>
<glyph name="aogonek" format="1">
  <advance width="568"/>
  <unicode hex="0105"/>
  <outline>
    <contour>
      <point x="455" y="74" type="line"/>
      <point x="514" y="74" type="line"/>
      <point x="505" y="0" type="line"/>
      <point x="360" y="0" type="line"/>
      <point x="364" y="32" type="line"/>
      <point x="365" y="37"/>
      <point x="366" y="49"/>
      <point x="366" y="53" type="qcurve"/>
      <point x="361" y="45"/>
      <point x="336" y="23"/>
      <point x="299" y="4"/>
      <point x="249" y="-10"/>
      <point x="218" y="-10" type="qcurve"/>
      <point x="173" y="-10"/>
      <point x="101" y="21"/>
      <point x="50" y="73"/>
      <point x="22" y="144"/>
      <point x="22" y="183" type="qcurve"/>
      <point x="22" y="232"/>
      <point x="64" y="322"/>
      <point x="133" y="389"/>
      <point x="223" y="429"/>
      <point x="271" y="429" type="qcurve"/>
      <point x="301" y="429"/>
      <point x="348" y="414"/>
      <point x="382" y="392"/>
      <point x="401" y="368"/>
      <point x="404" y="359" type="qcurve"/>
      <point x="406" y="373"/>
      <point x="412" y="404"/>
      <point x="415" y="418" type="qcurve"/>
      <point x="498" y="418" type="line"/>
    </contour>
    <contour>
      <point x="109" y="195" type="qcurve"/>
      <point x="109" y="169"/>
      <point x="127" y="125"/>
      <point x="159" y="93"/>
      <point x="204" y="74"/>
      <point x="231" y="74" type="qcurve"/>
      <point x="264" y="74"/>
      <point x="320" y="98"/>
      <point x="362" y="139"/>
      <point x="386" y="194"/>
      <point x="386" y="225" type="qcurve"/>
      <point x="386" y="276"/>
      <point x="320" y="345"/>
      <point x="264" y="345" type="qcurve"/>
      <point x="232" y="345"/>
      <point x="175" y="322"/>
      <point x="133" y="281"/>
      <point x="109" y="226"/>
    </contour>
    <contour>
      <point x="414" y="0" type="line"/>
      <point x="358" y="0" type="line"/>
      <point x="357" y="-7" type="line"/>
      <point x="355" y="-22"/>
      <point x="345" y="-39"/>
      <point x="331" y="-50"/>
      <point x="315" y="-57"/>
      <point x="308" y="-62" type="qcurve"/>
      <point x="278" y="-83"/>
      <point x="258" y="-132"/>
      <point x="258" y="-158" type="qcurve"/>
      <point x="258" y="-177"/>
      <point x="270" y="-213"/>
      <point x="294" y="-240"/>
      <point x="330" y="-257"/>
      <point x="354" y="-257" type="qcurve"/>
      <point x="389" y="-257"/>
      <point x="454" y="-218"/>
      <point x="472" y="-178" type="qcurve"/>
      <point x="461" y="-172"/>
      <point x="437" y="-159"/>
      <point x="426" y="-152" type="qcurve"/>
      <point x="418" y="-168"/>
      <point x="390" y="-189"/>
      <point x="371" y="-189" type="qcurve"/>
      <point x="349" y="-189"/>
      <point x="328" y="-162"/>
      <point x="328" y="-142" type="qcurve"/>
      <point x="328" y="-119"/>
      <point x="352" y="-93"/>
      <point x="381" y="-74"/>
      <point x="407" y="-54"/>
      <point x="409" y="-36" type="qcurve"/>
    </contour>
  </outline>
</glyph>
<glyph name="ccircumflex" format="1">
  <advance width="426"/>
  <unicode hex="0109"/>
  <outline>
    <contour>
      <point x="409" y="382" type="qcurve"/>
      <point x="399" y="295" type="line"/>
      <point x="326" y="295" type="line"/>
      <point x="330" y="330" type="line"/>
      <point x="301" y="345"/>
      <point x="263" y="345" type="qcurve"/>
      <point x="230" y="345"/>
      <point x="173" y="322"/>
      <point x="132" y="281"/>
      <point x="108" y="226"/>
      <point x="108" y="195" type="qcurve"/>
      <point x="108" y="169"/>
      <point x="125" y="125"/>
      <point x="157" y="93"/>
      <point x="202" y="74"/>
      <point x="230" y="74" type="qcurve"/>
      <point x="256" y="74"/>
      <point x="308" y="89"/>
      <point x="327" y="103" type="qcurve"/>
      <point x="339" y="86"/>
      <point x="360" y="55"/>
      <point x="371" y="38" type="qcurve"/>
      <point x="339" y="15"/>
      <point x="260" y="-10"/>
      <point x="217" y="-10" type="qcurve"/>
      <point x="171" y="-10"/>
      <point x="98" y="21"/>
      <point x="48" y="74"/>
      <point x="22" y="144"/>
      <point x="22" y="184" type="qcurve"/>
      <point x="22" y="235"/>
      <point x="63" y="325"/>
      <point x="132" y="391"/>
      <point x="224" y="429"/>
      <point x="274" y="429" type="qcurve"/>
      <point x="314" y="429"/>
      <point x="383" y="405"/>
    </contour>
    <contour>
      <point x="297" y="669" type="line"/>
      <point x="322" y="623"/>
      <point x="371" y="532"/>
      <point x="397" y="486" type="qcurve"/>
      <point x="332" y="486" type="line"/>
      <point x="329" y="492"/>
      <point x="316" y="513"/>
      <point x="301" y="536"/>
      <point x="287" y="558"/>
      <point x="284" y="564" type="qcurve"/>
      <point x="279" y="558"/>
      <point x="261" y="536"/>
      <point x="241" y="513"/>
      <point x="222" y="492"/>
      <point x="217" y="486" type="qcurve"/>
      <point x="153" y="486" type="line"/>
    </contour>
  </outline>
</glyph>
<glyph name="cdotaccent" format="1">
  <advance width="426"/>
  <unicode hex="010B"/>
  <outline>
    <contour>
      <point x="409" y="382" type="qcurve"/>
      <point x="399" y="295" type="line"/>
      <point x="326" y="295" type="line"/>
      <point x="330" y="330" type="line"/>
      <point x="301" y="345"/>
      <point x="263" y="345" type="qcurve"/>
      <point x="230" y="345"/>
      <point x="173" y="322"/>
      <point x="132" y="281"/>
      <point x="108" y="226"/>
      <point x="108" y="195" type="qcurve"/>
      <point x="108" y="169"/>
      <point x="125" y="125"/>
      <point x="157" y="93"/>
      <point x="202" y="74"/>
      <point x="230" y="74" type="qcurve"/>
      <point x="256" y="74"/>
      <point x="308" y="89"/>
      <point x="327" y="103" type="qcurve"/>
      <point x="339" y="86"/>
      <point x="360" y="55"/>
      <point x="371" y="38" type="qcurve"/>
      <point x="339" y="15"/>
      <point x="260" y="-10"/>
      <point x="217" y="-10" type="qcurve"/>
      <point x="171" y="-10"/>
      <point x="98" y="21"/>
      <point x="48" y="74"/>
      <point x="22" y="144"/>
      <point x="22" y="184" type="qcurve"/>
      <point x="22" y="235"/>
      <point x="63" y="325"/>
      <point x="132" y="391"/>
      <point x="224" y="429"/>
      <point x="274" y="429" type="qcurve"/>
      <point x="314" y="429"/>
      <point x="383" y="405"/>
    </contour>
    <contour>
      <point x="226" y="536" type="qcurve"/>
      <point x="226" y="549"/>
      <point x="237" y="571"/>
      <point x="255" y="588"/>
      <point x="277" y="597"/>
      <point x="288" y="597" type="qcurve"/>
      <point x="306" y="597"/>
      <point x="335" y="569"/>
      <point x="335" y="547" type="qcurve"/>
      <point x="335" y="520"/>
      <point x="296" y="486"/>
      <point x="275" y="486" type="qcurve"/>
      <point x="255" y="486"/>
      <point x="226" y="513"/>
    </contour>
  </outline>
</glyph>
<glyph name="Dcaron" format="1">
  <advance width="753"/>
  <unicode hex="010E"/>
  <outline>
    <contour>
      <point x="365" y="725" type="line"/>
      <point x="464" y="725"/>
      <point x="601" y="668"/>
      <point x="685" y="575"/>
      <point x="723" y="457"/>
      <point x="723" y="397" type="qcurve"/>
      <point x="723" y="305"/>
      <point x="654" y="159"/>
      <point x="540" y="55"/>
      <point x="392" y="0"/>
      <point x="312" y="0" type="qcurve"/>
      <point x="15" y="0" type="line"/>
      <point x="27" y="95" type="line"/>
      <point x="105" y="95" type="line"/>
      <point x="171" y="630" type="line"/>
      <point x="92" y="630" type="line"/>
      <point x="104" y="725" type="line"/>
    </contour>
    <contour>
      <point x="309" y="104" type="line"/>
      <point x="372" y="104"/>
      <point x="484" y="143"/>
      <point x="566" y="216"/>
      <point x="614" y="324"/>
      <point x="614" y="393" type="qcurve"/>
      <point x="614" y="451"/>
      <point x="574" y="537"/>
      <point x="509" y="593"/>
      <point x="425" y="620"/>
      <point x="382" y="620" type="qcurve"/>
      <point x="279" y="620" type="line"/>
      <point x="264" y="491"/>
      <point x="232" y="233"/>
      <point x="215" y="104" type="qcurve"/>
    </contour>
    <contour>
      <point x="407" y="772" type="qcurve"/>
      <point x="384" y="802"/>
      <point x="365" y="829" type="qcurve"/>
      <point x="348" y="852"/>
      <point x="314" y="901"/>
      <point x="304" y="916" type="qcurve"/>
      <point x="368" y="916" type="line"/>
      <point x="419" y="863" type="line"/>
      <point x="483" y="916" type="line"/>
      <point x="547" y="916" type="line"/>
      <point x="533" y="900"/>
      <point x="486" y="852"/>
      <point x="463" y="829" type="qcurve"/>
      <point x="437" y="802"/>
    </contour>
  </outline>
</glyph>
<glyph name="Eogonek" format="1">
  <advance width="663"/>
  <unicode hex="0118"/>
  <outline>
    <contour>
      <point x="535" y="555" type="line"/>
      <point x="544" y="626" type="line"/>
      <point x="280" y="626" type="line"/>
      <point x="254" y="414" type="line"/>
      <point x="580" y="414" type="line"/>
      <point x="568" y="313" type="line"/>
      <point x="241" y="313" type="line"/>
      <point x="215" y="101" type="line"/>
      <point x="494" y="101" type="line"/>
      <point x="504" y="178" type="line"/>
      <point x="606" y="178" type="line"/>
      <point x="591" y="57" type="line"/>
      <point x="584" y="0" type="line"/>
      <point x="15" y="0" type="line"/>
      <point x="27" y="95" type="line"/>
      <point x="105" y="95" type="line"/>
      <point x="171" y="630" type="line"/>
      <point x="92" y="630" type="line"/>
      <point x="104" y="725" type="line"/>
      <point x="658" y="725" type="line"/>
      <point x="647" y="626" type="line"/>
      <point x="646" y="626" type="line"/>
      <point x="638" y="555" type="line"/>
    </contour>
    <contour>
      <point x="583" y="0" type="line"/>
      <point x="527" y="0" type="line"/>
      <point x="526" y="-7" type="line"/>
      <point x="524" y="-22"/>
      <point x="514" y="-39"/>
      <point x="500" y="-50"/>
      <point x="484" y="-57"/>
      <point x="477" y="-62" type="qcurve"/>
      <point x="447" y="-83"/>
      <point x="427" y="-132"/>
      <point x="427" y="-158" type="qcurve"/>
      <point x="427" y="-177"/>
      <point x="439" y="-213"/>
      <point x="463" y="-240"/>
      <point x="499" y="-257"/>
      <point x="523" y="-257" type="qcurve"/>
      <point x="558" y="-257"/>
      <point x="623" y="-218"/>
      <point x="641" y="-178" type="qcurve"/>
      <point x="630" y="-172"/>
      <point x="606" y="-159"/>
      <point x="595" y="-152" type="qcurve"/>
      <point x="587" y="-168"/>
      <point x="559" y="-189"/>
      <point x="540" y="-189" type="qcurve"/>
      <point x="518" y="-189"/>
      <point x="497" y="-162"/>
      <point x="497" y="-142" type="qcurve"/>
      <point x="497" y="-119"/>
      <point x="521" y="-93"/>
      <point x="550" y="-74"/>
      <point x="576" y="-54"/>
      <point x="578" y="-36" type="qcurve"/>
    </contour>
  </outline>
</glyph>
<glyph name="eogonek" format="1">
  <advance width="465"/>
  <unicode hex="0119"/>
  <outline>
    <contour>
      <point x="387" y="49" type="line"/>
      <point x="358" y="26"/>
      <point x="283" y="-4"/>
      <point x="245" y="-8" type="qcurve"/>
      <point x="241" y="-36" type="line"/>
      <point x="239" y="-54"/>
      <point x="213" y="-74"/>
      <point x="184" y="-93"/>
      <point x="160" y="-119"/>
      <point x="160" y="-142" type="qcurve"/>
      <point x="160" y="-162"/>
      <point x="181" y="-189"/>
      <point x="203" y="-189" type="qcurve"/>
      <point x="222" y="-189"/>
      <point x="250" y="-168"/>
      <point x="257" y="-152" type="qcurve"/>
      <point x="268" y="-159"/>
      <point x="293" y="-172"/>
      <point x="304" y="-178" type="qcurve"/>
      <point x="285" y="-218"/>
      <point x="221" y="-257"/>
      <point x="186" y="-257" type="qcurve"/>
      <point x="161" y="-257"/>
      <point x="125" y="-240"/>
      <point x="101" y="-213"/>
      <point x="90" y="-177"/>
      <point x="90" y="-158" type="qcurve"/>
      <point x="90" y="-132"/>
      <point x="110" y="-83"/>
      <point x="140" y="-62" type="qcurve"/>
      <point x="147" y="-57"/>
      <point x="162" y="-50"/>
      <point x="176" y="-39"/>
      <point x="187" y="-22"/>
      <point x="189" y="-8" type="qcurve"/>
      <point x="150" y="-3"/>
      <point x="89" y="31"/>
      <point x="45" y="83"/>
      <point x="22" y="149"/>
      <point x="22" y="186" type="qcurve"/>
      <point x="22" y="236"/>
      <point x="63" y="324"/>
      <point x="132" y="390"/>
      <point x="222" y="429"/>
      <point x="270" y="429" type="qcurve"/>
      <point x="341" y="429"/>
      <point x="436" y="344"/>
      <point x="450" y="275" type="qcurve"/>
      <point x="417" y="264"/>
      <point x="333" y="232"/>
      <point x="243" y="197"/>
      <point x="154" y="163"/>
      <point x="115" y="149" type="qcurve"/>
      <point x="127" y="115"/>
      <point x="187" y="74"/>
      <point x="228" y="74" type="qcurve"/>
      <point x="255" y="74"/>
      <point x="311" y="94"/>
      <point x="331" y="111" type="qcurve"/>
    </contour>
    <contour>
      <point x="346" y="295" type="qcurve"/>
      <point x="336" y="320"/>
      <point x="288" y="345"/>
      <point x="261" y="345" type="qcurve"/>
      <point x="231" y="345"/>
      <point x="178" y="322"/>
      <point x="137" y="283"/>
      <point x="111" y="234"/>
      <point x="109" y="207" type="qcurve"/>
      <point x="109" y="203" type="line"/>
      <point x="136" y="213"/>
      <point x="200" y="238"/>
      <point x="263" y="263"/>
      <point x="322" y="286"/>
    </contour>
  </outline>
</glyph>
<glyph name="Ecaron" format="1">
  <advance width="663"/>
  <unicode hex="011A"/>
  <outline>
    <contour>
      <point x="535" y="555" type="line"/>
      <point x="544" y="626" type="line"/>
      <point x="280" y="626" type="line"/>
      <point x="254" y="414" type="line"/>
      <point x="580" y="414" type="line"/>
      <point x="568" y="313" type="line"/>
      <point x="241" y="313" type="line"/>
      <point x="215" y="101" type="line"/>
      <point x="494" y="101" type="line"/>
      <point x="504" y="178" type="line"/>
      <point x="606" y="178" type="line"/>
      <point x="591" y="57" type="line"/>
      <point x="584" y="0" type="line"/>
      <point x="15" y="0" type="line"/>
      <point x="27" y="95" type="line"/>
      <point x="105" y="95" type="line"/>
      <point x="171" y="630" type="line"/>
      <point x="92" y="630" type="line"/>
      <point x="104" y="725" type="line"/>
      <point x="658" y="725" type="line"/>
      <point x="647" y="626" type="line"/>
      <point x="646" y="626" type="line"/>
      <point x="638" y="555" type="line"/>
    </contour>
    <contour>
      <point x="407" y="772" type="qcurve"/>
      <point x="384" y="802"/>
      <point x="365" y="829" type="qcurve"/>
      <point x="348" y="852"/>
      <point x="314" y="901"/>
      <point x="304" y="916" type="qcurve"/>
      <point x="368" y="916" type="line"/>
      <point x="419" y="863" type="line"/>
      <point x="483" y="916" type="line"/>
      <point x="547" y="916" type="line"/>
      <point x="533" y="900"/>
      <point x="486" y="852"/>
      <point x="463" y="829" type="qcurve"/>
      <point x="437" y="802"/>
    </contour>
  </outline>
</glyph>
<glyph name="ecaron" format="1">
  <advance width="465"/>
  <unicode hex="011B"/>
  <outline>
    <contour>
      <point x="387" y="49" type="line"/>
      <point x="354" y="22"/>
      <point x="265" y="-10"/>
      <point x="220" y="-10" type="qcurve"/>
      <point x="175" y="-10"/>
      <point x="101" y="21"/>
      <point x="50" y="74"/>
      <point x="22" y="145"/>
      <point x="22" y="186" type="qcurve"/>
      <point x="22" y="236"/>
      <point x="63" y="324"/>
      <point x="132" y="390"/>
      <point x="222" y="429"/>
      <point x="270" y="429" type="qcurve"/>
      <point x="341" y="429"/>
      <point x="436" y="344"/>
      <point x="450" y="275" type="qcurve"/>
      <point x="417" y="264"/>
      <point x="333" y="232"/>
      <point x="243" y="197"/>
      <point x="154" y="163"/>
      <point x="115" y="149" type="qcurve"/>
      <point x="127" y="115"/>
      <point x="187" y="74"/>
      <point x="228" y="74" type="qcurve"/>
      <point x="255" y="74"/>
      <point x="311" y="94"/>
      <point x="331" y="111" type="qcurve"/>
    </contour>
    <contour>
      <point x="346" y="295" type="qcurve"/>
      <point x="336" y="320"/>
      <point x="288" y="345"/>
      <point x="261" y="345" type="qcurve"/>
      <point x="231" y="345"/>
      <point x="178" y="322"/>
      <point x="137" y="283"/>
      <point x="111" y="234"/>
      <point x="109" y="207" type="qcurve"/>
      <point x="109" y="203" type="line"/>
      <point x="136" y="213"/>
      <point x="200" y="238"/>
      <point x="263" y="263"/>
      <point x="322" y="286"/>
    </contour>
    <contour>
      <point x="260" y="486" type="qcurve"/>
      <point x="237" y="516"/>
      <point x="218" y="543" type="qcurve"/>
      <point x="201" y="566"/>
      <point x="167" y="615"/>
      <point x="157" y="630" type="qcurve"/>
      <point x="221" y="630" type="line"/>
      <point x="272" y="577" type="line"/>
      <point x="336" y="630" type="line"/>
      <point x="400" y="630" type="line"/>
      <point x="386" y="614"/>
      <point x="339" y="566"/>
      <point x="316" y="543" type="qcurve"/>
      <point x="290" y="516"/>
    </contour>
  </outline>
</glyph>
<glyph name="Gbreve" format="1">
  <advance width="694"/>
  <unicode hex="011E"/>
  <outline>
    <contour>
      <point x="560" y="546" type="line"/>
      <point x="568" y="612" type="line"/>
      <point x="542" y="620"/>
      <point x="486" y="630"/>
      <point x="461" y="630" type="qcurve"/>
      <point x="404" y="630"/>
      <point x="295" y="583"/>
      <point x="210" y="501"/>
      <point x="157" y="392"/>
      <point x="157" y="331" type="qcurve"/>
      <point x="157" y="282"/>
      <point x="190" y="196"/>
      <point x="252" y="132"/>
      <point x="339" y="95"/>
      <point x="393" y="95" type="qcurve"/>
      <point x="414" y="95"/>
      <point x="481" y="104"/>
      <point x="510" y="115" type="qcurve"/>
      <point x="527" y="253" type="line"/>
      <point x="387" y="253" type="line"/>
      <point x="398" y="347" type="line"/>
      <point x="639" y="347" type="line"/>
      <point x="602" y="43" type="line"/>
      <point x="558" y="19"/>
      <point x="439" y="-8"/>
      <point x="379" y="-8" type="qcurve"/>
      <point x="300" y="-8"/>
      <point x="176" y="39"/>
      <point x="91" y="123"/>
      <point x="46" y="239"/>
      <point x="46" y="308" type="qcurve"/>
      <point x="46" y="370"/>
      <point x="80" y="481"/>
      <point x="139" y="575"/>
      <point x="220" y="651"/>
      <point x="315" y="704"/>
      <point x="420" y="733"/>
      <point x="473" y="733" type="qcurve"/>
      <point x="501" y="733"/>
      <point x="559" y="725"/>
      <point x="614" y="711"/>
      <point x="661" y="692"/>
      <point x="678" y="681" type="qcurve"/>
      <point x="662" y="546" type="line"/>
    </contour>
    <contour>
      <point x="465" y="772" type="qcurve"/>
      <point x="432" y="772"/>
      <point x="376" y="796"/>
      <point x="337" y="838"/>
      <point x="318" y="896"/>
      <point x="321" y="929" type="qcurve"/>
      <point x="370" y="929" type="line"/>
      <point x="365" y="881"/>
      <point x="421" y="820"/>
      <point x="470" y="820" type="qcurve"/>
      <point x="520" y="820"/>
      <point x="588" y="881"/>
      <point x="596" y="929" type="qcurve"/>
      <point x="645" y="929" type="line"/>
      <point x="641" y="896"/>
      <point x="608" y="838"/>
      <point x="559" y="796"/>
      <point x="498" y="772"/>
    </contour>
  </outline>
</glyph>
<glyph name="Gdotaccent" format="1">
  <advance width="694"/>
  <unicode hex="0120"/>
  <outline>
    <contour>
      <point x="560" y="546" type="line"/>
      <point x="568" y="612" type="line"/>
      <point x="542" y="620"/>
      <point x="486" y="630"/>
      <point x="461" y="630" type="qcurve"/>
      <point x="404" y="630"/>
      <point x="295" y="583"/>
      <point x="210" y="501"/>
      <point x="157" y="392"/>
      <point x="157" y="331" type="qcurve"/>
      <point x="157" y="282"/>
      <point x="190" y="196"/>
      <point x="252" y="132"/>
      <point x="339" y="95"/>
      <point x="393" y="95" type="qcurve"/>
      <point x="414" y="95"/>
      <point x="481" y="104"/>
      <point x="510" y="115" type="qcurve"/>
      <point x="527" y="253" type="line"/>
      <point x="387" y="253" type="line"/>
      <point x="398" y="347" type="line"/>
      <point x="639" y="347" type="line"/>
      <point x="602" y="43" type="line"/>
      <point x="558" y="19"/>
      <point x="439" y="-8"/>
      <point x="379" y="-8" type="qcurve"/>
      <point x="300" y="-8"/>
      <point x="176" y="39"/>
      <point x="91" y="123"/>
      <point x="46" y="239"/>
      <point x="46" y="308" type="qcurve"/>
      <point x="46" y="370"/>
      <point x="80" y="481"/>
      <point x="139" y="575"/>
      <point x="220" y="651"/>
      <point x="315" y="704"/>
      <point x="420" y="733"/>
      <point x="473" y="733" type="qcurve"/>
      <point x="501" y="733"/>
      <point x="559" y="725"/>
      <point x="614" y="711"/>
      <point x="661" y="692"/>
      <point x="678" y="681" type="qcurve"/>
      <point x="662" y="546" type="line"/>
    </contour>
    <contour>
      <point x="406" y="822" type="qcurve"/>
      <point x="406" y="835"/>
      <point x="417" y="857"/>
      <point x="435" y="874"/>
      <point x="457" y="883"/>
      <point x="468" y="883" type="qcurve"/>
      <point x="486" y="883"/>
      <point x="515" y="855"/>
      <point x="515" y="833" type="qcurve"/>
      <point x="515" y="806"/>
      <point x="476" y="772"/>
      <point x="455" y="772" type="qcurve"/>
      <point x="435" y="772"/>
      <point x="406" y="799"/>
    </contour>
  </outline>
</glyph>
<glyph name="Hcircumflex" format="1">
  <advance width="838"/>
  <unicode hex="0124"/>
  <outline>
    <contour>
      <point x="373" y="725" type="line"/>
      <point x="361" y="630" type="line"/>
      <point x="280" y="630" type="line"/>
      <point x="254" y="417" type="line"/>
      <point x="617" y="417" type="line"/>
      <point x="643" y="630" type="line"/>
      <point x="562" y="630" type="line"/>
      <point x="574" y="725" type="line"/>
      <point x="843" y="725" type="line"/>
      <point x="831" y="630" type="line"/>
      <point x="752" y="630" type="line"/>
      <point x="686" y="95" type="line"/>
      <point x="766" y="95" type="line"/>
      <point x="754" y="0" type="line"/>
      <point x="485" y="0" type="line"/>
      <point x="497" y="95" type="line"/>
      <point x="577" y="95" type="line"/>
      <point x="604" y="313" type="line"/>
      <point x="242" y="313" type="line"/>
      <point x="215" y="95" type="line"/>
      <point x="296" y="95" type="line"/>
      <point x="284" y="0" type="line"/>
      <point x="15" y="0" type="line"/>
      <point x="27" y="95" type="line"/>
      <point x="105" y="95" type="line"/>
      <point x="171" y="630" type="line"/>
      <point x="92" y="630" type="line"/>
      <point x="104" y="725" type="line"/>
    </contour>
    <contour>
      <point x="497" y="917" type="qcurve"/>
      <point x="519" y="887"/>
      <point x="539" y="860" type="qcurve"/>
      <point x="556" y="837"/>
      <point x="591" y="788"/>
      <point x="602" y="773" type="qcurve"/>
      <point x="537" y="773" type="line"/>
      <point x="486" y="826" type="line"/>
      <point x="422" y="773" type="line"/>
      <point x="358" y="773" type="line"/>
      <point x="372" y="787"/>
      <point x="418" y="837"/>
      <point x="441" y="860" type="qcurve"/>
      <point x="467" y="887"/>
    </contour>
  </outline>
</glyph>
<glyph name="hcircumflex" format="1">
  <advance width="565"/>
  <unicode hex="0125"/>
  <outline>
    <contour>
      <point x="170" y="311" type="line"/>
      <point x="199" y="365"/>
      <point x="292" y="429"/>
      <point x="355" y="429" type="qcurve"/>
      <point x="418" y="429"/>
      <point x="485" y="359"/>
      <point x="480" y="304" type="qcurve"/>
      <point x="454" y="97" type="line"/>
      <point x="451" y="74" type="line"/>
      <point x="510" y="74" type="line"/>
      <point x="501" y="0" type="line"/>
      <point x="291" y="0" type="line"/>
      <point x="300" y="74" type="line"/>
      <point x="366" y="74" type="line"/>
      <point x="368" y="94" type="line"/>
      <point x="390" y="265" type="line"/>
      <point x="392" y="297"/>
      <point x="357" y="342"/>
      <point x="314" y="344" type="qcurve"/>
      <point x="284" y="344"/>
      <point x="232" y="323"/>
      <point x="191" y="287"/>
      <point x="164" y="237"/>
      <point x="161" y="207" type="qcurve"/>
      <point x="146" y="89" type="line"/>
      <point x="144" y="74" type="line"/>
      <point x="210" y="74" type="line"/>
      <point x="201" y="0" type="line"/>
      <point x="-9" y="0" type="line"/>
      <point x="0" y="74" type="line"/>
      <point x="59" y="74" type="line"/>
      <point x="61" y="91" type="line"/>
      <point x="136" y="703" type="line"/>
      <point x="77" y="703" type="line"/>
      <point x="86" y="777" type="line"/>
      <point x="228" y="777" type="line"/>
    </contour>
    <contour>
      <point x="385" y="951" type="line"/>
      <point x="410" y="905"/>
      <point x="459" y="814"/>
      <point x="485" y="768" type="qcurve"/>
      <point x="420" y="768" type="line"/>
      <point x="417" y="774"/>
      <point x="404" y="795"/>
      <point x="389" y="818"/>
      <point x="375" y="840"/>
      <point x="372" y="846" type="qcurve"/>
      <point x="367" y="840"/>
      <point x="349" y="818"/>
      <point x="329" y="795"/>
      <point x="310" y="774"/>
      <point x="305" y="768" type="qcurve"/>
      <point x="241" y="768" type="line"/>
    </contour>
  </outline>
</glyph>
<glyph name="Hbar" format="1">
  <advance width="839"/>
  <unicode hex="0126"/>
  <outline>
    <contour>
      <point x="374" y="725" type="line"/>
      <point x="362" y="630" type="line"/>
      <point x="281" y="630" type="line"/>
      <point x="271" y="548" type="line"/>
      <point x="634" y="548" type="line"/>
      <point x="644" y="630" type="line"/>
      <point x="563" y="630" type="line"/>
      <point x="575" y="725" type="line"/>
      <point x="844" y="725" type="line"/>
      <point x="832" y="630" type="line"/>
      <point x="753" y="630" type="line"/>
      <point x="743" y="548" type="line"/>
      <point x="806" y="548" type="line"/>
      <point x="799" y="490" type="line"/>
      <point x="736" y="490" type="line"/>
      <point x="687" y="95" type="line"/>
      <point x="767" y="95" type="line"/>
      <point x="755" y="0" type="line"/>
      <point x="486" y="0" type="line"/>
      <point x="498" y="95" type="line"/>
      <point x="578" y="95" type="line"/>
      <point x="605" y="313" type="line"/>
      <point x="243" y="313" type="line"/>
      <point x="216" y="95" type="line"/>
      <point x="297" y="95" type="line"/>
      <point x="285" y="0" type="line"/>
      <point x="16" y="0" type="line"/>
      <point x="28" y="95" type="line"/>
      <point x="106" y="95" type="line"/>
      <point x="155" y="490" type="line"/>
      <point x="62" y="490" type="line"/>
      <point x="69" y="548" type="line"/>
      <point x="162" y="548" type="line"/>
      <point x="172" y="630" type="line"/>
      <point x="93" y="630" type="line"/>
      <point x="105" y="725" type="line"/>
    </contour>
    <contour>
      <point x="618" y="417" type="line"/>
      <point x="627" y="490" type="line"/>
      <point x="264" y="490" type="line"/>
      <point x="255" y="417" type="line"/>
    </contour>
  </outline>
</glyph>
<glyph name="Imacron" format="1">
  <advance width="367"/>
  <unicode hex="012A"/>
  <outline>
    <contour>
      <point x="372" y="725" type="line"/>
      <point x="360" y="630" type="line"/>
      <point x="280" y="630" type="line"/>
      <point x="214" y="95" type="line"/>
      <point x="295" y="95" type="line"/>
      <point x="283" y="0" type="line"/>
      <point x="14" y="0" type="line"/>
      <point x="26" y="95" type="line"/>
      <point x="105" y="95" type="line"/>
      <point x="171" y="630" type="line"/>
      <point x="91" y="630" type="line"/>
      <point x="103" y="725" type="line"/>
    </contour>
    <contour>
      <point x="132" y="785" type="line"/>
      <point x="139" y="843" type="line"/>
      <point x="372" y="843" type="line"/>
      <point x="365" y="785" type="line"/>
    </contour>
  </outline>
</glyph>
<glyph name="Iogonek" format="1">
  <advance width="366"/>
  <unicode hex="012E"/>
  <outline>
    <contour>
      <point x="372" y="725" type="line"/>
      <point x="360" y="630" type="line"/>
      <point x="280" y="630" type="line"/>
      <point x="214" y="95" type="line"/>
      <point x="295" y="95" type="line"/>
      <point x="283" y="0" type="line"/>
      <point x="14" y="0" type="line"/>
      <point x="26" y="95" type="line"/>
      <point x="105" y="95" type="line"/>
      <point x="171" y="630" type="line"/>
      <point x="91" y="630" type="line"/>
      <point x="103" y="725" type="line"/>
    </contour>
    <contour>
      <point x="228" y="0" type="line"/>
      <point x="172" y="0" type="line"/>
      <point x="171" y="-7" type="line"/>
      <point x="169" y="-22"/>
      <point x="159" y="-39"/>
      <point x="145" y="-50"/>
      <point x="129" y="-57"/>
      <point x="122" y="-62" type="qcurve"/>
      <point x="92" y="-83"/>
      <point x="72" y="-132"/>
      <point x="72" y="-158" type="qcurve"/>
      <point x="72" y="-177"/>
      <point x="84" y="-213"/>
      <point x="108" y="-240"/>
      <point x="144" y="-257"/>
      <point x="168" y="-257" type="qcurve"/>
      <point x="203" y="-257"/>
      <point x="268" y="-218"/>
      <point x="286" y="-178" type="qcurve"/>
      <point x="275" y="-172"/>
      <point x="251" y="-159"/>
      <point x="240" y="-152" type="qcurve"/>
      <point x="232" y="-168"/>
      <point x="204" y="-189"/>
      <point x="185" y="-189" type="qcurve"/>
      <point x="163" y="-189"/>
      <point x="142" y="-162"/>
      <point x="142" y="-142" type="qcurve"/>
      <point x="142" y="-119"/>
      <point x="166" y="-93"/>
      <point x="195" y="-74"/>
      <point x="221" y="-54"/>
      <point x="223" y="-36" type="qcurve"/>
    </contour>
  </outline>
</glyph>
<glyph name="iogonek" format="1">
  <advance width="272"/>
  <unicode hex="012F"/>
  <outline>
    <contour>
      <point x="158" y="89" type="line"/>
      <point x="156" y="74" type="line"/>
      <point x="222" y="74" type="line"/>
      <point x="213" y="0" type="line"/>
      <point x="3" y="0" type="line"/>
      <point x="12" y="74" type="line"/>
      <point x="71" y="74" type="line"/>
      <point x="73" y="91" type="line"/>
      <point x="104" y="344" type="line"/>
      <point x="45" y="344" type="line"/>
      <point x="54" y="418" type="line"/>
      <point x="199" y="418" type="line"/>
    </contour>
    <contour>
      <point x="117" y="0" type="line"/>
      <point x="61" y="0" type="line"/>
      <point x="60" y="-7" type="line"/>
      <point x="58" y="-22"/>
      <point x="48" y="-39"/>
      <point x="34" y="-50"/>
      <point x="18" y="-57"/>
      <point x="11" y="-62" type="qcurve"/>
      <point x="-19" y="-83"/>
      <point x="-39" y="-132"/>
      <point x="-39" y="-158" type="qcurve"/>
      <point x="-39" y="-177"/>
      <point x="-27" y="-213"/>
      <point x="-3" y="-240"/>
      <point x="33" y="-257"/>
      <point x="57" y="-257" type="qcurve"/>
      <point x="92" y="-257"/>
      <point x="157" y="-218"/>
      <point x="175" y="-178" type="qcurve"/>
      <point x="164" y="-172"/>
      <point x="140" y="-159"/>
      <point x="129" y="-152" type="qcurve"/>
      <point x="121" y="-168"/>
      <point x="93" y="-189"/>
      <point x="74" y="-189" type="qcurve"/>
      <point x="52" y="-189"/>
      <point x="31" y="-162"/>
      <point x="31" y="-142" type="qcurve"/>
      <point x="31" y="-119"/>
      <point x="55" y="-93"/>
      <point x="84" y="-74"/>
      <point x="110" y="-54"/>
      <point x="112" y="-36" type="qcurve"/>
    </contour>
    <contour>
      <point x="122" y="573" type="qcurve"/>
      <point x="122" y="599"/>
      <point x="161" y="634"/>
      <point x="184" y="634" type="qcurve"/>
      <point x="202" y="634"/>
      <point x="231" y="606"/>
      <point x="231" y="584" type="qcurve"/>
      <point x="231" y="557"/>
      <point x="191" y="523"/>
      <point x="170" y="523" type="qcurve"/>
      <point x="151" y="523"/>
      <point x="122" y="550"/>
    </contour>
  </outline>
</glyph>
<glyph name="dotlessi" format="1">
  <advance width="273"/>
  <unicode hex="0131"/>
  <outline>
    <contour>
      <point x="200" y="418" type="line"/>
      <point x="159" y="89" type="line"/>
      <point x="157" y="74" type="line"/>
      <point x="223" y="74" type="line"/>
      <point x="214" y="0" type="line"/>
      <point x="4" y="0" type="line"/>
      <point x="13" y="74" type="line"/>
      <point x="72" y="74" type="line"/>
      <point x="74" y="91" type="line"/>
      <point x="105" y="344" type="line"/>
      <point x="46" y="344" type="line"/>
      <point x="55" y="418" type="line"/>
    </contour>
  </outline>
</glyph>
<glyph name="jcircumflex" format="1">
  <advance width="239"/>
  <unicode hex="0135"/>
  <outline>
    <contour>
      <point x="176" y="344" type="line"/>
      <point x="175" y="344" type="line"/>
      <point x="133" y="-1" type="line"/>
      <point x="125" y="-69"/>
      <point x="67" y="-169"/>
      <point x="22" y="-202" type="qcurve"/>
      <point x="8" y="-185"/>
      <point x="-17" y="-155"/>
      <point x="-30" y="-138" type="qcurve"/>
      <point x="2" y="-115"/>
      <point x="43" y="-46"/>
      <point x="48" y="2" type="qcurve"/>
      <point x="90" y="344" type="line"/>
      <point x="31" y="344" type="line"/>
      <point x="40" y="418" type="line"/>
      <point x="185" y="418" type="line"/>
    </contour>
    <contour>
      <point x="155" y="669" type="line"/>
      <point x="180" y="623"/>
      <point x="229" y="532"/>
      <point x="255" y="486" type="qcurve"/>
      <point x="190" y="486" type="line"/>
      <point x="187" y="492"/>
      <point x="174" y="513"/>
      <point x="159" y="536"/>
      <point x="145" y="558"/>
      <point x="142" y="564" type="qcurve"/>
      <point x="137" y="558"/>
      <point x="119" y="536"/>
      <point x="99" y="513"/>
      <point x="80" y="492"/>
      <point x="75" y="486" type="qcurve"/>
      <point x="11" y="486" type="line"/>
    </contour>
  </outline>
</glyph>
<glyph name="uni0137" format="1">
  <advance width="497"/>
  <unicode hex="0137"/>
  <outline>
    <contour>
      <point x="289" y="422" type="line"/>
      <point x="482" y="422" type="line"/>
      <point x="476" y="369" type="line"/>
      <point x="432" y="369" type="line"/>
      <point x="282" y="241" type="line"/>
      <point x="383" y="74" type="line"/>
      <point x="453" y="74" type="line"/>
      <point x="444" y="0" type="line"/>
      <point x="329" y="0" type="line"/>
      <point x="329" y="1" type="line"/>
      <point x="300" y="48"/>
      <point x="243" y="138"/>
      <point x="216" y="185" type="qcurve"/>
      <point x="151" y="132" type="line"/>
      <point x="146" y="89" type="line"/>
      <point x="144" y="74" type="line"/>
      <point x="210" y="74" type="line"/>
      <point x="201" y="0" type="line"/>
      <point x="-9" y="0" type="line"/>
      <point x="0" y="74" type="line"/>
      <point x="59" y="74" type="line"/>
      <point x="61" y="91" type="line"/>
      <point x="136" y="703" type="line"/>
      <point x="77" y="703" type="line"/>
      <point x="86" y="777" type="line"/>
      <point x="231" y="777" type="line"/>
      <point x="163" y="232" type="line"/>
      <point x="327" y="369" type="line"/>
      <point x="282" y="369" type="line"/>
    </contour>
    <contour>
      <point x="293" y="-22" type="line"/>
      <point x="279" y="-48"/>
      <point x="259" y="-84"/>
      <point x="241" y="-116"/>
      <point x="221" y="-152"/>
      <point x="207" y="-178" type="qcurve"/>
      <point x="131" y="-178" type="line"/>
      <point x="144" y="-152"/>
      <point x="162" y="-116"/>
      <point x="178" y="-84"/>
      <point x="195" y="-48"/>
      <point x="209" y="-22" type="qcurve"/>
    </contour>
  </outline>
</glyph>
<glyph name="uni013C" format="1">
  <advance width="261"/>
  <unicode hex="013C"/>
  <outline>
    <contour>
      <point x="147" y="89" type="line"/>
      <point x="145" y="74" type="line"/>
      <point x="211" y="74" type="line"/>
      <point x="202" y="0" type="line"/>
      <point x="-8" y="0" type="line"/>
      <point x="1" y="74" type="line"/>
      <point x="60" y="74" type="line"/>
      <point x="62" y="91" type="line"/>
      <point x="137" y="703" type="line"/>
      <point x="78" y="703" type="line"/>
      <point x="87" y="777" type="line"/>
      <point x="232" y="777" type="line"/>
    </contour>
    <contour>
      <point x="131" y="-22" type="line"/>
      <point x="117" y="-48"/>
      <point x="97" y="-84"/>
      <point x="79" y="-116"/>
      <point x="59" y="-152"/>
      <point x="45" y="-178" type="qcurve"/>
      <point x="-31" y="-178" type="line"/>
      <point x="-18" y="-152"/>
      <point x="0" y="-116"/>
      <point x="16" y="-84"/>
      <point x="33" y="-48"/>
      <point x="47" y="-22" type="qcurve"/>
    </contour>
  </outline>
</glyph>
<glyph name="Lcaron" format="1">
  <advance width="619"/>
  <unicode hex="013D"/>
  <outline>
    <contour>
      <point x="373" y="725" type="line"/>
      <point x="361" y="630" type="line"/>
      <point x="280" y="630" type="line"/>
      <point x="215" y="104" type="line"/>
      <point x="477" y="104" type="line"/>
      <point x="486" y="178" type="line"/>
      <point x="588" y="178" type="line"/>
      <point x="573" y="57" type="line"/>
      <point x="570" y="57" type="line"/>
      <point x="563" y="0" type="line"/>
      <point x="15" y="0" type="line"/>
      <point x="27" y="95" type="line"/>
      <point x="105" y="95" type="line"/>
      <point x="171" y="630" type="line"/>
      <point x="92" y="630" type="line"/>
      <point x="104" y="725" type="line"/>
    </contour>
    <contour>
      <point x="446" y="573" type="qcurve"/>
      <point x="436" y="579"/>
      <point x="415" y="592"/>
      <point x="404" y="598" type="qcurve"/>
      <point x="428" y="618"/>
      <point x="454" y="679"/>
      <point x="452" y="714" type="qcurve"/>
      <point x="509" y="721" type="line"/>
      <point x="513" y="679"/>
      <point x="478" y="602"/>
    </contour>
  </outline>
</glyph>
<glyph name="nacute" format="1">
  <advance width="575"/>
  <unicode hex="0144"/>
  <outline>
    <contour>
      <point x="158" y="89" type="line"/>
      <point x="156" y="74" type="line"/>
      <point x="222" y="74" type="line"/>
      <point x="213" y="0" type="line"/>
      <point x="3" y="0" type="line"/>
      <point x="12" y="74" type="line"/>
      <point x="71" y="74" type="line"/>
      <point x="73" y="91" type="line"/>
      <point x="104" y="344" type="line"/>
      <point x="45" y="344" type="line"/>
      <point x="54" y="418" type="line"/>
      <point x="188" y="418" type="line"/>
      <point x="186" y="387"/>
      <point x="184" y="336"/>
      <point x="182" y="311" type="qcurve"/>
      <point x="211" y="365"/>
      <point x="304" y="429"/>
      <point x="367" y="429" type="qcurve"/>
      <point x="430" y="429"/>
      <point x="497" y="359"/>
      <point x="492" y="304" type="qcurve"/>
      <point x="466" y="97" type="line"/>
      <point x="463" y="74" type="line"/>
      <point x="522" y="74" type="line"/>
      <point x="513" y="0" type="line"/>
      <point x="303" y="0" type="line"/>
      <point x="312" y="74" type="line"/>
      <point x="378" y="74" type="line"/>
      <point x="380" y="94" type="line"/>
      <point x="402" y="265" type="line"/>
      <point x="404" y="297"/>
      <point x="369" y="342"/>
      <point x="326" y="344" type="qcurve"/>
      <point x="296" y="344"/>
      <point x="244" y="323"/>
      <point x="203" y="287"/>
      <point x="176" y="237"/>
      <point x="173" y="207" type="qcurve"/>
    </contour>
    <contour>
      <point x="267" y="486" type="line"/>
      <point x="375" y="620" type="line"/>
      <point x="467" y="620" type="line"/>
      <point x="331" y="486" type="line"/>
    </contour>
  </outline>
</glyph>
<glyph name="uni0146" format="1">
  <advance width="575"/>
  <unicode hex="0146"/>
  <outline>
    <contour>
      <point x="466" y="97" type="line"/>
      <point x="463" y="74" type="line"/>
      <point x="522" y="74" type="line"/>
      <point x="513" y="0" type="line"/>
      <point x="303" y="0" type="line"/>
      <point x="312" y="74" type="line"/>
      <point x="378" y="74" type="line"/>
      <point x="380" y="94" type="line"/>
      <point x="402" y="265" type="line"/>
      <point x="404" y="297"/>
      <point x="369" y="342"/>
      <point x="326" y="344" type="qcurve"/>
      <point x="296" y="344"/>
      <point x="244" y="323"/>
      <point x="203" y="287"/>
      <point x="176" y="237"/>
      <point x="173" y="207" type="qcurve"/>
      <point x="158" y="89" type="line"/>
      <point x="156" y="74" type="line"/>
      <point x="222" y="74" type="line"/>
      <point x="213" y="0" type="line"/>
      <point x="3" y="0" type="line"/>
      <point x="12" y="74" type="line"/>
      <point x="71" y="74" type="line"/>
      <point x="73" y="91" type="line"/>
      <point x="104" y="344" type="line"/>
      <point x="45" y="344" type="line"/>
      <point x="54" y="418" type="line"/>
      <point x="188" y="418" type="line"/>
      <point x="186" y="387"/>
      <point x="184" y="336"/>
      <point x="182" y="311" type="qcurve"/>
      <point x="211" y="365"/>
      <point x="304" y="429"/>
      <point x="367" y="429" type="qcurve"/>
      <point x="430" y="429"/>
      <point x="497" y="359"/>
      <point x="492" y="304" type="qcurve"/>
    </contour>
    <contour>
      <point x="301" y="-22" type="line"/>
      <point x="287" y="-48"/>
      <point x="267" y="-84"/>
      <point x="249" y="-116"/>
      <point x="229" y="-152"/>
      <point x="215" y="-178" type="qcurve"/>
      <point x="139" y="-178" type="line"/>
      <point x="152" y="-152"/>
      <point x="170" y="-116"/>
      <point x="186" y="-84"/>
      <point x="203" y="-48"/>
      <point x="217" y="-22" type="qcurve"/>
    </contour>
  </outline>
</glyph>
<glyph name="Ncaron" format="1">
  <advance width="879"/>
  <unicode hex="0147"/>
  <outline>
    <contour>
      <point x="295" y="95" type="line"/>
      <point x="284" y="0" type="line"/>
      <point x="14" y="0" type="line"/>
      <point x="26" y="95" type="line"/>
      <point x="105" y="95" type="line"/>
      <point x="170" y="630" type="line"/>
      <point x="88" y="630" type="line"/>
      <point x="100" y="725" type="line"/>
      <point x="217" y="725" type="line"/>
      <point x="229" y="707"/>
      <point x="294" y="632"/>
      <point x="380" y="538"/>
      <point x="475" y="435"/>
      <point x="559" y="341"/>
      <point x="623" y="267"/>
      <point x="635" y="250" type="qcurve"/>
      <point x="636" y="248"/>
      <point x="647" y="229"/>
      <point x="651" y="222" type="qcurve"/>
      <point x="651" y="230"/>
      <point x="652" y="248"/>
      <point x="652" y="256" type="qcurve"/>
      <point x="697" y="630" type="line"/>
      <point x="616" y="630" type="line"/>
      <point x="628" y="725" type="line"/>
      <point x="896" y="725" type="line"/>
      <point x="884" y="630" type="line"/>
      <point x="806" y="630" type="line"/>
      <point x="725" y="-33" type="line"/>
      <point x="713" y="-15"/>
      <point x="644" y="65"/>
      <point x="552" y="169"/>
      <point x="449" y="283"/>
      <point x="358" y="386"/>
      <point x="290" y="467"/>
      <point x="279" y="484" type="qcurve"/>
      <point x="278" y="486"/>
      <point x="266" y="503"/>
      <point x="262" y="510" type="qcurve"/>
      <point x="262" y="478" type="line"/>
      <point x="214" y="95" type="line"/>
    </contour>
    <contour>
      <point x="471" y="743" type="qcurve"/>
      <point x="448" y="773"/>
      <point x="429" y="800" type="qcurve"/>
      <point x="412" y="823"/>
      <point x="378" y="872"/>
      <point x="368" y="887" type="qcurve"/>
      <point x="432" y="887" type="line"/>
      <point x="483" y="834" type="line"/>
      <point x="547" y="887" type="line"/>
      <point x="611" y="887" type="line"/>
      <point x="597" y="871"/>
      <point x="550" y="823"/>
      <point x="527" y="800" type="qcurve"/>
      <point x="501" y="773"/>
    </contour>
  </outline>
</glyph>
<glyph name="OE" format="1">
  <advance width="920"/>
  <unicode hex="0152"/>
  <outline>
    <contour>
      <point x="793" y="555" type="line"/>
      <point x="801" y="626" type="line"/>
      <point x="592" y="626" type="line"/>
      <point x="565" y="414" type="line"/>
      <point x="837" y="414" type="line"/>
      <point x="826" y="313" type="line"/>
      <point x="553" y="313" type="line"/>
      <point x="527" y="101" type="line"/>
      <point x="751" y="101" type="line"/>
      <point x="761" y="178" type="line"/>
      <point x="863" y="178" type="line"/>
      <point x="853" y="101" type="line"/>
      <point x="854" y="101" type="line"/>
      <point x="841" y="0" type="line"/>
      <point x="449" y="0" type="line"/>
      <point x="430" y="-4"/>
      <point x="393" y="-8"/>
      <point x="373" y="-8" type="qcurve"/>
      <point x="302" y="-8"/>
      <point x="182" y="44"/>
      <point x="95" y="134"/>
      <point x="46" y="255"/>
      <point x="46" y="324" type="qcurve"/>
      <point x="46" y="406"/>
      <point x="115" y="554"/>
      <point x="231" y="667"/>
      <point x="382" y="733"/>
      <point x="464" y="733" type="qcurve"/>
      <point x="499" y="733"/>
      <point x="536" y="725" type="qcurve"/>
      <point x="916" y="725" type="line"/>
      <point x="908" y="662" type="line"/>
      <point x="909" y="662" type="line"/>
      <point x="895" y="555" type="line"/>
    </contour>
    <contour>
      <point x="451" y="628" type="qcurve"/>
      <point x="393" y="628"/>
      <point x="286" y="581"/>
      <point x="205" y="501"/>
      <point x="156" y="394"/>
      <point x="156" y="334" type="qcurve"/>
      <point x="156" y="284"/>
      <point x="191" y="197"/>
      <point x="252" y="132"/>
      <point x="337" y="95"/>
      <point x="388" y="95" type="qcurve"/>
      <point x="396" y="95"/>
      <point x="409" y="95"/>
      <point x="417" y="96" type="qcurve"/>
      <point x="482" y="626" type="line"/>
      <point x="474" y="627"/>
      <point x="459" y="628"/>
    </contour>
  </outline>
</glyph>
<glyph name="uni0156" format="1">
  <advance width="690"/>
  <unicode hex="0156"/>
  <outline>
    <contour>
      <point x="669" y="95" type="line"/>
      <point x="657" y="0" type="line"/>
      <point x="492" y="0" type="line"/>
      <point x="476" y="31"/>
      <point x="442" y="99"/>
      <point x="407" y="166"/>
      <point x="373" y="231"/>
      <point x="358" y="259" type="qcurve"/>
      <point x="340" y="259" type="line"/>
      <point x="237" y="259" type="line"/>
      <point x="216" y="95" type="line"/>
      <point x="294" y="95" type="line"/>
      <point x="282" y="0" type="line"/>
      <point x="13" y="0" type="line"/>
      <point x="25" y="95" type="line"/>
      <point x="107" y="95" type="line"/>
      <point x="172" y="630" type="line"/>
      <point x="90" y="630" type="line"/>
      <point x="102" y="725" type="line"/>
      <point x="382" y="725" type="line"/>
      <point x="434" y="725"/>
      <point x="520" y="698"/>
      <point x="581" y="647"/>
      <point x="615" y="572"/>
      <point x="615" y="524" type="qcurve"/>
      <point x="615" y="491"/>
      <point x="599" y="423"/>
      <point x="566" y="360"/>
      <point x="514" y="307"/>
      <point x="477" y="289" type="qcurve"/>
      <point x="499" y="245"/>
      <point x="548" y="146"/>
      <point x="574" y="95" type="qcurve"/>
    </contour>
    <contour>
      <point x="249" y="362" type="line"/>
      <point x="349" y="362" type="line"/>
      <point x="393" y="362"/>
      <point x="453" y="393"/>
      <point x="489" y="438"/>
      <point x="504" y="490"/>
      <point x="504" y="510" type="qcurve"/>
      <point x="504" y="529"/>
      <point x="491" y="569"/>
      <point x="463" y="602"/>
      <point x="416" y="623"/>
      <point x="382" y="623" type="qcurve"/>
      <point x="281" y="623" type="line"/>
    </contour>
    <contour>
      <point x="380" y="-22" type="line"/>
      <point x="366" y="-48"/>
      <point x="346" y="-84"/>
      <point x="328" y="-116"/>
      <point x="308" y="-152"/>
      <point x="294" y="-178" type="qcurve"/>
      <point x="218" y="-178" type="line"/>
      <point x="231" y="-152"/>
      <point x="249" y="-116"/>
      <point x="265" y="-84"/>
      <point x="282" y="-48"/>
      <point x="296" y="-22" type="qcurve"/>
    </contour>
  </outline>
</glyph>
<glyph name="uni0157" format="1">
  <advance width="355"/>
  <unicode hex="0157"/>
  <outline>
    <contour>
      <point x="158" y="89" type="line"/>
      <point x="156" y="74" type="line"/>
      <point x="250" y="74" type="line"/>
      <point x="241" y="0" type="line"/>
      <point x="3" y="0" type="line"/>
      <point x="12" y="74" type="line"/>
      <point x="71" y="74" type="line"/>
      <point x="73" y="91" type="line"/>
      <point x="104" y="344" type="line"/>
      <point x="45" y="344" type="line"/>
      <point x="54" y="418" type="line"/>
      <point x="188" y="418" type="line"/>
      <point x="186" y="387"/>
      <point x="184" y="336"/>
      <point x="182" y="311" type="qcurve"/>
      <point x="198" y="338"/>
      <point x="246" y="382"/>
      <point x="297" y="412"/>
      <point x="345" y="429"/>
      <point x="363" y="429" type="qcurve"/>
      <point x="331" y="319" type="line"/>
      <point x="303" y="319"/>
      <point x="249" y="304"/>
      <point x="205" y="274"/>
      <point x="175" y="229"/>
      <point x="171" y="200" type="qcurve"/>
      <point x="157" y="89" type="line"/>
    </contour>
    <contour>
      <point x="183" y="-22" type="line"/>
      <point x="169" y="-48"/>
      <point x="149" y="-84"/>
      <point x="131" y="-116"/>
      <point x="111" y="-152"/>
      <point x="97" y="-178" type="qcurve"/>
      <point x="21" y="-178" type="line"/>
      <point x="34" y="-152"/>
      <point x="52" y="-116"/>
      <point x="68" y="-84"/>
      <point x="85" y="-48"/>
      <point x="99" y="-22" type="qcurve"/>
    </contour>
  </outline>
</glyph>
<glyph name="rcaron" format="1">
  <advance width="355"/>
  <unicode hex="0159"/>
  <outline>
    <contour>
      <point x="158" y="89" type="line"/>
      <point x="156" y="74" type="line"/>
      <point x="250" y="74" type="line"/>
      <point x="241" y="0" type="line"/>
      <point x="3" y="0" type="line"/>
      <point x="12" y="74" type="line"/>
      <point x="71" y="74" type="line"/>
      <point x="73" y="91" type="line"/>
      <point x="104" y="344" type="line"/>
      <point x="45" y="344" type="line"/>
      <point x="54" y="418" type="line"/>
      <point x="188" y="418" type="line"/>
      <point x="186" y="387"/>
      <point x="184" y="336"/>
      <point x="182" y="311" type="qcurve"/>
      <point x="198" y="338"/>
      <point x="246" y="382"/>
      <point x="297" y="412"/>
      <point x="345" y="429"/>
      <point x="363" y="429" type="qcurve"/>
      <point x="331" y="319" type="line"/>
      <point x="303" y="319"/>
      <point x="249" y="304"/>
      <point x="205" y="274"/>
      <point x="175" y="229"/>
      <point x="171" y="200" type="qcurve"/>
      <point x="157" y="89" type="line"/>
    </contour>
    <contour>
      <point x="214" y="486" type="qcurve"/>
      <point x="191" y="516"/>
      <point x="172" y="543" type="qcurve"/>
      <point x="155" y="566"/>
      <point x="121" y="615"/>
      <point x="111" y="630" type="qcurve"/>
      <point x="175" y="630" type="line"/>
      <point x="226" y="577" type="line"/>
      <point x="290" y="630" type="line"/>
      <point x="354" y="630" type="line"/>
      <point x="340" y="614"/>
      <point x="293" y="566"/>
      <point x="270" y="543" type="qcurve"/>
      <point x="244" y="516"/>
    </contour>
  </outline>
</glyph>
<glyph name="Tcaron" format="1">
  <advance width="611"/>
  <unicode hex="0164"/>
  <outline>
    <contour>
      <point x="502" y="546" type="line"/>
      <point x="511" y="621" type="line"/>
      <point x="400" y="621" type="line"/>
      <point x="324" y="0" type="line"/>
      <point x="215" y="0" type="line"/>
      <point x="291" y="621" type="line"/>
      <point x="179" y="621" type="line"/>
      <point x="170" y="546" type="line"/>
      <point x="67" y="546" type="line"/>
      <point x="81" y="657" type="line"/>
      <point x="89" y="725" type="line"/>
      <point x="626" y="725" type="line"/>
      <point x="622" y="695" type="line"/>
      <point x="623" y="695" type="line"/>
      <point x="614" y="621" type="line"/>
      <point x="605" y="546" type="line"/>
    </contour>
    <contour>
      <point x="362" y="743" type="qcurve"/>
      <point x="339" y="773"/>
      <point x="320" y="800" type="qcurve"/>
      <point x="303" y="823"/>
      <point x="269" y="872"/>
      <point x="259" y="887" type="qcurve"/>
      <point x="323" y="887" type="line"/>
      <point x="374" y="834" type="line"/>
      <point x="438" y="887" type="line"/>
      <point x="502" y="887" type="line"/>
      <point x="488" y="871"/>
      <point x="441" y="823"/>
      <point x="418" y="800" type="qcurve"/>
      <point x="392" y="773"/>
    </contour>
  </outline>
</glyph>
<glyph name="tcaron" format="1">
  <advance width="313"/>
  <unicode hex="0165"/>
  <outline>
    <contour>
      <point x="131" y="602" type="line"/>
      <point x="216" y="602" type="line"/>
      <point x="194" y="417" type="line"/>
      <point x="306" y="417" type="line"/>
      <point x="297" y="341" type="line"/>
      <point x="184" y="341" type="line"/>
      <point x="152" y="74" type="line"/>
      <point x="249" y="74" type="line"/>
      <point x="240" y="0" type="line"/>
      <point x="57" y="0" type="line"/>
      <point x="68" y="91" type="line"/>
      <point x="99" y="341" type="line"/>
      <point x="25" y="341" type="line"/>
      <point x="34" y="417" type="line"/>
      <point x="109" y="417" type="line"/>
    </contour>
    <contour>
      <point x="318" y="573" type="qcurve"/>
      <point x="308" y="579"/>
      <point x="287" y="592"/>
      <point x="276" y="598" type="qcurve"/>
      <point x="300" y="618"/>
      <point x="326" y="679"/>
      <point x="324" y="714" type="qcurve"/>
      <point x="381" y="721" type="line"/>
      <point x="385" y="679"/>
      <point x="350" y="602"/>
    </contour>
  </outline>
</glyph>
<glyph name="tbar" format="1">
  <advance width="313"/>
  <unicode hex="0167"/>
  <outline>
    <contour>
      <point x="55" y="463" type="line"/>
      <point x="62" y="521" type="line"/>
      <point x="121" y="521" type="line"/>
      <point x="131" y="602" type="line"/>
      <point x="216" y="602" type="line"/>
      <point x="206" y="521" type="line"/>
      <point x="295" y="521" type="line"/>
      <point x="288" y="463" type="line"/>
      <point x="199" y="463" type="line"/>
      <point x="194" y="417" type="line"/>
      <point x="306" y="417" type="line"/>
      <point x="297" y="341" type="line"/>
      <point x="184" y="341" type="line"/>
      <point x="152" y="74" type="line"/>
      <point x="249" y="74" type="line"/>
      <point x="240" y="0" type="line"/>
      <point x="57" y="0" type="line"/>
      <point x="68" y="91" type="line"/>
      <point x="99" y="341" type="line"/>
      <point x="25" y="341" type="line"/>
      <point x="34" y="417" type="line"/>
      <point x="109" y="417" type="line"/>
      <point x="114" y="463" type="line"/>
    </contour>
  </outline>
</glyph>
<glyph name="uring" format="1">
  <advance width="565"/>
  <unicode hex="016F"/>
  <outline>
    <contour>
      <point x="398" y="330" type="line"/>
      <point x="400" y="344" type="line"/>
      <point x="334" y="344" type="line"/>
      <point x="343" y="418" type="line"/>
      <point x="494" y="418" type="line"/>
      <point x="483" y="327" type="line"/>
      <point x="452" y="74" type="line"/>
      <point x="511" y="74" type="line"/>
      <point x="502" y="0" type="line"/>
      <point x="372" y="0" type="line"/>
      <point x="374" y="107" type="line"/>
      <point x="346" y="56"/>
      <point x="254" y="-10"/>
      <point x="190" y="-10" type="qcurve"/>
      <point x="126" y="-10"/>
      <point x="59" y="59"/>
      <point x="64" y="115" type="qcurve"/>
      <point x="92" y="344" type="line"/>
      <point x="34" y="344" type="line"/>
      <point x="43" y="418" type="line"/>
      <point x="187" y="418" type="line"/>
      <point x="176" y="324" type="line"/>
      <point x="175" y="324" type="line"/>
      <point x="154" y="153" type="line"/>
      <point x="152" y="122"/>
      <point x="188" y="78"/>
      <point x="231" y="75" type="qcurve"/>
      <point x="260" y="75"/>
      <point x="313" y="96"/>
      <point x="353" y="132"/>
      <point x="380" y="182"/>
      <point x="384" y="212" type="qcurve"/>
      <point x="399" y="330" type="line"/>
    </contour>
    <contour>
      <point x="222" y="531" type="qcurve"/>
      <point x="222" y="550"/>
      <point x="238" y="583"/>
      <point x="265" y="609"/>
      <point x="299" y="624"/>
      <point x="318" y="624" type="qcurve"/>
      <point x="350" y="624"/>
      <point x="393" y="580"/>
      <point x="393" y="548" type="qcurve"/>
      <point x="393" y="529"/>
      <point x="377" y="495"/>
      <point x="350" y="469"/>
      <point x="316" y="454"/>
      <point x="298" y="454" type="qcurve"/>
      <point x="265" y="454"/>
      <point x="222" y="499"/>
    </contour>
    <contour>
      <point x="272" y="535" type="qcurve"/>
      <point x="272" y="522"/>
      <point x="290" y="504"/>
      <point x="304" y="504" type="qcurve"/>
      <point x="320" y="504"/>
      <point x="343" y="526"/>
      <point x="343" y="542" type="qcurve"/>
      <point x="343" y="556"/>
      <point x="326" y="574"/>
      <point x="312" y="574" type="qcurve"/>
      <point x="296" y="574"/>
      <point x="272" y="552"/>
    </contour>
  </outline>
</glyph>
